<svg width="451" height="38" viewBox="0 0 451 38" fill="none" xmlns="http://www.w3.org/2000/svg">
<path d="M419 19.4612C419 19.4612 426.927 25.0226 425.467 31.0151C425.467 31.0151 429.222 27.5231 426.426 23.9017C423.965 20.7115 428.346 27.4369 433.352 19.4612C428.346 11.4425 424.424 18.5128 426.426 15.0208C428.93 10.6234 425.467 7.90735 425.467 7.90735C425.926 14.9776 419 19.4612 419 19.4612Z" fill="black"/>
<path d="M425.508 22.9964C425.508 22.9964 431.433 34.6365 440.904 25.6262C448.58 18.3403 451 19.1594 451 19.1594C451 19.1594 447.412 19.2457 441.029 12.9514C431.725 3.7686 425.759 16.2278 425.759 16.2278L425.508 22.9532V22.9964Z" fill="black"/>
<path d="M407.99 37.0432C407.172 37.0432 406.392 36.9193 405.574 36.5888C402.807 35.556 401.325 32.3338 402.3 29.3594C402.651 28.2853 403.352 27.4591 404.327 26.9634C405.262 26.4677 406.353 26.4264 407.367 26.7982C408.107 27.0873 408.731 27.6657 409.082 28.4093C409.433 29.1942 409.472 30.0204 409.199 30.8466C409.043 31.2597 408.614 31.5076 408.224 31.3423C407.834 31.1771 407.601 30.7227 407.757 30.3096C407.873 29.8965 407.873 29.4834 407.679 29.1116C407.523 28.7398 407.211 28.4506 406.821 28.3267C406.197 28.0788 405.535 28.1201 404.95 28.4506C404.366 28.7398 403.937 29.2768 403.703 29.9378C403.001 32.0446 404.054 34.358 406.042 35.1016C409.043 36.217 412.356 34.5233 413.408 31.3423C414.188 29.0289 414.032 26.5503 413.057 24.3608C412.044 22.1713 410.329 20.5189 408.146 19.6927C407.757 19.5274 407.523 19.073 407.679 18.6599C407.834 18.2468 408.263 17.9989 408.653 18.1642C411.186 19.1143 413.252 21.0559 414.421 23.6585C415.591 26.2611 415.747 29.1529 414.85 31.8381C413.798 35.019 410.953 37.0019 407.951 37.0019L407.99 37.0432Z" fill="black"/>
<path d="M408.926 19.734C408.614 19.734 408.302 19.5274 408.224 19.197C408.068 18.7839 408.302 18.3294 408.692 18.1642C413.174 16.5118 415.513 11.3066 413.954 6.55584C412.901 3.37491 409.588 1.68116 406.587 2.79656C404.599 3.54015 403.547 5.85356 404.249 7.96041C404.483 8.62139 404.911 9.11712 405.496 9.4476C406.081 9.73678 406.743 9.77809 407.367 9.57154C407.757 9.4476 408.029 9.15843 408.224 8.78663C408.38 8.41483 408.419 8.00172 408.302 7.58861C408.146 7.17551 408.38 6.72109 408.77 6.55584C409.16 6.3906 409.588 6.63847 409.744 7.05157C410.017 7.83648 409.978 8.70401 409.627 9.48891C409.277 10.2738 408.653 10.8522 407.912 11.1C406.899 11.4718 405.847 11.3892 404.872 10.9348C403.898 10.4391 403.196 9.61285 402.846 8.53876C401.871 5.60569 403.352 2.34214 406.12 1.30937C409.939 -0.0952014 414.11 2.01165 415.435 6.06011C417.267 11.6371 414.499 17.7924 409.238 19.734C409.16 19.734 409.082 19.7753 409.004 19.7753L408.926 19.734Z" fill="black"/>
<path d="M423 18.9589C423 21.7176 420.787 23.9823 418 23.9823C415.213 23.9823 413 21.7588 413 18.9589C413 16.1589 415.213 13.9354 418 13.9354C420.787 13.9354 423 16.1589 423 18.9589Z" fill="black"/>
<path d="M32 20.4659C32 20.4659 24.073 14.9045 25.5332 8.91199C25.5332 8.91199 21.7784 12.404 24.5737 16.0254C27.0352 19.2157 22.6545 12.4902 17.648 20.4659C22.6545 28.4846 26.5763 21.4143 24.5737 24.9064C22.0704 29.3038 25.5332 32.0198 25.5332 32.0198C25.0743 24.9495 32 20.4659 32 20.4659Z" fill="black"/>
<path d="M25.4915 16.9738C25.4915 16.9738 19.5671 5.3337 10.0965 14.344C2.41982 21.6299 0 20.8108 0 20.8108C0 20.8108 3.58801 20.7245 9.97132 27.0188C19.2751 36.2016 25.2412 23.7423 25.2412 23.7423L25.4915 17.0169V16.9738Z" fill="black"/>
<path d="M42.5057 19.7519C42.5057 19.7519 42.3489 19.7519 42.2705 19.7108C39.7229 18.7639 37.6456 16.8289 36.4697 14.2352C35.2939 11.6415 35.1371 8.75961 36.0386 6.04241C37.3712 2.00777 41.565 -0.09189 45.4061 1.30788C48.1889 2.33713 49.6783 5.54837 48.6985 8.51259C48.3457 9.58301 47.6402 10.4064 46.6603 10.9004C45.7197 11.3945 44.6222 11.4356 43.6032 11.0651C42.8585 10.7769 42.2313 10.2006 41.8786 9.4595C41.5258 8.67727 41.4867 7.85388 41.761 7.03048C41.9178 6.61878 42.3489 6.37176 42.7409 6.53644C43.1328 6.70112 43.368 7.15399 43.2112 7.56569C43.0936 7.97739 43.0936 8.38908 43.2896 8.75961C43.4464 9.13014 43.7599 9.41833 44.1519 9.54184C45.4453 9.9947 46.8171 9.29482 47.2875 7.97739C47.993 5.87773 46.9347 3.57222 44.9358 2.83116C41.9178 1.71958 38.5863 3.40754 37.528 6.57761C36.7441 8.88312 36.9009 11.3533 37.8807 13.5353C38.8998 15.7173 40.6244 17.3641 42.8193 18.1875C43.2112 18.3522 43.4464 18.805 43.2896 19.2167C43.172 19.5461 42.8977 19.7519 42.5841 19.7519H42.5057Z" fill="black"/>
<path d="M42.5057 37.0021C39.4877 37.0021 36.6265 35.026 35.5683 31.8559C33.7261 26.298 36.5089 20.1637 41.8002 18.2287C42.1922 18.064 42.6233 18.311 42.7801 18.7227C42.9369 19.1344 42.7017 19.5873 42.3097 19.752C37.8024 21.3988 35.4507 26.5862 37.0185 31.3207C38.0767 34.4908 41.4083 36.1787 44.4263 35.0671C46.4252 34.3261 47.4834 32.0206 46.7779 29.9209C46.3468 28.5623 44.9358 27.8624 43.6424 28.3565C43.2504 28.48 42.9761 28.7682 42.7801 29.1387C42.6233 29.5092 42.5841 29.9209 42.7017 30.3326C42.8585 30.7443 42.6233 31.1972 42.2314 31.3619C41.8394 31.5265 41.4083 31.2795 41.2515 30.8678C40.9771 30.0856 41.0163 29.221 41.3691 28.4388C41.7218 27.6566 42.3489 27.0802 43.0936 26.8332C45.171 26.051 47.4442 27.2037 48.1889 29.3857C49.1688 32.3088 47.6794 35.5612 44.8966 36.5904C44.1127 36.8786 43.2896 37.0433 42.4665 37.0433L42.5057 37.0021Z" fill="black"/>
<path d="M29 18.9589C29 16.2001 31.2131 13.9354 34 13.9354C36.7869 13.9354 39 16.1589 39 18.9589C39 21.7588 36.7869 23.9823 34 23.9823C31.2131 23.9823 29 21.7588 29 18.9589Z" fill="black"/>
<path d="M31.5379 18.4364L80.1534 17.9541L128.769 17.6728L226 17.4317L323.231 17.6728L371.847 17.9541L420.462 18.4364C420.752 18.4364 421 18.6775 421 18.9588C421 19.2401 420.752 19.4813 420.462 19.4813L371.847 19.9635L323.231 20.2448L226 20.486L128.769 20.2448L80.1534 19.9635L31.5379 19.4813C31.2482 19.4813 31 19.2401 31 18.9588C31 18.6775 31.2482 18.4364 31.5379 18.4364Z" fill="black"/>
</svg>
