<svg width="1920" height="842" viewBox="0 0 1920 842" fill="none" xmlns="http://www.w3.org/2000/svg">
<path d="M271.16 328.703C278.627 336.555 276.235 350.971 265.851 360.933C255.468 370.894 241.001 372.652 233.592 364.859C226.184 357.006 228.517 342.591 238.901 332.629C249.284 322.668 263.751 320.91 271.16 328.703Z" fill="#D8D8D8"/>
<path d="M270.168 336.731L223.967 208.107L226.884 207.052L273.085 335.676L270.168 336.731Z" fill="#D8D8D8"/>
<path d="M422.13 261.432C415.538 253.58 418.63 240.043 429.013 231.195C439.455 222.346 453.222 221.526 459.873 229.378C466.464 237.23 463.373 250.767 452.989 259.615C442.547 268.464 428.722 269.284 422.13 261.432Z" fill="#D8D8D8"/>
<path d="M457.306 379.157L420.963 254.4L423.763 253.58L460.106 378.278L457.306 379.157Z" fill="#D8D8D8"/>
<path d="M657.919 159.47C661.419 165.037 658.327 173.299 650.977 177.987C643.627 182.675 634.818 182.03 631.318 176.463C627.818 170.897 630.91 162.634 638.318 157.946C645.669 153.258 654.477 153.962 657.919 159.47Z" fill="#D8D8D8"/>
<path d="M656.811 166.092C656.519 165.974 656.286 165.681 656.227 165.388L643.977 83.4672C643.919 82.9398 644.269 82.4711 644.794 82.4125C645.319 82.3539 645.785 82.7055 645.844 83.1742L658.094 165.095C658.152 165.623 657.802 166.092 657.277 166.15C657.102 166.15 656.927 166.15 656.811 166.092Z" fill="#D8D8D8"/>
<path d="M675.944 114.173C675.536 113.997 675.244 113.587 675.361 113.118C677.636 102.453 665.969 97.4723 658.969 94.4838L657.277 93.722C648.119 89.5615 645.552 86.866 643.919 82.9984C643.744 82.5296 643.919 81.9437 644.385 81.7679C644.852 81.5921 645.435 81.7679 645.61 82.2366C646.835 85.1666 648.585 87.6863 657.977 91.964L659.611 92.6672C666.611 95.6558 679.678 101.281 677.053 113.47C676.936 113.997 676.469 114.29 675.944 114.173C675.944 114.173 675.828 114.173 675.769 114.173H675.944Z" fill="#D8D8D8"/>
<path d="M678.861 133.686C678.453 133.511 678.161 133.042 678.278 132.573C680.553 121.908 668.886 116.927 661.944 113.939C661.361 113.704 660.777 113.411 660.252 113.177C651.094 109.075 648.585 106.321 646.894 102.453C646.66 101.984 646.894 101.398 647.36 101.223C647.827 100.988 648.41 101.223 648.585 101.691C649.869 104.621 651.619 107.2 661.011 111.419C661.536 111.653 662.119 111.888 662.702 112.181C669.703 115.169 682.711 120.795 680.086 132.983C679.969 133.511 679.503 133.804 678.978 133.686H678.861Z" fill="#D8D8D8"/>
<path d="M879.882 307.432C882.974 312.003 880.583 319.034 874.516 323.195C868.449 327.297 861.099 327.004 857.949 322.433C854.857 317.862 857.249 310.831 863.315 306.67C869.382 302.568 876.791 302.92 879.882 307.432Z" fill="#D8D8D8"/>
<path d="M879.124 311.182C879.124 311.182 878.657 310.831 878.599 310.596L863.432 226.683C863.315 226.273 863.665 225.862 864.074 225.745C864.54 225.687 864.949 225.98 865.007 226.39L880.174 310.303C880.233 310.713 879.999 311.124 879.532 311.241C879.357 311.241 879.241 311.241 879.124 311.241V311.182Z" fill="#D8D8D8"/>
<path d="M891.141 252.29C890.791 252.173 890.558 251.763 890.616 251.411C892.249 242.387 882.274 238.52 876.382 236.176L874.982 235.59C867.166 232.367 864.949 230.14 863.49 226.917C863.315 226.507 863.49 226.038 863.899 225.862C864.307 225.687 864.774 225.862 864.949 226.273C866.057 228.675 867.574 230.785 875.624 234.125L877.024 234.652C883.033 236.996 894.116 241.332 892.249 251.646C892.191 252.056 891.783 252.349 891.316 252.29C891.258 252.29 891.199 252.29 891.141 252.29Z" fill="#D8D8D8"/>
<path d="M896.508 280.476C896.158 280.359 895.925 280.008 895.983 279.597C897.616 270.632 887.699 266.706 881.808 264.362C881.283 264.127 880.757 263.952 880.349 263.776C872.474 260.553 870.316 258.326 868.799 255.103C868.624 254.693 868.799 254.224 869.149 254.048C869.557 253.873 870.024 254.048 870.199 254.4C871.307 256.802 872.824 258.912 880.874 262.252C881.283 262.428 881.808 262.604 882.333 262.838C888.283 265.182 899.308 269.518 897.5 279.832C897.441 280.242 897.033 280.535 896.566 280.476H896.45H896.508Z" fill="#D8D8D8"/>
<path d="M898.958 294.306C898.608 294.189 898.375 293.778 898.491 293.427C900.125 284.403 890.208 280.535 884.258 278.191C883.733 277.957 883.266 277.781 882.799 277.605C874.982 274.382 872.824 272.214 871.307 268.991C871.132 268.581 871.307 268.112 871.657 267.936C872.066 267.76 872.532 267.936 872.707 268.288C873.874 270.69 875.391 272.8 883.383 276.14C883.791 276.316 884.316 276.492 884.841 276.726C890.791 279.07 901.875 283.465 900.008 293.72C899.95 294.13 899.541 294.423 899.075 294.364H898.958V294.306Z" fill="#D8D8D8"/>
<path d="M893.766 265.944C893.416 265.827 893.183 265.475 893.3 265.065C894.933 256.099 884.958 252.173 879.066 249.829L877.666 249.243C869.849 246.02 867.632 243.852 866.116 240.629C865.941 240.219 866.116 239.75 866.466 239.574C866.874 239.399 867.341 239.574 867.516 239.926C868.682 242.329 870.199 244.497 878.249 247.778L879.649 248.306C885.599 250.65 896.741 255.045 894.875 265.299C894.816 265.71 894.408 266.003 893.941 265.944C893.941 265.944 893.825 265.944 893.766 265.944Z" fill="#D8D8D8"/>
<path d="M1401.98 486.1C1404.78 494.596 1397.95 504.558 1386.64 508.309C1375.38 512.059 1363.94 508.309 1361.14 499.753C1358.34 491.256 1365.17 481.294 1376.43 477.544C1387.74 473.794 1399.12 477.544 1401.98 486.1Z" fill="#D8D8D8"/>
<path d="M1399.29 491.784C1398.77 491.549 1398.42 491.022 1398.48 490.436L1411.84 352.553C1411.9 351.85 1412.54 351.322 1413.24 351.381C1413.94 351.44 1414.46 352.084 1414.4 352.787L1401.04 490.67C1400.99 491.373 1400.34 491.901 1399.64 491.842C1399.53 491.842 1399.41 491.842 1399.29 491.784Z" fill="#D8D8D8"/>
<path d="M1444.21 405.116C1444.21 405.116 1444.15 405.116 1444.1 405.116C1443.45 404.823 1443.22 404.003 1443.51 403.417C1449.99 390.056 1436.22 379.567 1428 373.297C1427.3 372.769 1426.6 372.242 1425.95 371.715C1415.16 363.159 1412.71 358.706 1411.78 353.08C1411.66 352.377 1412.13 351.732 1412.83 351.615C1413.53 351.498 1414.17 351.967 1414.29 352.67C1414.99 356.948 1416.39 360.933 1427.53 369.722C1428.11 370.191 1428.81 370.719 1429.51 371.246C1437.74 377.575 1453.2 389.353 1445.73 404.589C1445.44 405.175 1444.74 405.468 1444.1 405.233L1444.21 405.116Z" fill="#D8D8D8"/>
<path d="M1440.13 451.585C1440.13 451.585 1440.07 451.585 1440.01 451.585C1439.37 451.292 1439.14 450.471 1439.43 449.886C1445.96 436.525 1432.14 425.977 1423.91 419.707L1421.93 418.184C1411.14 409.687 1408.69 405.233 1407.69 399.549C1407.58 398.846 1408.04 398.201 1408.75 398.084C1409.45 397.967 1410.09 398.436 1410.2 399.139C1410.9 403.417 1412.36 407.401 1423.45 416.191L1425.43 417.715C1433.71 424.043 1449.17 435.822 1441.7 451.116C1441.41 451.702 1440.71 451.995 1440.07 451.761L1440.13 451.585Z" fill="#D8D8D8"/>
<path d="M1442.29 427.618C1442.29 427.618 1442.23 427.618 1442.17 427.618C1441.53 427.325 1441.24 426.563 1441.59 425.919C1448.12 412.617 1434.35 402.069 1426.19 395.799C1425.43 395.213 1424.73 394.685 1424.15 394.217C1413.35 385.72 1410.9 381.325 1409.91 375.582C1409.8 374.879 1410.26 374.234 1410.96 374.117C1411.66 374 1412.3 374.469 1412.42 375.172C1413.12 379.508 1414.58 383.493 1425.66 392.166C1426.3 392.634 1427 393.162 1427.7 393.748C1435.99 400.077 1451.27 411.855 1443.86 427.032C1443.57 427.618 1442.87 427.911 1442.23 427.677L1442.29 427.618Z" fill="#D8D8D8"/>
<path d="M325.528 118.275C331.653 124.135 330.311 135.562 322.553 143.824C314.794 152.028 303.477 153.962 297.352 148.102C291.227 142.242 292.569 130.815 300.327 122.553C308.144 114.349 319.403 112.415 325.586 118.275H325.528Z" fill="#D8D8D8"/>
<path d="M325.236 124.193C324.944 124.076 324.711 123.842 324.536 123.549L274.426 1.83909C274.135 1.19451 274.426 0.491322 275.068 0.256927C275.71 0.0225316 276.41 0.256927 276.702 0.901514L326.753 122.611C327.044 123.256 326.753 123.959 326.111 124.193C325.819 124.311 325.469 124.311 325.178 124.193H325.236Z" fill="#D8D8D8"/>
<path d="M324.361 31.3143C323.894 31.1385 323.603 30.7283 323.603 30.2009C323.136 16.1372 306.919 13.4417 297.235 11.8595C296.36 11.7423 295.602 11.5665 294.844 11.4493C282.01 9.16397 277.985 6.52703 274.601 2.19072C274.193 1.66333 274.31 0.901542 274.835 0.491351C275.36 0.0811593 276.118 0.198357 276.527 0.725746C279.035 4.00728 282.01 6.70282 295.252 9.10537C295.952 9.22257 296.769 9.33977 297.585 9.51557C307.327 11.0977 325.469 14.0863 325.994 30.2009C325.994 30.9041 325.469 31.4315 324.828 31.4901C324.653 31.4901 324.478 31.4901 324.361 31.4315V31.3143Z" fill="#D8D8D8"/>
<path d="M341.628 72.099C341.161 71.9233 340.87 71.5131 340.87 70.9857C340.403 56.922 324.244 54.2264 314.561 52.6442C313.686 52.4685 312.869 52.3513 312.111 52.2341C299.219 49.9487 295.194 47.3118 291.927 42.9754C291.519 42.4481 291.635 41.6863 292.16 41.2761C292.744 40.8659 293.502 40.9831 293.852 41.5105C296.36 44.792 299.277 47.4876 312.519 49.8315C313.277 49.9487 314.094 50.1245 314.969 50.2417C324.711 51.8825 342.795 54.871 343.32 70.9271C343.32 71.6303 342.795 72.1576 342.153 72.2162C341.978 72.2162 341.803 72.2162 341.686 72.1576L341.628 72.099Z" fill="#D8D8D8"/>
<path d="M332.761 51.0621C332.295 50.8863 332.003 50.4761 332.003 49.9487C331.536 35.8264 315.261 33.1894 305.577 31.5487L303.244 31.1385C290.41 28.8531 286.385 26.2162 283.002 21.8799C282.593 21.3525 282.71 20.5907 283.235 20.1805C283.76 19.7703 284.518 19.8875 284.927 20.4149C287.435 23.6964 290.41 26.392 303.594 28.7359L305.927 29.1461C315.669 30.7283 333.87 33.7168 334.395 49.8315C334.395 50.4761 333.87 51.0621 333.228 51.1207C333.053 51.1207 332.878 51.1207 332.761 51.0621Z" fill="#D8D8D8"/>
<path d="M1075.77 292.079C1079.62 297.001 1077.4 305.146 1070.87 310.245C1064.34 315.343 1055.94 315.518 1052.14 310.596C1048.29 305.674 1050.51 297.587 1057.05 292.431C1063.58 287.332 1071.98 287.157 1075.77 292.079Z" fill="#D8D8D8"/>
<path d="M1075.07 296.357C1075.07 296.357 1074.6 296.064 1074.49 295.712L1051.33 202.13C1051.21 201.661 1051.5 201.192 1051.97 201.075C1052.44 200.958 1052.96 201.251 1053.02 201.72L1076.18 295.302C1076.3 295.771 1076 296.298 1075.54 296.415C1075.36 296.415 1075.19 296.415 1075.01 296.415L1075.07 296.357Z" fill="#D8D8D8"/>
<path d="M1084.46 229.027C1084.05 228.851 1083.82 228.499 1083.88 228.089C1085.05 217.834 1073.61 214.143 1066.79 211.974C1066.2 211.74 1065.62 211.564 1065.1 211.388C1056.11 208.341 1053.43 205.997 1051.44 202.481C1051.21 202.071 1051.33 201.485 1051.79 201.251C1052.2 201.016 1052.73 201.134 1053.02 201.602C1054.54 204.239 1056.35 206.583 1065.68 209.689C1066.2 209.865 1066.73 210.041 1067.37 210.216C1074.25 212.443 1087.09 216.545 1085.69 228.265C1085.69 228.734 1085.16 229.085 1084.7 229.027C1084.64 229.027 1084.58 229.027 1084.46 229.027Z" fill="#D8D8D8"/>
<path d="M1092.51 260.436C1092.16 260.318 1091.93 259.908 1091.93 259.498C1093.1 249.243 1081.66 245.552 1074.78 243.325L1073.15 242.797C1064.1 239.75 1061.48 237.406 1059.5 233.89C1059.26 233.48 1059.44 232.894 1059.85 232.66C1060.31 232.425 1060.84 232.601 1061.07 233.011C1062.53 235.648 1064.4 237.934 1073.73 241.098L1075.36 241.625C1082.3 243.852 1095.14 247.954 1093.74 259.732C1093.74 260.26 1093.21 260.553 1092.75 260.553C1092.69 260.553 1092.57 260.553 1092.51 260.494V260.436Z" fill="#D8D8D8"/>
<path d="M1088.43 244.262C1088.02 244.145 1087.85 243.735 1087.85 243.325C1089.01 233.07 1077.58 229.378 1070.75 227.152C1070.11 226.976 1069.59 226.8 1069.06 226.566C1060.08 223.518 1057.4 221.174 1055.41 217.658C1055.18 217.248 1055.35 216.662 1055.76 216.428C1056.23 216.194 1056.75 216.369 1056.99 216.78C1058.45 219.416 1060.31 221.702 1069.59 224.866C1070.11 225.042 1070.64 225.218 1071.28 225.394C1078.16 227.62 1090.94 231.722 1089.6 243.442C1089.6 243.911 1089.07 244.262 1088.6 244.204C1088.55 244.204 1088.43 244.204 1088.37 244.204L1088.43 244.262Z" fill="#D8D8D8"/>
<path d="M796.464 140.425C793.08 136.206 794.947 129.116 800.606 124.662C806.264 120.209 813.498 119.974 816.881 124.252C820.206 128.471 818.339 135.562 812.739 140.015C807.081 144.469 799.847 144.644 796.522 140.425H796.464Z" fill="#D8D8D8"/>
<path d="M813.381 203.888C813.381 203.888 812.973 203.595 812.914 203.36L795.997 137.202C795.881 136.792 796.114 136.382 796.522 136.265C796.931 136.148 797.339 136.382 797.456 136.851L814.373 203.009C814.489 203.419 814.256 203.829 813.848 203.946C813.673 203.946 813.556 203.946 813.381 203.946V203.888Z" fill="#D8D8D8"/>
<path d="M813.323 203.419C813.031 203.302 812.798 203.009 812.798 202.657C812.798 199.2 813.848 196.329 819.506 190.234L820.556 189.121C824.873 184.609 832.106 176.991 826.973 169.666C826.74 169.314 826.798 168.846 827.148 168.553C827.498 168.318 827.965 168.377 828.256 168.728C834.148 177.108 826.04 185.605 821.664 190.176L820.614 191.289C814.781 197.559 814.314 200.079 814.314 202.657C814.314 203.067 813.964 203.419 813.556 203.419C813.439 203.419 813.381 203.419 813.264 203.419H813.323Z" fill="#D8D8D8"/>
<path d="M89.1554 209.63C95.3972 217.6 91.8388 230.785 81.2802 239.047C70.7217 247.309 57.1297 247.661 50.9462 239.692C44.7627 231.722 48.2628 218.537 58.8797 210.216C69.4383 201.954 83.0303 201.661 89.2138 209.63H89.1554Z" fill="#D8D8D8"/>
<path d="M56.6815 94.8562L56.6907 94.8539L87.7073 218.621L87.6981 218.623L56.6815 94.8562Z" fill="#D8D8D8"/>
<path d="M180.974 162.224C187.158 170.193 183.658 183.32 173.099 191.641C162.54 199.962 148.949 200.255 142.765 192.285C136.582 184.316 140.14 171.131 150.699 162.81C161.257 154.489 174.849 154.255 181.033 162.224H180.974Z" fill="#D8D8D8"/>
<path d="M176.774 168.26L145.798 44.499L149.765 43.5029L180.741 167.264L176.774 168.26Z" fill="#D8D8D8"/>
<path d="M56.1963 112.415L156.532 59.7933L149.824 32.9551L49.1961 84.4634L56.1963 112.415Z" fill="#D8D8D8"/>
<path d="M62.7881 122.846L60.9214 119.213L154.082 71.1029L155.949 74.736L62.7881 122.846Z" fill="#D8D8D8"/>
<path d="M1281.58 368.492C1283.38 373.062 1280.06 377.985 1274.11 379.391C1268.16 380.856 1261.92 378.278 1260.05 373.707C1258.24 369.078 1261.57 364.214 1267.52 362.749C1273.41 361.343 1279.71 363.862 1281.52 368.492H1281.58Z" fill="#D8D8D8"/>
<path d="M1279.62 371.959L1281.3 313.267L1279.62 371.959V371.959Z" fill="#D8D8D8"/>
<path d="M1329.93 366.441C1331.8 371.011 1328.42 375.934 1322.53 377.34C1316.58 378.805 1310.28 376.227 1308.47 371.597C1306.66 367.027 1309.98 362.104 1315.93 360.64C1321.88 359.175 1328.13 361.753 1329.93 366.382V366.441Z" fill="#D8D8D8"/>
<path d="M1328.27 368.383L1330.01 309.693L1330.01 309.693L1328.27 368.383L1328.27 368.383Z" fill="#D8D8D8"/>
<path d="M1278.95 320.675L1331.92 318.097L1332.27 305.381L1279.36 307.432L1278.95 320.675Z" fill="#D8D8D8"/>
<path d="M1280.43 325.667L1329.43 323.217L1280.43 325.667L1280.43 325.667Z" fill="#D8D8D8"/>
<path d="M1786.58 681.585C1790.9 689.203 1786.23 700.102 1776.02 705.845C1765.87 711.646 1754.14 710.123 1749.89 702.505C1745.57 694.887 1750.24 683.988 1760.39 678.245C1770.54 672.444 1782.26 673.967 1786.58 681.585Z" fill="#D8D8D8"/>
<path d="M1782.38 689.32L1771.35 578.92L1774.91 578.51L1785.88 688.969L1782.38 689.32Z" fill="#D8D8D8"/>
<path d="M1871.51 652.52C1875.83 660.138 1871.16 671.037 1861.01 676.839C1850.86 682.64 1839.14 681.116 1834.82 673.499C1830.51 665.881 1835.17 654.981 1845.32 649.18C1855.47 643.379 1867.2 644.902 1871.46 652.52H1871.51Z" fill="#D8D8D8"/>
<path d="M1867.2 657.208L1856.17 546.749L1859.73 546.398L1870.76 656.798L1867.2 657.208Z" fill="#D8D8D8"/>
<path d="M1770.54 593.746L1863.52 561.282L1861.13 537.315L1768.03 568.782L1770.54 593.746Z" fill="#D8D8D8"/>
<path d="M1825.06 600.676L1863.03 584.949L1863.44 585.941L1825.47 601.668L1825.06 600.676Z" fill="#D8D8D8"/>
<path d="M1843.92 408.222C1850.28 415.429 1847.71 428.145 1838.15 436.701C1828.58 445.198 1815.63 446.311 1809.33 439.103C1802.97 431.896 1805.6 419.121 1815.16 410.624C1824.73 402.127 1837.68 401.073 1843.98 408.28L1843.92 408.222Z" fill="#D8D8D8"/>
<path d="M1841.24 417.539L1804.49 301.513L1808.22 300.341L1844.91 416.308L1841.24 417.539Z" fill="#D8D8D8"/>
<path d="M1928.62 357.71C1935.04 364.917 1932.42 377.633 1922.85 386.189C1913.28 394.685 1900.33 395.799 1893.97 388.591C1887.61 381.384 1890.24 368.609 1899.75 360.112C1909.32 351.615 1922.27 350.561 1928.57 357.768L1928.62 357.71Z" fill="#D8D8D8"/>
<path d="M1925.01 363.687L1888.26 247.661L1891.99 246.489L1928.74 362.515L1925.01 363.687Z" fill="#D8D8D8"/>
<path d="M1806.94 317.569L1899.4 261.608L1891.46 236.469L1798.65 291.376L1806.94 317.569Z" fill="#D8D8D8"/>
<path d="M579.459 302.861C582.725 307.901 579.867 315.577 573.159 319.913C566.392 324.25 558.342 323.664 555.075 318.624C551.808 313.526 554.666 305.908 561.375 301.513C568.142 297.177 576.25 297.763 579.517 302.861H579.459Z" fill="#D8D8D8"/>
<path d="M576.892 308.311L565.225 232.953L567.617 232.543L579.342 307.959L576.892 308.311Z" fill="#D8D8D8"/>
<path d="M636.743 279.715C640.01 284.813 637.152 292.431 630.443 296.825C623.735 301.162 615.568 300.576 612.359 295.536C609.151 290.438 611.951 282.762 618.718 278.425C625.485 274.089 633.535 274.675 636.802 279.773L636.743 279.715Z" fill="#D8D8D8"/>
<path d="M623.539 207.476L623.539 207.476L635.185 282.87L635.185 282.87L623.539 207.476Z" fill="#D8D8D8"/>
<path d="M565.225 243.09L627.877 217.365L625.31 201.016L562.6 226.097L565.225 243.09Z" fill="#D8D8D8"/>
<path d="M568.115 248.525L626.241 225.041L626.241 225.041L568.115 248.525L568.115 248.525Z" fill="#D8D8D8"/>
<path d="M1123.78 401.073C1123.78 404.764 1119.99 408.222 1115.26 408.749C1110.54 409.277 1106.69 406.698 1106.69 403.007C1106.69 399.256 1110.48 395.857 1115.15 395.33C1119.87 394.803 1123.72 397.381 1123.78 401.131V401.073Z" fill="#D8D8D8"/>
<path d="M1122.61 402.772L1121.27 402.245L1139.06 357.299L1140.35 357.827L1122.61 402.772Z" fill="#D8D8D8"/>
<path d="M1160.06 402.948C1160.06 406.698 1156.27 410.097 1151.55 410.624C1146.82 411.152 1142.97 408.573 1142.91 404.882C1142.91 401.19 1146.71 397.733 1151.43 397.205C1156.16 396.678 1160.01 399.315 1160.06 403.007V402.948Z" fill="#D8D8D8"/>
<path d="M1158.96 404.764L1157.67 404.237L1175.46 359.292L1176.75 359.819L1158.96 404.764Z" fill="#D8D8D8"/>
<path d="M1193.72 402.889C1193.72 406.581 1189.93 410.038 1185.21 410.566C1180.48 411.093 1176.63 408.515 1176.57 404.764C1176.57 401.073 1180.36 397.615 1185.09 397.088C1189.81 396.561 1193.66 399.198 1193.72 402.889Z" fill="#D8D8D8"/>
<path d="M1192.56 404.823L1191.21 404.296L1209.01 359.409L1210.29 359.936L1192.56 404.823Z" fill="#D8D8D8"/>
<path d="M1135.45 364.155L1207.67 368.902L1212.1 357.944L1139.24 354.662L1135.45 364.155Z" fill="#D8D8D8"/>
<path d="M1511.88 313.292C1511.24 323.839 1502.2 331.867 1491.7 331.164C1481.14 330.52 1473.2 321.495 1473.85 310.889C1474.49 300.341 1483.53 292.313 1494.03 292.958C1504.53 293.602 1512.46 302.685 1511.88 313.233V313.292Z" fill="#D8D8D8"/>
<path d="M1534.46 432.364L1541.98 309.248C1530.72 323.605 1519.06 331.633 1507.33 333.039C1495.43 334.446 1485.86 328.82 1479.97 323.781L1481.9 321.554C1487.32 326.183 1496.13 331.457 1506.98 330.168C1518.94 328.762 1530.9 319.855 1542.56 303.681C1542.91 303.154 1543.61 302.92 1544.26 303.154C1544.84 303.388 1545.25 303.974 1545.19 304.619L1537.37 432.54L1534.46 432.364Z" fill="#D8D8D8"/>
<path d="M747.521 237.582C746.879 243.09 741.979 247.075 736.437 246.489C730.954 245.844 726.987 240.922 727.571 235.414C728.154 229.906 733.112 225.921 738.596 226.507C744.079 227.093 748.046 232.074 747.463 237.641L747.521 237.582Z" fill="#D8D8D8"/>
<path d="M756.33 300.634L763.388 236.176C757.263 243.266 751.079 247.016 745.013 247.485C739.937 247.837 735.096 245.845 730.604 241.625L731.654 240.512C735.854 244.438 740.288 246.255 744.954 245.903C751.138 245.493 757.496 241.215 763.855 233.246C764.088 232.953 764.438 232.894 764.73 233.011C765.021 233.129 765.255 233.48 765.196 233.832L757.846 300.81L756.33 300.634Z" fill="#D8D8D8"/>
<path d="M744.663 263.19C744.079 268.698 739.121 272.683 733.637 272.097C728.154 271.511 724.187 266.53 724.77 261.022C725.412 255.513 730.312 251.529 735.796 252.173C741.279 252.759 745.246 257.74 744.663 263.248V263.19Z" fill="#D8D8D8"/>
<path d="M735.096 272.038C732.587 271.101 730.137 269.518 727.804 267.292L728.854 266.178C733.054 270.104 737.487 271.921 742.154 271.569C748.338 271.101 754.638 266.881 761.055 258.853L762.28 259.791C755.63 268.112 748.863 272.566 742.271 273.034C739.821 273.21 737.429 272.859 735.096 271.921V272.038Z" fill="#D8D8D8"/>
<path d="M473.815 160.466L474.631 61.2583H475.74L474.981 160.466H473.815Z" fill="#D8D8D8"/>
<path d="M473.815 160.466L474.631 61.2583H475.74L474.981 160.466H473.815Z" fill="#D8D8D8"/>
<path d="M495.048 152.262L495.865 53.0544H496.973L496.215 152.262H495.048Z" fill="#D8D8D8"/>
<path d="M460.864 86.573L461.214 85.4596L516.341 102.277L515.991 103.391L460.864 86.573Z" fill="#D8D8D8"/>
<path d="M456.139 110.95L456.489 109.837L511.615 126.713L511.265 127.827L456.139 110.95Z" fill="#D8D8D8"/>
<path d="M456.139 110.95L456.489 109.837L511.615 126.713L511.265 127.827L456.139 110.95Z" fill="#D8D8D8"/>
<path d="M1695.56 411.825V411.825L1753.9 483.274L1695.56 411.825Z" fill="#D8D8D8"/>
<path d="M1695.56 411.825V411.825L1753.9 483.274L1695.56 411.825Z" fill="#D8D8D8"/>
<path d="M1763.77 464.945L1705.44 393.455L1706.25 392.81L1764.65 464.242L1763.77 464.945Z" fill="#D8D8D8"/>
<path d="M1700.3 438.4L1699.89 437.404L1749.36 416.426L1749.77 417.422L1700.3 438.4Z" fill="#D8D8D8"/>
<path d="M1711.44 458.675L1711.04 457.738L1760.45 436.701L1760.85 437.697L1711.44 458.675Z" fill="#D8D8D8"/>
<path d="M1711.44 458.675L1711.04 457.738L1760.45 436.701L1760.85 437.697L1711.44 458.675Z" fill="#D8D8D8"/>
<path d="M1722.76 724.89L1664.43 653.458L1665.24 652.755L1723.58 724.186L1722.76 724.89Z" fill="#D8D8D8"/>
<path d="M1722.76 724.89L1664.43 653.458L1665.24 652.755L1723.58 724.186L1722.76 724.89Z" fill="#D8D8D8"/>
<path d="M1733.09 706.314L1674.75 634.823L1675.57 634.179L1733.9 705.611L1733.09 706.314Z" fill="#D8D8D8"/>
<path d="M1669.62 679.769L1669.15 678.772L1718.62 657.794L1719.03 658.732L1669.62 679.769Z" fill="#D8D8D8"/>
<path d="M1680.7 700.044L1680.29 699.048L1729.76 678.069L1730.17 679.065L1680.7 700.044Z" fill="#D8D8D8"/>
<path d="M1680.7 700.044L1680.29 699.048L1729.76 678.069L1730.17 679.065L1680.7 700.044Z" fill="#D8D8D8"/>
<path d="M53.8046 597.965C53.1046 598.199 52.3462 598.433 51.5879 598.609C46.3377 599.898 41.0293 599.078 36.4792 596.734C32.5124 594.683 29.2457 591.343 27.0873 587.182C26.6789 586.362 26.2123 585.542 25.9206 584.604C23.7039 578.451 24.4622 571.888 27.379 566.614C28.4873 564.563 29.8873 562.747 31.5207 561.165C33.3874 559.407 35.5458 558 37.9959 557.004C38.3459 556.828 38.7542 556.653 39.1626 556.477C50.5962 552.375 63.0798 558.41 67.1632 569.896C71.1883 581.264 65.1799 593.804 53.8629 597.965H53.8046Z" fill="#D8D8D8"/>
<path fill-rule="evenodd" clip-rule="evenodd" d="M87.7872 525.378L87.7876 525.379C90.8504 530.936 93.7175 536.139 96.3889 542.472L96.7389 542.413C99.364 548.8 100.297 555.715 100.297 562.219C100.297 564.974 100.122 567.611 99.5973 570.189C99.534 570.571 99.4534 570.918 99.3743 571.259C99.3078 571.546 99.2423 571.828 99.189 572.123C97.0889 581.264 92.1888 589.292 85.8303 594.273C78.8885 599.957 71.2467 602.535 64.2465 603.356C64.0299 603.378 63.7972 603.415 63.5574 603.454C63.1514 603.521 62.7249 603.59 62.3214 603.59C61.5048 603.707 60.6881 603.707 59.8714 603.707C51.7045 603.707 44.996 601.363 40.0959 598.726C38.8709 598.082 37.8209 597.379 36.7708 596.676C31.5207 593.042 28.954 589.526 27.904 587.944C27.6123 587.417 27.379 587.065 27.379 587.065L32.1624 584.018C32.2453 584.03 32.3667 584.271 32.5779 584.691C33.4066 586.34 35.6181 590.737 42.3126 594.8C44.7044 596.441 48.0294 597.789 51.9379 598.492C57.013 599.547 63.0798 599.43 69.0299 597.379H69.2049C70.255 597.027 71.3633 596.558 72.355 595.972C75.5634 594.507 78.6552 592.339 81.5136 589.409C82.9136 587.944 84.0803 586.303 85.1303 584.546C85.6553 583.667 86.1803 582.67 86.647 581.674C93.3555 567.61 91.2555 547.101 78.5385 528.759C77.7218 527.236 76.8468 525.771 75.9134 524.247C75.8906 524.201 75.8678 524.155 75.8448 524.107C75.8246 524.065 75.8044 524.023 75.784 523.98C75.6492 523.698 75.5063 523.399 75.3301 523.134C71.2467 516.219 66.9882 509.07 62.4964 501.687C45.346 509.715 26.2122 514.579 5.97011 515.223C5.27009 515.34 4.51174 515.34 3.75339 515.34H0.77832C-18.4138 515.106 -38.7726 510.125 -56.0397 498.347C-56.1564 498.269 -56.2731 498.197 -56.3898 498.125C-56.6231 497.982 -56.8564 497.839 -57.0897 497.644C-60.0065 495.71 -62.6899 493.6 -65.3733 491.256C-76.6319 481.529 -85.0321 468.461 -90.1072 454.222C-90.2822 453.914 -90.3587 453.607 -90.4353 453.299C-90.4608 453.196 -90.4863 453.094 -90.5155 452.991C-94.0156 443.205 -95.9406 433.068 -96.2323 423.047C-96.9323 409.921 -95.9406 397.088 -93.4323 384.606C-93.4323 384.02 -93.3156 383.376 -93.1406 382.731C-91.0405 371.539 -87.8321 360.698 -83.7487 350.209C-81.4736 344.232 -79.2569 338.665 -76.9819 333.743L-70.0984 318.507C-66.2483 310.127 -63.0982 301.631 -60.3565 292.958L-60.3566 292.958L-60.3567 292.958L-60.3567 292.957L-60.3568 292.957L-60.3569 292.957C-60.8235 292.02 -61.29 291.082 -61.7565 290.262C-61.914 289.906 -62.0981 289.55 -62.273 289.212L-62.2732 289.212C-62.3572 289.049 -62.4391 288.891 -62.5149 288.739C-69.3983 275.261 -75.9318 261.315 -81.9986 246.841L-81.9992 246.839L-81.9993 246.839L-81.9993 246.839L-81.9994 246.839L-81.9995 246.839C-83.3409 243.851 -84.6823 240.863 -86.0237 237.816C-86.0867 237.669 -86.1647 237.529 -86.2415 237.391C-86.3783 237.146 -86.5114 236.907 -86.5488 236.644C-88.5114 232.36 -90.4496 228.076 -92.395 223.776C-93.4564 221.43 -94.5199 219.079 -95.5906 216.721L-96.0302 215.712C-100.394 205.703 -104.972 195.204 -106.383 182.675V182.382L-106.499 181.386L-106.733 179.979C-106.752 179.799 -106.779 179.688 -106.806 179.577C-106.857 179.362 -106.908 179.151 -106.908 178.456V177.46C-106.917 177.245 -106.928 177.033 -106.938 176.818C-106.996 175.686 -107.055 174.515 -106.908 172.889C-106.791 169.256 -106.383 165.974 -105.683 162.165C-103.874 155.309 -101.132 145.348 -89.2905 138.55C-83.3403 135.503 -75.9902 136.323 -71.4984 139.077C-66.8316 141.773 -62.3982 145.758 -60.1815 147.809C-59.6632 148.267 -59.1743 148.703 -58.7045 149.122L-58.7043 149.122L-58.7042 149.122L-58.7037 149.123C-57.8518 149.882 -57.0624 150.586 -56.273 151.266C-55.923 151.618 -55.5147 151.969 -55.1647 152.262C-51.7229 155.368 -49.2145 157.712 -46.6478 161.111C-37.4309 171.834 -30.9558 184.843 -25.8806 198.672C-25.7765 198.882 -25.7137 199.111 -25.6553 199.325L-25.6553 199.325L-25.6553 199.325C-25.6155 199.471 -25.5779 199.609 -25.5306 199.727C-22.2056 208.81 -19.5222 218.186 -16.9554 227.562C-14.5637 236.644 -13.2803 246.137 -13.222 255.63C-13.222 255.965 -13.2154 256.292 -13.2089 256.617V256.618V256.618C-13.196 257.262 -13.1833 257.899 -13.222 258.56C-13.1637 273.269 -15.7304 287.977 -20.1638 301.806C-23.0806 311.827 -26.989 321.437 -31.3641 330.754C-31.2022 331.043 -31.0458 331.327 -30.8915 331.607L-30.8913 331.607C-30.5455 332.234 -30.2104 332.842 -29.8474 333.45C-29.5557 334.036 -29.2641 334.622 -28.9724 335.149C-25.764 340.892 -22.4972 346.576 -19.2888 352.143C-17.1304 355.776 -15.0304 359.409 -12.9303 363.042C-8.26357 356.069 -2.19675 349.564 5.50343 343.939C18.3371 334.329 36.0125 328.234 54.0963 329.465C58.938 329.699 63.6631 330.52 68.3299 331.809C69.3216 332.043 70.3716 332.395 71.4217 332.805C83.6136 336.555 94.9889 343.646 104.031 353.08C107.589 356.713 110.856 360.698 113.773 364.917C113.858 365.037 113.953 365.161 114.05 365.289L114.05 365.289C114.288 365.601 114.541 365.933 114.706 366.265C122.29 377.633 127.365 390.935 128.648 405.057C129.056 408.866 129.173 412.792 128.94 416.66C128.94 417.187 128.94 417.832 128.823 418.418C127.773 434.005 121.823 449.358 112.431 462.25C101.289 476.314 87.172 488.268 71.0717 497.175C75.2134 503.855 79.1218 510.301 82.7969 516.63C82.9136 516.805 83.0157 516.996 83.1178 517.186C83.2198 517.377 83.3219 517.567 83.4386 517.743C83.9213 518.591 84.4139 519.44 84.9041 520.284L84.9043 520.284L84.9044 520.285L84.9046 520.285L84.907 520.289C85.6008 521.484 86.2897 522.671 86.9387 523.837C87.2232 524.355 87.506 524.868 87.7872 525.378ZM-72.6068 243.208C-74.1235 239.34 -75.4068 235.473 -76.5735 231.488C-76.6902 231.078 -76.8069 230.667 -76.9235 230.199C-80.0153 219.123 -81.707 207.579 -82.057 196.036C-82.0806 195.096 -82.1295 193.996 -82.1838 192.778L-82.1838 192.777C-82.5325 184.948 -83.0998 172.207 -78.5569 165.564C-76.8652 163.162 -74.5318 161.462 -71.1484 161.169H-71.0901H-70.8567C-61.9315 160.642 -56.6814 171.131 -54.173 178.163C-50.2646 188.769 -47.8728 200.02 -47.3478 211.33C-47.2895 211.799 -47.2895 212.267 -47.2895 212.736C-46.9978 218.596 -47.2895 224.515 -48.1062 230.433C-50.3229 247.427 -53.1813 263.659 -57.1481 279.832C-62.6899 267.878 -67.8816 255.748 -72.6651 243.208H-72.6068ZM24.6983 497.705L24.6989 497.705C25.2555 497.643 25.8331 497.579 26.3873 497.468L26.3289 497.409C36.1875 496.413 45.8127 494.069 55.0879 490.553C52.7545 486.861 50.4212 483.17 48.0294 479.302C47.9128 479.097 47.7961 478.907 47.6794 478.716C47.5628 478.526 47.4461 478.335 47.3294 478.13C49.1957 476.523 51.1974 474.916 53.2313 473.283C53.8675 472.773 54.5069 472.259 55.1463 471.743C49.6045 463.129 43.8877 454.222 38.0542 445.08L38.1125 445.139C43.946 454.28 49.6628 463.187 55.2046 471.801C55.3157 472.062 55.4972 472.346 55.6746 472.623L55.6752 472.624C55.7772 472.784 55.8778 472.941 55.963 473.091V473.208C57.2504 475.293 58.5616 477.354 59.8644 479.403C61.4541 481.902 63.0314 484.382 64.5382 486.861C80.2885 479.654 94.1722 469.164 104.264 456.331C111.206 447.717 115.581 437.287 117.039 426.915C117.273 426.329 117.273 425.684 117.273 425.098C118.031 419.004 117.798 412.91 116.456 407.108C113.598 395.154 107.356 384.665 99.4807 376.461C99.3053 376.31 99.1407 376.138 98.9776 375.967C98.7609 375.739 98.5469 375.515 98.314 375.348C95.8639 372.769 93.2388 370.601 90.4971 368.609C72.355 355.131 51.8212 352.494 34.6125 357.299C34.5541 357.299 34.5541 357.358 34.5541 357.358C31.7541 357.944 29.0707 358.999 26.4456 360.229C26.4067 360.19 26.3678 360.203 26.3289 360.216C26.3095 360.223 26.29 360.229 26.2706 360.229C23.8205 361.284 21.3121 362.632 19.0954 364.038C14.5453 366.968 10.5202 370.426 7.02013 374.234C5.15343 376.227 3.46172 378.219 1.94501 380.505C-7.56355 387.419 -17.0138 394.627 -26.464 402.069C-26.464 401.358 -26.3624 400.647 -26.2541 399.889L-26.2307 399.725C-25.2973 390.232 -22.5556 380.153 -17.4805 370.601C-20.2805 365.855 -23.1389 360.991 -25.939 356.069C-28.9141 350.678 -32.0058 345.228 -35.1559 339.72C-35.2142 339.544 -35.3309 339.368 -35.4475 339.192C-35.6226 339.603 -35.7976 339.954 -36.0309 340.423C-36.3954 341.188 -36.8163 341.916 -37.2402 342.649L-37.2407 342.65L-37.2409 342.65L-37.2412 342.651C-37.5633 343.208 -37.8872 343.767 -38.1893 344.349L-42.0977 351.44C-45.0144 356.42 -47.3478 361.108 -49.3895 365.445C-58.1397 383.962 -65.0816 403.71 -66.3066 422.93C-66.4816 426.153 -66.4816 429.435 -66.2483 432.716C-66.2483 433.195 -66.2001 433.626 -66.1476 434.096L-66.1316 434.24C-64.9066 449.241 -59.3648 463.187 -49.2729 473.97C-46.4728 476.958 -43.3227 479.712 -39.9977 482.173C-39.7116 482.338 -39.4541 482.531 -39.1852 482.732C-39.1297 482.774 -39.0736 482.816 -39.0167 482.858C-38.9559 482.903 -38.8941 482.949 -38.831 482.994C-27.339 490.963 -12.9887 495.651 1.42 497.351C8.82851 498.288 16.2953 498.405 23.7622 497.819C24.0614 497.776 24.3763 497.741 24.6983 497.705ZM-2.55139 453.522L-2.55153 453.522L-2.55167 453.522L-2.55183 453.521L-2.5529 453.519L-2.55746 453.508C-2.57375 453.47 -2.59008 453.432 -2.60643 453.393C-2.5882 453.436 -2.57 453.479 -2.55183 453.521C-2.55169 453.522 -2.55154 453.522 -2.55139 453.522ZM18.1548 430.478L18.1558 430.48L18.1608 430.488M34.3606 439.283C34.1792 439.002 33.9976 438.72 33.8159 438.438C33.5508 438.026 33.2854 437.614 33.0199 437.201C33.2857 437.614 33.5512 438.026 33.8165 438.438L33.8167 438.439L33.8202 438.444C34.0005 438.724 34.1806 439.004 34.3606 439.283ZM26.4456 426.915C26.5611 427.1 26.6948 427.295 26.8323 427.495C26.6947 427.295 26.561 427.1 26.4456 426.915ZM25.7829 442.976C25.6863 442.816 25.5896 442.656 25.4928 442.496C25.2782 442.141 25.0634 441.786 24.8483 441.43C25.0635 441.786 25.2785 442.142 25.4932 442.497C25.5898 442.657 25.6864 442.817 25.7829 442.976Z" fill="#D8D8D8"/>
<path d="M961.143 303.799C929.059 292.313 957.293 263.248 957.293 263.248C949.068 262.018 940.434 258.795 943.059 245.493C945.976 230.96 968.435 219.827 953.793 208.634C953.793 208.634 974.91 205.529 967.793 229.906C963.301 245.259 948.776 250.357 967.151 261.139C967.151 261.139 946.151 286.981 961.143 303.799Z" fill="#D8D8D8"/>
<path d="M350.437 271.394C315.319 237.055 369.57 215.959 369.57 215.959C359.595 209.455 350.203 200.02 361.579 184.199C374.062 166.853 410.113 165.857 397.571 142.418C397.571 142.418 427.088 151.09 403.171 178.632C388.121 196.036 366.07 193.985 383.687 219.123C383.687 219.123 340.811 240.336 350.378 271.335L350.437 271.394Z" fill="#D8D8D8"/>
<path d="M1647.33 518.681C1645.29 524.013 1639.4 526.65 1634.03 524.599C1628.73 522.548 1626.1 516.571 1628.08 511.238C1630.13 505.906 1636.08 503.269 1641.38 505.32C1646.69 507.371 1649.32 513.348 1647.28 518.681H1647.33Z" fill="#D8D8D8"/>
<path d="M1631.7 559.582C1629.66 564.915 1623.71 567.61 1618.4 565.56C1613.09 563.509 1610.47 557.531 1612.51 552.199C1614.55 546.867 1620.5 544.23 1625.75 546.281C1631.06 548.331 1633.74 554.309 1631.7 559.582Z" fill="#D8D8D8"/>
<path d="M1566.83 484.517C1563.04 494.421 1551.96 499.401 1542.04 495.593C1532.12 491.784 1527.22 480.65 1530.96 470.747C1534.75 460.785 1545.83 455.804 1555.75 459.672C1565.67 463.48 1570.57 474.614 1566.83 484.576V484.517Z" fill="#D8D8D8"/>
<path d="M1519.87 595.679C1519.87 595.679 1523.72 595.093 1530.37 593.218C1537.02 591.343 1546.41 588.061 1556.86 582.553C1567.3 577.045 1578.79 569.134 1588.82 558.352C1593.84 552.961 1598.45 546.867 1602.36 540.245C1606.27 533.447 1609.53 526.709 1611.81 518.915C1613.85 511.707 1614.49 503.796 1613.27 496.53C1612.16 489.205 1608.95 482.525 1604.69 477.075C1596 466.117 1583.05 460.433 1572.32 459.965C1561.35 459.32 1553.3 463.891 1549.33 468.168C1547.29 470.336 1546.01 472.27 1545.19 473.735C1544.43 475.142 1544.02 475.903 1544.02 475.903L1543.79 476.372C1542.51 478.716 1539.65 479.537 1537.31 478.306C1534.98 477.017 1534.16 474.145 1535.39 471.801L1535.45 471.684C1535.45 471.684 1536.03 470.688 1537.14 468.872C1538.25 467.055 1540.06 464.477 1542.91 461.664C1545.83 458.91 1549.86 456.038 1555.05 454.163C1560.24 452.229 1566.37 451.409 1572.9 451.995C1585.85 453.108 1600.32 460.257 1609.82 473.208C1614.49 479.654 1617.88 487.506 1618.81 495.827C1619.86 504.148 1618.81 512.528 1616.24 520.556C1613.73 528.056 1610 535.733 1605.86 542.413C1601.66 549.21 1596.7 555.363 1591.39 560.813C1580.77 571.712 1568.82 579.506 1558.02 584.839C1547.23 590.23 1537.61 593.277 1530.84 595.035C1524.07 596.793 1520.05 597.32 1520.05 597.32C1519.64 597.379 1519.23 597.086 1519.17 596.676C1519.11 596.207 1519.41 595.855 1519.87 595.738V595.679Z" fill="#D8D8D8"/>
<path d="M1967.59 226.741C1945.37 243.852 1923.26 259.791 1900.8 274.324C1899.69 275.085 1898.58 275.788 1897.41 276.55C1870.7 293.603 1843.51 308.721 1814.87 321.32C1813.7 321.906 1812.48 322.492 1811.31 322.961C1746.33 351.088 1674.11 366.968 1585.09 365.972C1571.03 365.796 1556.51 365.269 1541.57 364.273C1540.58 364.214 1539.71 364.097 1538.71 364.038C1477.46 359.702 1408.69 348.217 1330.34 328.938C1329.7 328.762 1329.12 328.586 1328.42 328.469C1323.87 327.355 1319.26 326.125 1314.65 324.953C1312.55 324.367 1310.39 323.898 1308.23 323.312C1303.92 322.199 1299.54 321.027 1295.17 319.855C1290.91 318.8 1286.59 317.628 1282.33 316.397C1281.69 316.28 1281.11 316.104 1280.41 315.929C1280 315.811 1279.59 315.753 1279.18 315.577C1222.42 299.99 1160.88 280.711 1093.8 257.447C1093.21 257.271 1092.57 257.037 1091.93 256.744C1082.83 253.638 1073.67 250.474 1064.4 247.075C1063.75 246.899 1063.11 246.606 1062.35 246.372C1003.44 225.452 940.376 201.544 872.591 174.706C865.415 171.951 858.299 169.08 851.24 166.385C834.031 159.763 816.998 153.493 800.314 147.574C799.731 147.399 799.089 147.164 798.506 146.988C756.563 132.163 716.254 119.505 677.403 108.782C676.761 108.665 676.061 108.489 675.419 108.313C666.377 105.852 657.336 103.449 648.469 101.164C647.827 100.988 647.127 100.812 646.485 100.695C593.751 87.2761 543.933 77.4901 496.915 70.8099L495.748 70.6341C488.982 69.6965 482.273 68.8175 475.681 67.9385C475.331 67.8799 474.923 67.9385 474.573 67.8213C425.922 61.7271 380.362 59.0315 337.895 59.0315C336.611 59.0315 335.328 59.0315 333.986 59.0315C322.728 59.0315 311.702 59.2659 300.852 59.6175C300.035 59.6175 299.16 59.7347 298.227 59.7347C246.776 61.7271 200.108 67.587 157.932 76.0252C156.532 76.2596 155.19 76.5526 153.907 76.9042C152.915 77.0214 151.865 77.2558 150.932 77.4901C145.74 78.5449 140.607 79.7169 135.532 80.8303C122.873 83.7016 110.681 86.866 98.9556 90.1475C85.6553 93.8392 72.7634 97.8825 60.5714 101.984C59.288 102.453 58.0047 102.863 56.7213 103.332C55.8463 103.567 55.0296 103.918 54.2129 104.153C11.1619 119.154 -25.1223 136.148 -55.223 152.555C-60.6481 155.485 -65.8399 158.415 -70.9151 161.286H-70.9734C-73.4818 162.751 -75.9318 164.216 -78.3819 165.623C-88.6488 171.658 -97.9824 177.46 -106.499 182.968C-106.499 182.909 -106.499 182.734 -106.499 182.675L-106.616 181.679C-92.1489 172.244 -75.4068 161.99 -56.3314 151.5C-25.9973 134.8 10.5202 117.513 53.8046 102.453C54.6212 102.102 55.4963 101.867 56.313 101.633C57.5963 101.164 58.8797 100.695 60.1631 100.285C74.7467 95.3042 90.0888 90.6749 106.247 86.28C117.739 83.1742 129.523 80.2443 141.89 77.4901C145.682 76.6698 149.532 75.8494 153.499 75.029C154.257 74.9118 155.074 74.736 155.949 74.5602C156.415 74.3844 156.999 74.3258 157.524 74.2086C163.649 72.978 169.891 71.8061 176.249 70.6927C215.45 63.8366 255.934 59.5003 297.644 57.9181C298.46 57.9181 299.335 57.9181 300.269 57.801C310.536 57.3908 320.919 57.215 331.419 57.3322C332.936 57.215 334.511 57.215 335.97 57.3322C380.887 57.2736 427.147 60.2621 474.69 66.2392C475.04 66.2978 475.448 66.3564 475.798 66.3564C482.448 67.2354 489.157 68.1729 495.865 69.1105C496.215 69.1691 496.623 69.1105 497.032 69.2863C545.508 76.1424 595.326 86.1628 646.427 99.2889C647.069 99.4061 647.769 99.5819 648.41 99.7577C657.277 101.984 666.144 104.328 675.128 106.907C675.886 107.024 676.528 107.2 677.228 107.493C716.837 118.334 757.205 131.108 798.272 145.641C798.856 145.816 799.439 145.992 800.022 146.227C817.114 152.262 834.265 158.591 851.648 165.271C858.824 167.967 865.999 170.838 873.232 173.709C940.842 200.548 1003.67 224.339 1062.18 245.2C1062.82 245.376 1063.58 245.669 1064.22 245.903C1073.55 249.185 1082.77 252.408 1091.81 255.572C1092.51 255.865 1093.21 256.041 1093.85 256.275C1161.17 279.656 1222.77 298.935 1279.36 314.464C1279.83 314.639 1280.23 314.698 1280.7 314.815C1281.28 314.991 1281.87 315.167 1282.51 315.343C1288.05 316.808 1293.53 318.273 1299.02 319.738C1303.39 320.91 1307.77 322.023 1312.2 323.195C1314.42 323.722 1316.58 324.308 1318.79 324.894C1322.06 325.715 1325.38 326.476 1328.71 327.297C1329.35 327.531 1329.99 327.648 1330.63 327.766C1409.39 347.279 1477.93 358.647 1539.01 362.925C1540 362.925 1540.99 363.042 1541.92 363.101C1649.9 370.191 1734.49 354.838 1811.08 321.554C1812.3 321.085 1813.53 320.558 1814.7 320.031C1843.11 307.49 1870.35 292.489 1897.3 275.261C1898.47 274.558 1899.57 273.855 1900.68 273.093C1922.91 258.853 1944.9 243.09 1967.13 225.921L1967.88 226.917L1967.59 226.741Z" fill="#D8D8D8"/>
<path d="M1967.77 309.014C1952.19 319.093 1936.56 328.586 1920.75 337.376C1919.58 338.02 1918.42 338.665 1917.25 339.251C1889.95 354.37 1862.18 367.437 1832.78 377.985C1831.56 378.454 1830.33 378.864 1829.05 379.274C1794.05 391.58 1756.89 400.428 1716.05 404.823C1715.64 404.94 1715.18 404.94 1714.77 404.94C1676.15 409.101 1634.21 409.335 1587.77 404.94C1572.26 403.475 1556.1 401.483 1539.47 399.08C1538.42 398.905 1537.43 398.846 1536.5 398.612C1506.46 394.158 1474.49 387.947 1439.84 379.919C1438.26 379.567 1436.69 379.274 1435.05 378.805C1427.65 377.106 1420.12 375.289 1412.48 373.355C1411.6 373.121 1410.73 372.887 1409.91 372.711C1384.59 366.382 1357.94 359.116 1329.76 350.854C1329.12 350.678 1328.42 350.502 1327.78 350.268C1312.84 345.931 1297.56 341.243 1281.75 336.262C1281.17 336.087 1280.53 335.852 1279.88 335.676C1217.17 316.046 1147.23 291.845 1068.3 262.78C1067.66 262.545 1067.02 262.252 1066.32 261.959H1066.26C1035.23 250.532 1002.85 238.227 968.901 225.218C965.226 223.753 961.493 222.346 957.818 220.881C934.075 211.681 909.575 202.188 884.374 192.227C879.357 190.234 874.341 188.3 869.324 186.367C856.14 181.269 843.015 176.405 829.89 171.717C829.248 171.541 828.606 171.248 827.906 171.072C819.973 168.26 812.098 165.506 804.281 162.81C803.697 162.576 803.114 162.4 802.531 162.224C761.113 148.16 720.22 136.148 680.028 126.303C679.328 126.127 678.569 125.893 677.928 125.776C669.061 123.549 660.252 121.498 651.444 119.506C650.802 119.388 650.102 119.213 649.46 119.095C597.484 107.493 546.616 99.4061 496.857 94.8354C496.507 94.7182 496.098 94.7182 495.748 94.7182C494.115 94.5424 492.482 94.308 490.79 94.308C488.982 94.0736 487.115 93.9564 485.306 93.7806C482.098 93.4876 478.948 93.2532 475.681 93.0775C475.331 93.0775 474.923 92.9603 474.573 93.0775C419.972 89.0341 366.829 89.3271 315.202 93.8978C314.327 94.015 313.511 94.015 312.636 94.0736C274.368 97.5896 236.917 103.391 200.341 111.536C189.608 113.88 179.108 116.458 168.957 119.154C167.616 119.564 166.274 119.857 164.991 120.267C131.623 129.233 100.939 139.781 73.1134 150.973C71.7717 151.5 70.605 152.028 69.2633 152.555C33.0374 167.264 1.42 183.202 -25.7056 198.731C-33.1725 202.95 -40.231 207.111 -46.9978 211.213C-57.6731 217.834 -67.5316 224.046 -76.5735 230.081C-80.0153 232.425 -83.3403 234.652 -86.4904 236.82C-86.4321 237.23 -86.1404 237.582 -85.9654 237.992C-82.8153 235.824 -79.6069 233.656 -76.2235 231.429C-67.24 225.452 -57.4397 219.123 -46.8811 212.678C-39.9977 208.458 -32.8225 204.181 -25.2973 199.844C1.82835 184.374 33.3874 168.377 69.5549 153.551C70.78 153.083 72.0633 152.497 73.405 151.969C101.289 140.777 131.915 130.288 165.282 121.263C166.566 120.853 167.907 120.502 169.249 120.15C212.533 108.723 260.484 99.8163 313.102 95.0698C313.977 94.9526 314.794 94.894 315.669 94.7768C364.495 90.5577 417.463 89.9131 474.631 94.0736C474.981 94.1322 475.39 94.0736 475.74 94.1908C480.581 94.5424 485.365 94.9526 490.265 95.3628C492.073 95.48 493.94 95.6558 495.807 95.8902C495.807 95.8316 495.865 95.8902 495.982 95.8902C496.273 95.8902 496.565 95.8902 496.973 95.9488C544.983 100.461 595.909 108.372 649.81 120.384C650.452 120.502 651.152 120.677 651.794 120.795C660.602 122.787 669.469 124.897 678.511 127.065C679.153 127.241 679.853 127.416 680.494 127.534C719.812 137.261 760.705 149.274 803.172 163.63C803.756 163.806 804.339 163.982 804.922 164.216C812.856 166.912 820.906 169.666 828.84 172.537C829.423 172.772 830.006 172.948 830.473 173.123C843.19 177.753 856.082 182.499 869.032 187.48C873.991 189.355 879.066 191.348 884.083 193.34C909.342 203.302 933.784 212.912 957.526 221.995C961.026 223.343 964.526 224.69 967.968 226.038C968.26 226.155 968.551 226.273 968.843 226.39C1002.97 239.516 1035.64 251.822 1066.85 263.307C1067.55 263.659 1068.19 263.834 1068.83 264.127C1147.58 293.192 1217.41 317.276 1280.12 336.966C1280.7 337.141 1281.34 337.317 1281.93 337.493C1297.73 342.474 1313.13 347.103 1328.01 351.498C1328.65 351.674 1329.35 351.85 1329.93 352.026C1358.17 360.347 1384.77 367.613 1410.03 373.941C1410.38 373.941 1410.67 374.059 1410.96 374.176C1411.49 374.234 1412.01 374.41 1412.54 374.527C1412.54 374.527 1412.54 374.586 1412.54 374.527C1420.88 376.637 1429.05 378.629 1437.04 380.446C1438.61 380.856 1440.07 381.149 1441.53 381.501C1475.6 389.412 1507.16 395.506 1536.67 399.784C1537.61 400.018 1538.6 400.077 1539.59 400.252C1556.33 402.772 1572.37 404.706 1587.89 406.112C1634.79 410.449 1676.97 410.156 1715.88 405.995C1716.34 405.995 1716.75 405.878 1717.22 405.819C1757.82 401.483 1794.86 392.693 1829.75 380.446C1830.97 379.977 1832.14 379.567 1833.42 379.04C1862.76 368.55 1890.65 355.541 1917.95 340.482C1919.12 339.837 1920.28 339.192 1921.45 338.548C1937.08 329.817 1952.54 320.382 1968 310.42V308.955L1967.77 309.014Z" fill="#D8D8D8"/>
<path d="M1967.77 390.349C1895.78 428.145 1829.05 449.182 1757.12 455.101C1756.71 455.101 1756.3 455.218 1755.89 455.218C1748.25 455.804 1740.55 456.273 1732.74 456.566C1732.33 456.566 1731.92 456.566 1731.45 456.566C1726.32 456.8 1721.13 456.859 1715.88 456.859C1714.94 456.859 1714.07 456.859 1713.14 456.859C1674.69 456.859 1634.27 452.874 1590.46 445.139C1545.66 437.228 1497.01 425.45 1443.45 409.921C1442.29 409.57 1441.06 409.218 1439.9 408.866C1430.21 406.054 1420.41 403.065 1410.5 400.077C1410.26 399.959 1410.15 399.959 1409.91 399.842C1409.15 399.666 1408.45 399.432 1407.75 399.198H1407.4C1382.32 391.345 1356.13 382.849 1328.83 373.59C1322.12 371.363 1315.41 369.019 1308.53 366.675C1299.48 363.57 1290.44 360.405 1281.17 357.241C1280.53 356.948 1279.94 356.831 1279.3 356.538C1216.24 334.329 1147.58 308.662 1072.5 279.89C1071.8 279.597 1071.16 279.363 1070.4 279.07C1036.34 266.003 1001.04 252.29 964.293 237.934C959.568 236.059 954.843 234.242 950.117 232.367C932.267 225.394 914.067 218.244 895.516 211.037C892.133 209.689 888.866 208.517 885.541 207.169C865.532 199.434 845.582 192.285 825.806 185.664C825.34 185.429 824.815 185.253 824.289 185.136C819.098 183.378 813.789 181.679 808.597 179.979C808.014 179.804 807.431 179.628 806.847 179.452C755.28 162.927 704.47 149.977 654.419 140.601C653.777 140.425 653.194 140.308 652.494 140.191C599.993 130.346 548.366 124.486 497.673 122.435C497.207 122.435 496.857 122.435 496.448 122.435C496.04 122.435 495.69 122.435 495.282 122.435C494.582 122.435 493.94 122.377 493.24 122.435C487.29 122.201 481.281 122.084 475.273 121.908C474.865 121.908 474.515 121.908 474.106 121.908C424.872 121.205 376.629 124.135 329.203 130.815C317.302 132.456 305.402 134.39 293.502 136.616C269.468 141.011 245.726 146.402 222.217 152.731C208.508 156.481 195.15 160.407 182.258 164.568C181.558 164.802 180.799 165.037 180.099 165.271C178.758 165.681 177.416 166.15 176.132 166.56C163.766 170.662 151.69 174.94 140.082 179.452C120.831 186.718 102.689 194.453 85.5386 202.247C84.1969 202.892 82.9719 203.419 81.7469 204.005C81.3385 204.239 80.9885 204.415 80.5802 204.591C70.3716 209.396 60.513 214.201 51.0045 219.182C27.2623 231.371 5.79508 243.852 -13.397 255.865C-32.0642 267.467 -48.5145 278.777 -62.9232 289.149C-62.6899 289.618 -62.3982 290.145 -62.1649 290.673C-46.0061 279.48 -29.7308 268.874 -13.3387 258.853C7.25345 246.138 27.9623 234.476 48.9628 223.694C60.1047 217.951 71.305 212.443 82.5052 207.228C83.2636 206.876 84.0219 206.466 84.722 206.232C85.247 205.939 85.772 205.704 86.297 205.47C103.914 197.325 121.706 189.765 139.615 182.968C154.082 177.284 168.666 172.127 183.308 167.381C219.358 155.544 256.109 146.109 293.327 139.195C304.936 136.909 316.719 134.917 328.503 133.276C376.104 126.244 424.638 123.021 474.048 123.725C474.456 123.666 474.806 123.607 475.215 123.725C481.865 123.725 488.573 123.959 495.282 124.193C495.69 124.193 496.04 124.193 496.39 124.193C497.323 124.193 498.198 124.252 499.132 124.311C500.59 124.311 501.99 124.428 503.449 124.428C552.333 126.537 601.976 132.28 652.552 141.714L654.535 142.066C704.587 151.5 755.455 164.451 807.139 181.093C807.722 181.269 808.306 181.444 808.889 181.62C813.673 183.202 818.456 184.726 823.298 186.367C823.823 186.543 824.289 186.66 824.873 186.953C844.823 193.574 864.89 200.841 885.016 208.634C888.283 209.865 891.608 211.154 894.875 212.502C913.308 219.709 931.392 226.859 949.184 233.715C953.968 235.59 958.751 237.523 963.593 239.281C1000.69 253.814 1036.34 267.585 1070.7 280.828C1071.34 281.062 1072.04 281.355 1072.68 281.59C1147.64 310.245 1216.12 335.911 1279.13 358.003C1279.77 358.237 1280.35 358.53 1280.99 358.706C1290.15 361.987 1299.13 365.034 1308 368.082C1314.65 370.426 1321.18 372.652 1327.72 374.82C1355.31 384.196 1381.74 392.752 1407.11 400.604C1407.4 400.604 1407.69 400.78 1407.93 400.838C1408.51 401.014 1409.09 401.19 1409.68 401.366C1410.03 401.483 1410.38 401.659 1410.73 401.717C1420.88 404.823 1430.91 407.87 1440.71 410.683C1441.82 411.035 1442.93 411.328 1443.98 411.621C1497.12 427.149 1545.54 438.928 1590.05 446.663C1633.22 454.222 1673.12 458.207 1711.04 458.324C1711.62 458.324 1712.26 458.324 1712.79 458.324C1719.44 458.324 1725.91 458.265 1732.33 458.031C1732.79 458.031 1733.14 458.031 1733.61 457.914C1741.37 457.679 1749.07 457.21 1756.71 456.566C1757.18 456.566 1757.53 456.566 1757.94 456.449C1829.45 450.472 1895.96 429.493 1967.59 391.931V390.525L1967.77 390.349Z" fill="#D8D8D8"/>
<path d="M1967.77 469.34C1853.08 517.098 1750.35 521.728 1618.05 491.08C1615.83 490.553 1613.73 490.084 1611.52 489.557C1597.4 486.158 1582.87 482.408 1568 478.306C1560.88 476.314 1553.65 474.204 1546.3 472.094C1543.21 471.098 1540.06 470.219 1536.91 469.282C1535.39 468.872 1533.93 468.403 1532.41 467.875C1504.18 459.32 1474.49 449.417 1443.05 438.4C1442 438.107 1441 437.697 1440.01 437.287C1429.34 433.536 1418.49 429.728 1407.29 425.626C1406.47 425.274 1405.65 424.981 1404.78 424.688C1365.64 410.39 1323.98 394.451 1279.13 376.989C1272.77 374.469 1266.35 371.891 1259.82 369.371C1219.39 353.549 1176.57 336.497 1130.9 318.39C1113.75 311.592 1095.9 304.443 1077.58 297.236C1076.94 297.001 1076.3 296.708 1075.65 296.474C1075.3 296.357 1074.84 296.181 1074.49 296.064C1069.82 294.13 1065.1 292.313 1060.37 290.438C1027.82 277.546 993.577 264.01 957.993 250.064C953.092 248.13 948.192 246.255 943.234 244.262C931.159 239.516 918.85 234.769 906.483 229.906C904.558 229.144 902.633 228.382 900.591 227.62C872.066 216.662 843.657 206.818 815.423 198.204C814.898 198.145 814.431 197.969 813.906 197.735C813.556 197.676 813.148 197.559 812.856 197.5C812.273 197.325 811.689 197.149 811.106 196.973C759.888 181.62 709.195 170.135 659.027 162.517L657.569 162.283C656.869 162.283 656.227 162.165 655.644 162.048C649.169 161.052 642.752 160.173 636.393 159.411C589.142 153.317 542.358 150.797 496.157 151.793C495.748 151.793 495.398 151.793 494.99 151.793C488.282 151.911 481.573 152.145 474.923 152.379C474.515 152.379 474.223 152.379 473.815 152.497C453.164 153.317 432.747 155.016 412.33 157.36C407.196 157.946 402.063 158.591 396.929 159.294C344.603 166.15 293.094 177.694 242.459 193.867C122.348 232.25 30.2957 289.852 -29.9058 333.626C-53.648 350.971 -72.5484 366.206 -86.1988 377.223C-88.8238 379.333 -91.2155 381.325 -93.5489 383.024C-93.7239 383.669 -93.8406 384.313 -93.8406 384.899C-91.3322 382.848 -88.4738 380.563 -85.4404 378.161C-69.1067 364.976 -52.6563 352.377 -36.0892 340.482C-36.0892 340.482 -35.5642 339.954 -35.2142 339.778C-33.1142 338.255 -31.0725 336.79 -29.0307 335.266C105.431 239.223 247.301 181.034 395.646 160.642C401.246 159.939 406.846 159.177 412.446 158.591C432.805 156.188 453.281 154.489 473.815 153.61C474.223 153.61 474.573 153.493 474.981 153.61C527.658 151.149 581.15 153.434 635.343 160.29C642.168 161.111 648.935 162.048 655.761 163.103C656.344 163.103 657.044 163.22 657.686 163.337L659.144 163.572C709.312 171.19 760.121 182.734 811.514 198.262C812.098 198.379 812.681 198.555 813.264 198.79C813.264 198.79 813.303 198.79 813.381 198.79C813.906 198.848 814.314 199.024 814.839 199.258C843.073 207.814 871.482 217.6 900.125 228.616C902.108 229.378 904.033 230.199 906.075 230.96C918.558 235.824 930.867 240.629 942.942 245.376C948.017 247.368 953.034 249.302 957.993 251.294C993.11 265.006 1026.89 278.367 1059.03 291.083C1065.21 293.661 1071.45 296.064 1077.58 298.408C1095.78 305.674 1113.45 312.706 1130.49 319.503C1176.4 337.727 1219.33 354.838 1259.58 370.601C1265.83 373.062 1271.89 375.465 1278.02 377.75C1323.4 395.506 1365.46 411.679 1404.66 426.094C1405.54 426.387 1406.3 426.68 1407.17 426.973C1418.49 431.134 1429.63 435.119 1440.54 439.045C1441.47 439.338 1442.4 439.748 1443.34 440.041C1474.49 451.057 1503.71 460.844 1531.6 469.34C1533.11 469.809 1534.63 470.219 1536.09 470.688C1539.18 471.684 1542.33 472.563 1545.42 473.442C1552.95 475.728 1560.47 477.896 1567.82 479.947C1582.99 484.166 1597.69 488.033 1612.04 491.491C1614.14 492.018 1616.24 492.487 1618.34 492.956C1629.6 495.534 1640.68 497.937 1651.53 499.987C1768.9 522.724 1863.23 514.344 1967.65 470.805V469.399L1967.77 469.34Z" fill="#D8D8D8"/>
<path d="M1967.77 546.632C1931.42 558.117 1896.6 565.325 1861.95 568.431C1860.78 568.548 1859.67 568.607 1858.39 568.665C1851.97 569.193 1845.44 569.603 1839.02 569.837C1816.74 570.716 1794.45 569.837 1771.76 567.611C1721.59 562.512 1669.56 549.914 1612.1 530.928C1610.7 530.517 1609.3 530.049 1607.9 529.521C1547.7 509.539 1481.43 482.759 1404.95 450.354C1404.2 450.061 1403.38 449.71 1402.56 449.358C1374.74 437.58 1345.57 425.098 1314.83 411.913C1280.93 397.381 1245.7 382.263 1208.6 366.558C1208.31 366.558 1208.07 366.382 1207.78 366.265C1207.37 366.031 1206.85 365.855 1206.44 365.679C1199.38 362.691 1192.26 359.702 1184.97 356.655C1149.04 341.478 1111.35 325.773 1071.57 309.483C1064.69 306.729 1057.86 303.916 1050.86 301.103C1022.86 289.794 993.81 278.132 963.476 266.295C961.318 265.417 959.101 264.596 956.884 263.659C955.893 263.248 954.901 262.838 953.851 262.487C951.868 261.725 949.768 260.904 947.667 260.084C937.867 256.275 927.892 252.349 917.8 248.423C916.867 248.013 916.108 247.778 915.233 247.368C899.833 241.45 884.491 235.883 869.091 230.785C867.866 230.374 866.699 230.023 865.532 229.613C865.299 229.613 865.182 229.554 865.007 229.437C864.599 229.261 864.132 229.144 863.782 229.085C698.987 174.881 536.116 165.447 377.621 201.016C371.262 202.364 364.787 203.888 358.487 205.47C325.703 213.557 293.152 223.577 260.718 235.59C253.718 238.168 246.834 240.805 240.009 243.618C239.017 243.911 238.084 244.262 237.092 244.731C171.757 270.808 115.289 301.748 68.2716 331.809C53.3962 341.361 39.3376 350.854 26.3289 360.054C26.2706 360.054 26.2122 360.112 26.1539 360.054C19.4454 364.859 13.0286 369.488 6.90345 374.059C-5.23017 383.024 -16.3138 391.58 -26.3473 399.608C-26.464 399.666 -26.3473 399.666 -26.3473 399.666C-42.2727 412.265 -55.573 423.457 -66.3066 432.599C-68.1733 434.122 -69.865 435.587 -71.5567 436.994C-80.5403 444.612 -86.9571 450.179 -90.9822 452.991C-90.8655 453.401 -90.8072 453.812 -90.5739 454.222C-86.5488 451.35 -79.9569 445.784 -70.6817 437.873C-69.165 436.584 -67.7067 435.412 -66.19 434.064C-53.0063 422.813 -39.7643 412.148 -26.5807 401.835C-17.1305 394.334 -7.68023 387.185 1.82833 380.27C12.7369 372.184 23.5872 364.448 34.3791 357.065C34.3791 357.065 34.3791 357.006 34.4374 357.006C46.7461 348.451 58.9964 340.364 71.305 332.688C127.54 297.001 183.191 268.757 237.792 246.782C238.784 246.43 239.717 246.02 240.709 245.669C280.96 229.613 320.686 217.014 359.712 207.345C365.545 205.939 371.379 204.591 377.154 203.302C561.083 161.872 728.796 186.132 864.074 230.374C864.657 230.609 865.124 230.785 865.707 230.96C866.174 231.136 866.816 231.312 867.282 231.429C871.132 232.718 874.982 234.066 878.832 235.414C878.949 235.414 879.124 235.414 879.241 235.59C891.374 239.75 903.216 244.087 914.767 248.54C915.642 248.892 916.4 249.185 917.217 249.478C930.342 254.517 943.176 259.557 955.834 264.538C958.168 265.475 960.501 266.354 962.776 267.292C993.168 279.187 1022.28 290.848 1050.34 302.217C1057.05 304.912 1063.7 307.608 1070.35 310.303C1109.2 326.183 1146.12 341.536 1181.41 356.362C1189.7 359.878 1197.81 363.335 1205.86 366.734C1206.27 366.968 1206.73 367.085 1207.14 367.32C1207.43 367.32 1207.67 367.496 1207.9 367.671C1244.94 383.317 1280.23 398.436 1314.13 412.968C1344.99 426.212 1374.27 438.752 1402.21 450.53C1403.03 450.882 1403.84 451.233 1404.66 451.526C1481.02 483.873 1547.12 510.652 1607.26 530.576C1608.66 531.045 1610 531.455 1611.4 531.924C1668.04 550.558 1719.32 563.04 1768.73 568.372C1791.13 570.716 1813.06 571.654 1835.06 571.009C1842.87 570.833 1850.63 570.365 1858.45 569.72C1859.67 569.72 1860.84 569.544 1862.01 569.368C1896.6 566.38 1931.42 559.172 1967.71 547.687V546.398L1967.77 546.632Z" fill="#D8D8D8"/>
<path d="M1967.77 622.166C1933.58 629.725 1900.74 633.358 1868.42 633.358C1867.2 633.358 1866.03 633.417 1864.86 633.358C1836.4 633.183 1808.16 630.253 1779.64 624.862C1778.35 624.627 1777.19 624.393 1775.96 624.158C1717.45 612.732 1657.43 591.167 1590.17 561.985C1589 561.575 1587.89 561.047 1586.78 560.52C1535.68 538.37 1480.44 511.824 1418.6 482.173C1413.35 479.654 1408.1 477.075 1402.74 474.497C1401.86 474.145 1401.1 473.794 1400.23 473.325C1341.37 445.139 1275.86 413.964 1202.07 380.915C1201.66 380.68 1201.19 380.563 1200.72 380.329C1191.8 376.344 1182.76 372.242 1173.54 368.14C1173.13 367.964 1172.66 367.847 1172.26 367.613C1171.26 367.203 1170.27 366.734 1169.28 366.265C1160.59 362.456 1151.84 358.589 1142.97 354.662C1086.1 329.934 1024.61 304.326 957.876 278.25C955.018 277.195 952.043 276.023 949.126 274.91C943.876 272.917 938.684 270.808 933.375 268.815C932.034 268.288 930.575 267.76 929.234 267.233C915.817 262.018 902.458 257.271 888.983 252.818C888.924 252.759 888.866 252.701 888.866 252.701C885.191 251.47 881.516 250.239 877.841 249.126H877.782C874.749 248.071 871.774 247.134 868.799 246.313C868.216 246.079 867.632 245.903 867.049 245.727C787.305 221.233 706.803 208.4 626.477 207.521C625.951 207.404 625.426 207.521 624.901 207.521C624.376 207.521 623.851 207.521 623.326 207.521C618.601 207.462 613.876 207.521 609.151 207.521C596.551 207.579 583.95 207.99 571.35 208.634C531.216 210.861 491.082 216.076 450.947 224.222C445.289 225.335 439.572 226.566 433.914 227.855C406.38 234.066 378.904 241.567 351.603 250.474C347.578 251.822 343.611 253.169 339.703 254.459C318.761 261.549 297.935 269.518 277.168 278.25C270.051 281.238 263.051 284.285 256.109 287.508C255.118 287.86 254.243 288.27 253.251 288.797C201.45 312.237 154.782 338.606 114.006 364.859C108.756 368.257 103.622 371.656 98.5473 375.113C71.7133 392.81 47.6794 410.39 26.6789 426.798C24.2289 428.673 21.8955 430.548 19.6204 432.364C11.3952 438.81 3.81171 444.963 -3.42179 450.94C-5.28851 452.464 -7.03855 453.929 -8.78859 455.394C-20.5722 465.238 -30.8974 474.263 -39.706 482.056C-46.3561 487.975 -52.248 493.249 -57.1481 497.702C-56.7981 497.995 -56.4481 498.171 -56.098 498.405C-50.2062 493.073 -44.4311 487.916 -38.481 482.877C-28.2724 473.852 -18.0055 465.121 -7.62189 456.624C-5.98852 455.218 -4.35515 453.87 -2.60511 452.464C5.15341 446.077 12.8536 439.865 20.6121 433.771C22.9455 431.954 25.3372 430.079 27.7873 428.263C51.9379 409.511 76.0301 392.166 99.8307 376.168C104.964 372.828 109.981 369.429 114.998 366.206C162.015 335.735 208.275 310.479 253.718 289.852C254.709 289.325 255.643 288.856 256.518 288.446C284.693 275.73 312.577 264.655 339.995 255.22C343.786 253.931 347.462 252.701 351.253 251.47C378.554 242.504 405.388 235.121 431.814 229.202H431.872C438.93 227.562 445.931 226.097 452.931 224.69C505.84 214.084 557.117 209.103 606.118 208.576C611.718 208.517 617.201 208.458 622.685 208.576C623.501 208.576 624.318 208.576 625.193 208.576C625.718 208.576 626.243 208.576 626.768 208.576C714.97 209.806 795.822 225.042 867.341 246.958C867.924 247.134 868.507 247.309 869.091 247.485C875.157 249.419 881.283 251.294 887.174 253.345C888.691 253.814 890.208 254.283 891.666 254.869C904.383 259.088 916.75 263.6 928.825 268.229C930.284 268.757 931.625 269.284 933.084 269.811C938.334 271.804 943.526 273.855 948.717 275.847C951.634 277.019 954.668 278.191 957.584 279.363C1023.21 304.912 1083.76 330.051 1139.82 354.428C1148.69 358.354 1157.44 362.163 1166.07 365.913C1168.06 366.851 1170.04 367.73 1172.02 368.55C1172.43 368.785 1172.9 368.902 1173.31 369.078C1182.52 373.18 1191.56 377.282 1200.49 381.266C1201.02 381.501 1201.42 381.677 1201.83 381.852C1275.68 415.019 1341.31 446.194 1400.23 474.556C1401.04 474.907 1401.86 475.259 1402.68 475.728C1407.93 478.189 1413.06 480.708 1418.25 483.17C1479.97 512.703 1534.98 539.19 1585.97 561.34C1587.07 561.809 1588.24 562.337 1589.41 562.747C1657.08 592.163 1717.45 613.845 1776.25 625.213C1777.48 625.448 1778.76 625.682 1779.93 625.916C1808.57 631.307 1836.75 634.237 1865.16 634.413C1866.38 634.413 1867.49 634.413 1868.71 634.413C1901.03 634.413 1933.82 630.78 1968 623.221V621.99L1967.77 622.166Z" fill="#D8D8D8"/>
<path d="M1967.77 696.176C1956.8 697.641 1946.01 698.755 1935.39 699.399C1934.63 699.399 1933.87 699.399 1933.12 699.458C1882.83 702.329 1835.35 696.352 1787.4 683.285C1786.64 683.109 1786 682.874 1785.35 682.699C1784.13 682.347 1782.85 681.995 1781.62 681.644C1775.79 680.003 1769.9 678.245 1764.06 676.37C1748.49 671.448 1732.85 665.822 1716.99 659.552C1716.46 659.376 1715.99 659.142 1715.53 659.025C1705.67 655.099 1695.75 650.938 1685.72 646.543C1685.02 646.191 1684.26 645.898 1683.56 645.605C1644.42 628.377 1603.58 607.633 1559.42 584.077C1558.49 583.608 1557.62 583.139 1556.68 582.612C1532.76 569.896 1507.91 556.36 1481.84 542.179C1455.88 528.056 1428.7 513.231 1400.11 497.937C1389.96 492.545 1379.58 486.979 1368.96 481.412C1316.63 453.753 1259.58 424.688 1196.47 394.92C1196.06 394.685 1195.65 394.451 1195.18 394.334C1186.31 390.115 1177.27 385.896 1168.11 381.677C1167.71 381.442 1167.24 381.208 1166.83 381.091C1156.91 376.461 1146.82 371.891 1136.61 367.261C1136.21 367.144 1135.8 366.91 1135.33 366.734C1080.15 341.947 1020.59 316.808 955.893 291.845C954.551 291.317 953.151 290.79 951.751 290.262C949.826 289.501 947.901 288.797 945.859 287.977C943.992 287.274 942.067 286.512 940.201 285.809C925.092 280.008 909.925 274.734 894.7 269.987C893.474 269.577 892.249 269.108 891.083 268.874C884.666 266.823 878.191 264.889 871.657 263.19C871.074 262.955 870.607 262.78 869.966 262.662C835.081 252.818 799.847 245.434 764.438 240.688L762.863 240.453C761.755 240.336 760.646 240.16 759.48 240.043C758.838 239.926 758.138 239.809 757.438 239.809C753.996 239.34 750.554 238.93 747.113 238.578C740.579 237.816 733.987 237.172 727.454 236.586C694.728 233.715 661.827 233.011 628.81 234.476C627.993 234.476 627.118 234.476 626.301 234.594C618.135 234.945 609.909 235.414 601.801 236.117C599.001 236.351 596.259 236.586 593.517 236.82C591.126 237.055 588.792 237.289 586.401 237.465C582.842 237.816 579.284 238.227 575.725 238.637C573.334 238.871 571 239.164 568.608 239.457C567.85 239.574 566.975 239.633 566.217 239.75C565.692 239.809 565.225 239.867 564.642 239.926C525.149 244.907 485.423 252.935 445.697 264.127C442.78 264.889 439.747 265.651 436.772 266.647H436.714C433.914 267.467 430.997 268.288 428.197 269.167C427.263 269.46 426.33 269.694 425.397 269.987C380.129 283.699 334.861 301.455 289.885 322.843C284.168 325.597 278.51 328.293 272.91 331.106C272.501 331.34 272.093 331.575 271.685 331.75C270.693 332.278 269.76 332.747 268.885 333.215C255.293 340.071 242.109 347.103 229.217 354.252C192.816 374.469 159.274 395.74 128.94 416.719C124.973 419.414 121.123 422.168 117.273 424.922C94.6389 441.037 73.8134 456.8 55.2046 471.743C52.5212 473.911 49.8378 476.021 47.3877 478.13C38.9875 484.869 31.1124 491.432 23.7622 497.761C16.412 503.914 9.70352 509.832 3.34503 515.458C4.10338 515.458 4.86173 515.458 5.56175 515.34C12.5036 509.188 19.3871 503.21 26.3872 497.409C33.6208 491.256 40.8543 485.221 48.0878 479.302C50.7128 477.193 53.3379 475.142 55.9629 473.032C76.2051 456.742 96.5639 441.33 117.039 426.739C120.948 423.926 124.856 421.231 128.823 418.477C162.074 395.213 195.558 374.234 229.334 355.424C242.576 347.982 255.934 340.892 269.293 334.211C270.226 333.684 271.218 333.215 272.151 332.747C272.618 332.512 273.085 332.278 273.493 332.043C324.011 306.787 374.821 286.512 425.863 271.159C426.855 270.808 427.73 270.573 428.663 270.339C474.048 256.744 519.607 247.075 564.992 241.332C565.517 241.332 565.983 241.274 566.567 241.215C567.325 241.098 568.2 241.039 568.958 240.922C569.658 240.805 570.475 240.688 571.117 240.688C577.125 239.985 582.959 239.34 588.967 238.754C591.767 238.52 594.509 238.227 597.367 238.051C607.168 237.172 616.968 236.527 626.71 236.117C627.585 236 628.343 236 629.16 236C662.061 234.594 694.961 235.238 727.687 238.109C734.046 238.637 740.463 239.281 746.879 239.985C749.971 240.336 752.946 240.746 755.98 241.098C756.738 241.215 757.38 241.274 758.138 241.391C759.655 241.567 761.23 241.743 762.688 241.977C763.213 242.036 763.738 242.094 764.263 242.153C799.847 246.899 835.14 254.224 870.141 264.186C870.724 264.186 871.307 264.362 871.832 264.596C879.066 266.53 886.241 268.698 893.416 271.042C894.291 271.276 895.166 271.511 896.041 271.862C910.683 276.433 925.267 281.531 939.734 287.039C941.892 287.86 943.934 288.68 946.034 289.442C947.784 290.087 949.534 290.79 951.284 291.434C952.918 292.079 954.493 292.665 956.068 293.31C1020.47 318.155 1079.8 343.236 1134.81 367.906C1135.21 368.082 1135.68 368.257 1136.09 368.492C1146.3 373.062 1156.39 377.633 1166.31 382.204C1166.71 382.438 1167.12 382.673 1167.59 382.79C1176.69 387.068 1185.73 391.228 1194.66 395.389C1195.07 395.623 1195.59 395.857 1196 396.092C1258.82 425.684 1315.7 454.632 1367.79 482.115C1378.53 487.799 1389.03 493.424 1399.41 498.933C1428.05 514.286 1455.24 529.052 1481.2 543.175C1507.1 557.239 1531.66 570.658 1555.28 583.256C1556.22 583.725 1557.09 584.253 1558.02 584.721C1603.41 608.923 1645.12 630.077 1685.13 647.598C1685.84 647.949 1686.53 648.301 1687.24 648.535C1696.22 652.462 1705.14 656.153 1713.95 659.552C1714.42 659.845 1714.94 660.021 1715.35 660.197C1731.16 666.525 1746.79 672.151 1762.37 677.014C1764.41 677.718 1766.51 678.362 1768.55 679.007C1772.93 680.355 1777.25 681.644 1781.62 682.816L1785.3 683.871C1786.05 684.046 1786.87 684.281 1787.63 684.515C1837.68 697.993 1885.34 703.384 1933.82 700.513C1934.57 700.513 1935.33 700.513 1936.15 700.337C1946.59 699.692 1957.09 698.637 1967.65 697.231V696.059L1967.77 696.176Z" fill="#D8D8D8"/>
<path d="M1967.77 768.78C1961.06 769.132 1954.41 769.249 1947.87 769.308C1947.06 769.308 1946.24 769.308 1945.42 769.308C1861.66 769.19 1786.93 744.52 1707.3 704.321C1706.54 703.911 1705.67 703.501 1704.91 703.091C1700.24 700.688 1695.58 698.286 1690.85 695.825L1689.57 695.18C1637.77 667.873 1583.52 634.237 1523.02 596.851C1522.96 596.851 1522.91 596.734 1522.79 596.734C1522.15 596.324 1521.56 595.972 1520.92 595.621C1477.29 568.665 1430.39 539.659 1378.76 509.715C1372.93 506.316 1367.04 502.8 1360.91 499.343C1309.23 469.692 1252.87 439.045 1190.63 408.456C1186.26 406.347 1181.82 404.178 1177.27 401.952C1172.49 399.608 1167.59 397.322 1162.75 394.978C1162.34 394.744 1161.93 394.568 1161.52 394.392C1151.61 389.646 1141.57 384.899 1131.36 380.27C1130.96 380.036 1130.61 379.86 1130.2 379.684C1075.19 354.311 1015.74 329.172 951.284 304.795C934.075 298.29 916.692 292.489 899.25 287.391C898.55 287.215 897.791 286.922 897.091 286.746C889.683 284.637 882.158 282.586 874.691 280.711C874.166 280.535 873.582 280.476 872.999 280.301C836.482 271.101 799.497 264.948 762.105 261.901C761.58 261.901 761.113 261.842 760.646 261.842C760.588 261.842 760.53 261.842 760.53 261.842C759.946 261.725 759.305 261.725 758.78 261.725C753.996 261.315 749.213 261.022 744.488 260.729C738.012 260.377 731.479 260.025 725.004 259.85C694.67 259.029 664.044 260.084 633.302 263.19C632.427 263.19 631.668 263.307 630.793 263.483C620.176 264.479 609.501 265.885 598.826 267.409C590.484 268.639 582.025 269.987 573.625 271.628C572.867 271.745 572.05 271.862 571.175 272.097C527.599 280.008 483.615 292.02 439.455 307.901C438.522 308.135 437.53 308.487 436.655 308.838C390.454 325.422 344.078 346.224 297.76 371.07C242.167 400.955 166.449 447.893 82.7386 517.04C80.1719 519.208 77.5468 521.376 74.8634 523.603C60.5714 535.557 46.1044 548.214 31.4624 561.458C29.829 563.04 28.3706 564.856 27.3206 566.907C30.704 563.743 34.2624 560.52 37.9375 557.297C49.7211 546.691 62.2631 535.733 75.4468 524.658C78.0135 522.489 80.6385 520.263 83.3803 518.094C174.674 442.385 296.127 359.936 436.772 309.19C437.705 308.78 438.58 308.487 439.514 308.194C481.806 293.075 525.791 280.769 571.234 272.566C572.05 272.39 572.867 272.214 573.684 272.097C592.526 268.698 611.601 266.002 630.91 264.069C631.668 263.952 632.485 263.893 633.302 263.834C663.286 260.846 693.736 259.732 724.771 260.729C731.362 260.904 737.954 261.197 744.604 261.608C749.038 261.901 753.588 262.252 758.08 262.604C758.663 262.604 759.363 262.604 760.063 262.721H760.413C760.938 262.78 761.463 262.897 761.988 262.897C798.506 266.061 835.606 272.155 873.174 281.766C873.757 281.883 874.341 281.941 874.924 282.234C882.566 284.109 890.208 286.219 897.85 288.504C898.433 288.622 899.016 288.739 899.658 288.973C916.692 293.954 933.725 299.755 950.876 306.26C956.126 308.194 961.259 310.186 966.451 312.178C1024.9 334.68 1079.21 357.827 1129.73 381.149C1130.14 381.266 1130.61 381.501 1131.01 381.735C1141.22 386.423 1151.2 391.111 1161.11 395.857C1161.52 396.033 1161.93 396.209 1162.4 396.443C1167.3 398.787 1172.08 401.073 1176.92 403.358C1181.18 405.526 1185.38 407.519 1189.58 409.57C1252.52 440.51 1309.4 471.391 1361.61 501.394C1366.63 504.265 1371.64 507.195 1376.6 510.066C1428.46 540.245 1475.6 569.368 1519.41 596.382C1520.05 596.793 1520.63 597.203 1521.27 597.554C1521.62 597.789 1521.91 597.965 1522.26 598.199C1581.59 634.941 1636.08 668.576 1688.28 696.235L1689.57 696.879C1695.34 699.868 1701.06 702.915 1706.78 705.728C1707.54 706.138 1708.41 706.548 1709.17 706.9C1732.5 718.62 1755.31 728.933 1778.12 737.723C1781.15 738.836 1784.13 740.008 1787.16 741.122C1841.94 761.221 1893.62 771.066 1946.53 771.066C1947.29 771.066 1948.11 771.066 1948.98 771.066C1955.22 771.066 1961.52 770.831 1967.83 770.538V769.249L1967.77 768.78Z" fill="#D8D8D8"/>
<path d="M1967.77 839.978C1819.13 834.938 1702.34 753.544 1550.73 647.715C1445.61 574.349 1321.65 487.916 1157.85 407.636C1153.41 405.35 1148.92 403.182 1144.31 401.073C1138.42 398.201 1132.53 395.389 1126.58 392.576C1126.17 392.341 1125.71 392.107 1125.3 391.99C1074.9 368.257 1020.82 345.228 962.601 323.429C934.892 312.999 906.658 304.678 878.074 298.466C877.491 298.29 876.966 298.232 876.382 298.115C838.173 289.794 799.322 285.164 759.713 284.344C759.188 284.285 758.721 284.285 758.196 284.344C717.654 283.465 676.411 286.395 634.643 293.251C627.585 294.306 620.526 295.595 613.468 296.943C607.109 298.115 600.809 299.462 594.392 300.869C589.667 301.924 584.884 302.978 580.217 304.209C579.75 304.267 579.284 304.385 578.875 304.502C578.117 304.678 577.3 304.853 576.484 305.088C569.017 306.846 561.667 308.78 554.2 310.831C520.074 320.265 485.598 332.161 450.889 346.517C450.014 346.81 449.081 347.22 448.206 347.689C392.029 370.894 335.328 400.545 278.51 436.408C208.8 480.415 147.957 528.115 99.364 570.247C94.9305 574.115 90.5554 577.982 86.297 581.733C80.2302 587.065 74.4551 592.281 68.9133 597.379C68.8549 597.379 68.7383 597.379 68.7383 597.379C66.4632 599.488 64.3048 601.539 62.0881 603.59C62.7298 603.59 63.4298 603.414 64.0131 603.356C66.6382 600.953 69.3216 598.492 72.005 595.972C76.2051 592.222 80.4052 588.472 84.722 584.604C89.2721 580.502 93.9972 576.4 98.9556 572.181C147.607 529.873 208.858 481.763 279.152 437.463C328.736 406.229 385.846 374.996 448.556 349.096C449.489 348.685 450.364 348.334 451.239 347.982C484.081 334.446 518.382 322.492 553.908 312.706C561.492 310.655 569.017 308.662 576.717 306.787C577.534 306.553 578.292 306.377 579.109 306.201C579.634 306.084 580.159 305.908 580.684 305.85C592.176 303.096 603.726 300.576 615.451 298.29C621.11 297.236 626.827 296.181 632.543 295.302C673.261 288.446 715.262 284.93 758.021 285.75C758.546 285.75 759.013 285.75 759.538 285.75C798.039 286.571 837.123 290.848 876.557 299.345C877.141 299.462 877.724 299.638 878.249 299.697C906.133 305.791 934.134 313.995 962.193 324.484C968.201 326.769 974.268 329.055 980.218 331.34C1031.61 351.088 1079.74 371.832 1124.89 393.103C1125.3 393.279 1125.76 393.455 1126.17 393.689C1132.06 396.443 1137.9 399.198 1143.73 402.01C1148.16 404.12 1152.54 406.288 1156.91 408.456C1320.83 488.737 1444.91 575.287 1550.03 648.711C1701.88 754.716 1818.78 836.227 1967.77 841.091V839.919V839.978Z" fill="#D8D8D8"/>
</svg>
