<svg xmlns="http://www.w3.org/2000/svg" version="1.1" xmlns:xlink="http://www.w3.org/1999/xlink" xmlns:svgjs="http://svgjs.dev/svgjs" width="1000" height="1000" viewBox="0 0 1000 1000"><rect width="1000" height="1000" fill="#ffffff"></rect><g transform="matrix(0.7,0,0,0.7,149.57575924084347,434.7875655885701)"><svg viewBox="0 0 396 74" data-background-color="#ffffff" preserveAspectRatio="xMidYMid meet" height="186" width="1000" xmlns="http://www.w3.org/2000/svg" xmlns:xlink="http://www.w3.org/1999/xlink"><g id="tight-bounds" transform="matrix(1,0,0,1,0.23999905803714228,0.06390516920745881)"><svg viewBox="0 0 395.52 73.87219201630859" height="73.87219201630859" width="395.52"><g><svg viewBox="0 0 395.52 73.87219201630859" height="73.87219201630859" width="395.52"><g><svg viewBox="0 0 395.52 73.87219201630859" height="73.87219201630859" width="395.52"><g id="textblocktransform"><svg viewBox="0 0 395.52 73.87219201630859" height="73.87219201630859" width="395.52" id="textblock"><g><rect width="75.54431999999998" height="4.557706430686539" y="65.89258912382937" fill="#729343" data-fill-palette-color="tertiary"></rect><rect width="75.54431999999998" height="4.557706430686539" y="65.89258912382937" x="319.97568" fill="#729343" data-fill-palette-color="tertiary"></rect></g><g><svg viewBox="0 0 395.52 50.539523995317985" height="50.539523995317985" width="395.52"><g transform="matrix(1,0,0,1,0,0)"><svg width="395.52" viewBox="0.75 -32.349998474121094 256.2799987792969 32.75" height="50.539523995317985" data-palette-color="#729343"><path d="M27.85-32.05L16.1 0 11.45 0 0.75-32.05 4.85-32.05 5.6-28.8 13.75-4.05 14.05-4.05 23.05-28.6 23.85-32.05 27.85-32.05ZM43.65-32.35Q50.25-32.35 53.77-28.3 57.3-24.25 57.3-16.65L57.3-16.65Q57.3-8.45 53.55-4.03 49.8 0.4 42.85 0.4L42.85 0.4Q36.35 0.4 32.82-3.8 29.3-8 29.3-15.75L29.3-15.75Q29.3-23.75 33.02-28.05 36.75-32.35 43.65-32.35L43.65-32.35ZM43.4-29.1Q33.4-29.1 33.4-16.2L33.4-16.2Q33.4-9.35 35.82-6.05 38.25-2.75 43.15-2.75L43.15-2.75Q53.15-2.75 53.15-15.9L53.15-15.9Q53.15-22.6 50.72-25.85 48.3-29.1 43.4-29.1L43.4-29.1ZM75.25-32.3Q80.3-32.3 84-29.9L84-29.9 83.2-26.25 82.75-26.15Q79.4-28.95 75.05-28.95L75.05-28.95Q70.3-28.95 67.75-25.68 65.2-22.4 65.2-16.1L65.2-16.1Q65.2-9.75 67.75-6.4 70.3-3.05 74.95-3.05L74.95-3.05Q77.15-3.05 79.32-3.85 81.5-4.65 83.3-6.1L83.3-6.1 83.8-5.85 83.45-2.05Q79.09 0.35 74.59 0.35L74.59 0.35Q68.15 0.35 64.59-3.83 61.05-8 61.05-15.75L61.05-15.75Q61.05-23.7 64.75-28 68.45-32.3 75.25-32.3L75.25-32.3ZM102.24-32.05L112.94 0 108.84 0 108.09-3.2 106.29-8.7 99.09-8.85 92.59-8.7 90.64-3.4 89.84 0 85.84 0 97.59-32.05 102.24-32.05ZM99.44-12L105.19-12.1 99.99-27.9 99.64-27.9 93.84-12.1 99.44-12ZM134.39-3.35L134.69-3 134.34 0 118.54 0 118.79-9.65 118.54-32.05 122.64-32.05 122.39-10 122.54-3.35 134.39-3.35ZM170.94-32.05L159.19 0 154.54 0 143.84-32.05 147.94-32.05 148.69-28.8 156.84-4.05 157.14-4.05 166.14-28.6 166.94-32.05 170.94-32.05ZM180.03-32.05L179.78-10 179.98 0 175.93 0 176.18-9.65 175.93-32.05 180.03-32.05ZM198.03-32.3Q201.48-32.3 205.18-30.8L205.18-30.8 204.53-26.95 203.83-26.75Q202.38-27.85 200.76-28.45 199.13-29.05 197.53-29.05L197.53-29.05Q195.68-29.05 194.31-28.3 192.93-27.55 192.21-26.35 191.48-25.15 191.48-23.85L191.48-23.85Q191.48-22.5 192.31-21.48 193.13-20.45 194.38-19.7 195.63-18.95 197.78-17.9L197.78-17.9Q200.48-16.65 202.13-15.58 203.78-14.5 204.96-12.85 206.13-11.2 206.13-8.85L206.13-8.85Q206.13-6.35 204.78-4.25 203.43-2.15 200.98-0.9 198.53 0.35 195.38 0.35L195.38 0.35Q193.28 0.35 191.01-0.23 188.73-0.8 186.78-1.9L186.78-1.9 187.28-6 187.83-6.25Q189.58-4.55 191.71-3.73 193.83-2.9 195.78-2.9L195.78-2.9Q197.68-2.9 199.16-3.65 200.63-4.4 201.41-5.65 202.18-6.9 202.18-8.3L202.18-8.3Q202.18-10.4 200.58-11.68 198.98-12.95 195.73-14.45L195.73-14.45Q193.08-15.75 191.48-16.78 189.88-17.8 188.73-19.43 187.58-21.05 187.58-23.4L187.58-23.4Q187.58-25.85 188.91-27.9 190.23-29.95 192.61-31.13 194.98-32.3 198.03-32.3L198.03-32.3ZM230.63-32.05L230.93-31.65 230.63-28.55 225.03-28.85 221.78-28.85 221.63-10 221.78 0 217.73 0 218.03-9.65 217.78-28.85 214.53-28.85 208.83-28.55 208.58-28.95 208.88-32.05 230.63-32.05ZM246.33-32.05L257.03 0 252.93 0 252.18-3.2 250.38-8.7 243.18-8.85 236.68-8.7 234.73-3.4 233.93 0 229.93 0 241.68-32.05 246.33-32.05ZM243.53-12L249.28-12.1 244.08-27.9 243.73-27.9 237.93-12.1 243.53-12Z" opacity="1" transform="matrix(1,0,0,1,0,0)" fill="#729343" class="wordmark-text-0" data-fill-palette-color="primary" id="text-0"></path></svg></g></svg></g><g transform="matrix(1,0,0,1,75.54431999999998,62.470692662036676)"><svg viewBox="0 0 244.43136 11.401499354271909" height="11.401499354271909" width="244.43136"><g transform="matrix(1,0,0,1,8,0)"><svg width="228.43136" viewBox="1.9500000476837158 -38.29999923706055 910.5 45.45000076293945" height="11.401499354271909" data-palette-color="#729343"><path d="M25.1-30.65Q22.9-31.5 21.9-31.6 20.9-31.7 19.48-31.78 18.05-31.85 16.13-31.85 14.2-31.85 11.55-31.6L11.55-31.6 11.55-1.75 17.05-1.6Q22.2-1.8 24.65-2.9L24.65-2.9Q31.3-5.95 31.35-16.7L31.35-16.7Q31.35-20.9 30.4-23.9 29.45-26.9 28.38-28.35 27.3-29.8 25.1-30.65ZM8.1-33.35L8.1-33.35 17.8-33.6Q22.25-33.6 25.6-32.85 28.95-32.1 31.75-30.3L31.75-30.3Q37.45-26.65 37.45-16.75L37.45-16.75Q37.45 0 17.05 0L17.05 0 1.95 0 1.95-1.3 6.3-1.7 6.3-31.65 1.95-32.2 1.95-33.5Q5-33.35 8.1-33.35ZM50.6-32.58Q50.6-31.35 49.75-30.48 48.9-29.6 47.62-29.6 46.35-29.6 45.5-30.45 44.65-31.3 44.65-32.58 44.65-33.85 45.5-34.73 46.35-35.6 47.6-35.6 48.85-35.6 49.72-34.7 50.6-33.8 50.6-32.58ZM53.6 0L42.1 0 42.1-1.2 45.4-1.45 45.4-22.7 41-22.85 41-24 50.3-24.65 50.3-1.45 53.6-1.2 53.6 0ZM66.1-0.7L66.1-0.7Q68.1-0.7 69.57-1.8 71.05-2.9 71.05-5.5L71.05-5.5Q71.05-7.25 69.47-8.4 67.9-9.55 65.55-10.48 63.2-11.4 62.37-11.78 61.55-12.15 60.2-13L60.2-13Q57.75-14.65 57.75-17.75 57.75-20.85 60.2-22.9 62.65-24.95 67.35-24.95L67.35-24.95Q70.35-24.95 72.47-23.63 74.6-22.3 74.6-20.45 74.6-18.6 73.2-17.9L73.2-17.9Q72.45-17.55 71.72-17.55 71-17.55 70.3-17.85L70.3-17.85Q70.5-18.75 70.5-19.8 70.5-20.85 70-21.9L70-21.9Q69.15-23.7 66.75-23.7 64.35-23.7 63.1-22.4 61.85-21.1 61.85-19L61.85-19Q61.85-16.85 63.65-15.8L63.65-15.8Q65-14.95 67-14.25 69-13.55 69.72-13.28 70.45-13 71.65-12.35 72.85-11.7 73.45-11L73.45-11Q75-9.3 75-6.4 75-3.5 72.4-1.48 69.8 0.55 66.05 0.55 62.3 0.55 59.47-0.6 56.65-1.75 56.65-3.95L56.65-3.95Q56.65-6 59.7-6.65L59.7-6.65Q60.6-0.7 66.1-0.7ZM92.19-24.95L92.19-24.95Q94.99-24.95 97.59-23.75L97.59-23.75Q99.04-23.1 99.92-21.75 100.79-20.4 100.79-18.6 100.79-16.8 99.19-16.15L99.19-16.15Q98.54-15.9 97.82-15.9 97.09-15.9 96.34-16.4L96.34-16.4Q96.54-17.45 96.54-18.88 96.54-20.3 95.64-21.6L95.64-21.6Q94.34-23.55 91.94-23.55L91.94-23.55Q84.99-23.55 84.99-12.1L84.99-12.1Q84.99-6.5 86.62-3.68 88.24-0.85 91.89-0.85L91.89-0.85Q96.54-0.85 99.34-5.35L99.34-5.35Q100.44-5 100.44-4.28 100.44-3.55 99.52-2.48 98.59-1.4 96.32-0.43 94.04 0.55 91.09 0.55L91.09 0.55Q85.94 0.55 82.77-2.95 79.59-6.45 79.59-12.2 79.59-17.95 83.02-21.45 86.44-24.95 92.19-24.95ZM129.89-12.2Q129.89-6.65 126.54-3.05 123.19 0.55 117.42 0.55 111.64 0.55 108.29-3.05 104.94-6.65 104.94-12.2 104.94-17.75 108.29-21.35 111.64-24.95 117.42-24.95 123.19-24.95 126.54-21.35 129.89-17.75 129.89-12.2ZM110.39-12.2L110.39-12.2Q110.39-0.65 117.42-0.65 124.44-0.65 124.44-12.2L124.44-12.2Q124.44-17.8 122.84-20.75 121.24-23.7 117.44-23.7 113.64-23.7 112.02-20.75 110.39-17.8 110.39-12.2ZM131.64-23.2L131.64-24.4 142.14-24.4 142.14-23.1 138.74-22.8 145.84-5.35 151.84-22.15 147.84-23.1 147.84-24.4 157.44-24.4 157.44-23.1 153.94-22.15 145.64 0 143.64 0 133.99-22.85 131.64-23.2ZM170.54 0.55Q165.39 0.55 162.24-2.95 159.09-6.45 159.09-12.2 159.09-17.95 162.41-21.45 165.74-24.95 170.79-24.95 175.84-24.95 178.34-22.68 180.84-20.4 180.84-16.35L180.84-16.35Q180.84-15.15 180.64-13.95L180.64-13.95 164.49-13.95 164.49-12.2Q164.49-6.6 166.09-3.73 167.69-0.85 171.34-0.85L171.34-0.85Q176.49-0.85 179.29-5.35L179.29-5.35Q180.39-5 180.39-4.3L180.39-4.3Q180.39-3.05 178.09-1.4L178.09-1.4Q176.99-0.6 174.99-0.03 172.99 0.55 170.54 0.55L170.54 0.55ZM176.09-17.4L176.09-17.4Q176.09-19.7 175.14-21.35L175.14-21.35Q173.84-23.55 170.94-23.55L170.94-23.55Q165.54-23.55 164.64-15.75L164.64-15.75 175.99-15.75Q176.09-16.6 176.09-17.4ZM200.63-25L200.63-25Q201.93-25 202.68-24.38 203.43-23.75 203.43-22.65L203.43-22.65Q203.43-20.75 201.98-20.15L201.98-20.15Q201.18-20.8 199.08-20.8 196.98-20.8 195.06-19.43 193.13-18.05 193.13-16.3L193.13-16.3 193.13-1.45 197.63-1.2 197.63 0 184.93 0 184.93-1.2 188.23-1.4 188.23-22.75 184.28-22.95 184.28-24.1 193.13-24.65 192.83-18.5 193.03-18.5Q193.88-21.2 196.16-23.1 198.43-25 200.63-25ZM237.23-1.2L237.23 0 223.38 0 223.38-1.2 227.73-1.65 227.73-14.35 215.93-31.75 212.13-32.3 212.13-33.4 225.63-33.4 225.63-32.35 221.78-31.8 231.68-16.95 240.23-31.05 236.48-32.2 236.48-33.4 246.63-33.4 246.63-32.2 242.83-31 232.88-14.75 232.88-1.65 237.23-1.2ZM269.43-12.2Q269.43-6.65 266.08-3.05 262.73 0.55 256.95 0.55 251.18 0.55 247.83-3.05 244.48-6.65 244.48-12.2 244.48-17.75 247.83-21.35 251.18-24.95 256.95-24.95 262.73-24.95 266.08-21.35 269.43-17.75 269.43-12.2ZM249.93-12.2L249.93-12.2Q249.93-0.65 256.95-0.65 263.98-0.65 263.98-12.2L263.98-12.2Q263.98-17.8 262.38-20.75 260.78-23.7 256.98-23.7 253.18-23.7 251.55-20.75 249.93-17.8 249.93-12.2ZM283.97 0.6L283.97 0.6Q275.97 0.6 275.97-7.1L275.97-7.1Q275.97-12.75 276.32-22.8L276.32-22.8 272.32-23 272.32-24.15 281.22-24.7Q280.87-11.5 280.87-6.75L280.87-6.75Q280.87-3.9 281.92-2.5 282.97-1.1 285.45-1.1 287.92-1.1 290.12-3.88 292.32-6.65 292.32-8.75L292.32-8.75 292.32-22.8 288.17-23 288.17-24.15 297.22-24.7 297.22-1.55 301.47-1.35 301.52-0.2 292.52 0.4 292.87-5 292.27-5Q289.67 0.6 283.97 0.6ZM319.62-25L319.62-25Q320.92-25 321.67-24.38 322.42-23.75 322.42-22.65L322.42-22.65Q322.42-20.75 320.97-20.15L320.97-20.15Q320.17-20.8 318.07-20.8 315.97-20.8 314.05-19.43 312.12-18.05 312.12-16.3L312.12-16.3 312.12-1.45 316.62-1.2 316.62 0 303.92 0 303.92-1.2 307.22-1.4 307.22-22.75 303.27-22.95 303.27-24.1 312.12-24.65 311.82-18.5 312.02-18.5Q312.87-21.2 315.15-23.1 317.42-25 319.62-25ZM331.52-32.35L331.52-33.4 345.02-33.4 345.02-32.35 341.02-31.8 351.17-6.25 360.92-30.9 356.52-32.2 356.52-33.4 366.97-33.4 366.97-32.2 363.17-30.85 350.77 0.3 348.52 0.3 335.37-31.8 331.52-32.35ZM390.41-12.2Q390.41-6.65 387.06-3.05 383.71 0.55 377.94 0.55 372.16 0.55 368.81-3.05 365.46-6.65 365.46-12.2 365.46-17.75 368.81-21.35 372.16-24.95 377.94-24.95 383.71-24.95 387.06-21.35 390.41-17.75 390.41-12.2ZM370.91-12.2L370.91-12.2Q370.91-0.65 377.94-0.65 384.96-0.65 384.96-12.2L384.96-12.2Q384.96-17.8 383.36-20.75 381.76-23.7 377.96-23.7 374.16-23.7 372.54-20.75 370.91-17.8 370.91-12.2ZM403.16-32.58Q403.16-31.35 402.31-30.48 401.46-29.6 400.19-29.6 398.91-29.6 398.06-30.45 397.21-31.3 397.21-32.58 397.21-33.85 398.06-34.73 398.91-35.6 400.16-35.6 401.41-35.6 402.29-34.7 403.16-33.8 403.16-32.58ZM406.16 0L394.66 0 394.66-1.2 397.96-1.45 397.96-22.7 393.56-22.85 393.56-24 402.86-24.65 402.86-1.45 406.16-1.2 406.16 0ZM422.26-24.95L422.26-24.95Q425.06-24.95 427.66-23.75L427.66-23.75Q429.11-23.1 429.98-21.75 430.86-20.4 430.86-18.6 430.86-16.8 429.26-16.15L429.26-16.15Q428.61-15.9 427.88-15.9 427.16-15.9 426.41-16.4L426.41-16.4Q426.61-17.45 426.61-18.88 426.61-20.3 425.71-21.6L425.71-21.6Q424.41-23.55 422.01-23.55L422.01-23.55Q415.06-23.55 415.06-12.1L415.06-12.1Q415.06-6.5 416.68-3.68 418.31-0.85 421.96-0.85L421.96-0.85Q426.61-0.85 429.41-5.35L429.41-5.35Q430.51-5 430.51-4.28 430.51-3.55 429.58-2.48 428.66-1.4 426.38-0.43 424.11 0.55 421.16 0.55L421.16 0.55Q416.01 0.55 412.83-2.95 409.66-6.45 409.66-12.2 409.66-17.95 413.08-21.45 416.51-24.95 422.26-24.95ZM446.51 0.55Q441.36 0.55 438.21-2.95 435.06-6.45 435.06-12.2 435.06-17.95 438.38-21.45 441.71-24.95 446.76-24.95 451.81-24.95 454.31-22.68 456.81-20.4 456.81-16.35L456.81-16.35Q456.81-15.15 456.61-13.95L456.61-13.95 440.46-13.95 440.46-12.2Q440.46-6.6 442.06-3.73 443.66-0.85 447.31-0.85L447.31-0.85Q452.46-0.85 455.26-5.35L455.26-5.35Q456.36-5 456.36-4.3L456.36-4.3Q456.36-3.05 454.06-1.4L454.06-1.4Q452.96-0.6 450.96-0.03 448.96 0.55 446.51 0.55L446.51 0.55ZM452.06-17.4L452.06-17.4Q452.06-19.7 451.11-21.35L451.11-21.35Q449.81-23.55 446.91-23.55L446.91-23.55Q441.51-23.55 440.61-15.75L440.61-15.75 451.96-15.75Q452.06-16.6 452.06-17.4ZM468.55-1.4L468.55-1.4Q468.55 1.45 466.3 3.95 464.05 6.45 462.45 7.15L462.45 7.15 461.65 6.05Q463.25 5.2 464.35 3.6 465.45 2 465.65 0.25L465.65 0.25Q465.15 0.55 464.2 0.55 463.25 0.55 462.6-0.28 461.95-1.1 461.95-2.48 461.95-3.85 462.93-4.65 463.9-5.45 465.35-5.45 466.8-5.45 467.68-4.45 468.55-3.45 468.55-1.4ZM511.6 0L486.05 0 486.05-1.2 490.4-1.65 490.4-31.75 486.05-32.3 486.05-33.4 510-33.4 510.05-26.3 508.75-26.3 507.05-31.6 495.55-31.75 495.55-18.3 505.65-18.3 507.2-22 508.2-22 508.2-12.7 507.15-12.7 505.65-16.5 495.55-16.5 495.55-1.6 508.55-1.75 510.9-7.45 512.2-7.45 511.6 0ZM549.2-24.75L549.2-24.75Q557.2-24.75 557.2-17.05L557.2-17.05Q557.2-11.5 556.85-1.45L556.85-1.45 560.4-1.2 560.4 0 549.25 0 549.25-1.2 551.95-1.4Q552.3-14.6 552.3-17.43 552.3-20.25 551.25-21.65 550.2-23.05 547.85-23.05 545.5-23.05 543.5-21.08 541.5-19.1 540.8-16.85L540.8-16.85Q540.8-11.45 540.45-1.45L540.45-1.45 544-1.2 544 0 532.85 0 532.85-1.2 535.55-1.4Q535.9-14.6 535.9-17.43 535.9-20.25 534.85-21.65 533.8-23.05 531.22-23.05 528.65-23.05 526.4-20.33 524.15-17.6 524.15-15.5L524.15-15.5 524.15-1.45 527.9-1.2 527.9 0 516 0 516-1.2 519.25-1.4 519.25-22.6 515-22.8 515-23.95 523.95-24.55 523.7-19.4 524.2-19.4Q525.55-22.05 527.82-23.4 530.1-24.75 532.8-24.75L532.8-24.75Q539.55-24.75 540.6-19.35L540.6-19.35 540.6-19.4Q541.95-22.05 544.22-23.4 546.5-24.75 549.2-24.75ZM576.44-0.9L576.44-0.9Q578.34-0.9 579.72-1.7 581.09-2.5 581.87-3.7 582.64-4.9 583.09-6.75L583.09-6.75Q583.74-9.7 583.74-14.2 583.74-18.7 582.19-21.05 580.64-23.4 577.84-23.4 575.04-23.4 572.72-21.03 570.39-18.65 570.39-16.65L570.39-16.65 570.49-2.75Q572.89-0.9 576.44-0.9ZM561.09-37.25L570.44-38.3 570.39-27.6Q570.39-22.5 570.14-20.35L570.14-20.35 570.59-20.35Q571.94-22.55 574.34-23.75 576.74-24.95 579.49-24.95L579.49-24.95Q583.64-24.95 586.44-22.08 589.24-19.2 589.24-12.98 589.24-6.75 585.89-3.08 582.54 0.6 576.34 0.6L576.34 0.6Q574.94 0.6 573.12 0.15 571.29-0.3 570.14-1.05L570.14-1.05 565.54 0.55 565.54-35.9 561.14-36.1 561.09-37.25ZM609.14-25L609.14-25Q610.44-25 611.19-24.38 611.94-23.75 611.94-22.65L611.94-22.65Q611.94-20.75 610.49-20.15L610.49-20.15Q609.69-20.8 607.59-20.8 605.49-20.8 603.56-19.43 601.64-18.05 601.64-16.3L601.64-16.3 601.64-1.45 606.14-1.2 606.14 0 593.44 0 593.44-1.2 596.74-1.4 596.74-22.75 592.79-22.95 592.79-24.1 601.64-24.65 601.34-18.5 601.54-18.5Q602.39-21.2 604.66-23.1 606.94-25 609.14-25ZM619.44-5.4L619.44-5.4Q619.44-2.15 622.09-1.55L622.09-1.55Q622.69-1.4 623.24-1.4L623.24-1.4Q625.14-1.4 627.19-3.03 629.24-4.65 629.34-7.4L629.34-7.4 629.34-11.7Q619.44-11.6 619.44-5.4ZM621.44 0.6L621.44 0.6Q618.59 0.6 616.56-0.98 614.54-2.55 614.54-5.4L614.54-5.4Q614.59-9.25 618.41-11.15 622.24-13.05 629.34-13.05L629.34-13.05 629.34-17.35Q629.34-23.7 624.74-23.7L624.74-23.7Q622.39-23.7 620.94-21.75L620.94-21.75Q619.94-20.4 619.94-18.4L619.94-18.4Q619.94-17.55 620.14-16.6L620.14-16.6Q619.44-16.1 618.71-16.1 617.99-16.1 617.29-16.4L617.29-16.4Q615.69-17 615.69-18.7L615.69-18.7Q615.69-21 617.34-22.5L617.34-22.5Q620.04-24.95 624.79-24.95 629.54-24.95 631.69-22.93 633.84-20.9 633.84-16.55L633.84-16.55 633.84-1.4 638.04-1.2 638.09-0.05 629.74 0.55 629.29-3.9Q626.99 0.6 621.44 0.6ZM653.08-24.95L653.08-24.95Q655.88-24.95 658.48-23.75L658.48-23.75Q659.93-23.1 660.81-21.75 661.68-20.4 661.68-18.6 661.68-16.8 660.08-16.15L660.08-16.15Q659.43-15.9 658.71-15.9 657.98-15.9 657.23-16.4L657.23-16.4Q657.43-17.45 657.43-18.88 657.43-20.3 656.53-21.6L656.53-21.6Q655.23-23.55 652.83-23.55L652.83-23.55Q645.88-23.55 645.88-12.1L645.88-12.1Q645.88-6.5 647.51-3.68 649.13-0.85 652.78-0.85L652.78-0.85Q657.43-0.85 660.23-5.35L660.23-5.35Q661.33-5 661.33-4.28 661.33-3.55 660.41-2.48 659.48-1.4 657.21-0.43 654.93 0.55 651.98 0.55L651.98 0.55Q646.83 0.55 643.66-2.95 640.48-6.45 640.48-12.2 640.48-17.95 643.91-21.45 647.33-24.95 653.08-24.95ZM677.33 0.55Q672.18 0.55 669.03-2.95 665.88-6.45 665.88-12.2 665.88-17.95 669.21-21.45 672.53-24.95 677.58-24.95 682.63-24.95 685.13-22.68 687.63-20.4 687.63-16.35L687.63-16.35Q687.63-15.15 687.43-13.95L687.43-13.95 671.28-13.95 671.28-12.2Q671.28-6.6 672.88-3.73 674.48-0.85 678.13-0.85L678.13-0.85Q683.28-0.85 686.08-5.35L686.08-5.35Q687.18-5 687.18-4.3L687.18-4.3Q687.18-3.05 684.88-1.4L684.88-1.4Q683.78-0.6 681.78-0.03 679.78 0.55 677.33 0.55L677.33 0.55ZM682.88-17.4L682.88-17.4Q682.88-19.7 681.93-21.35L681.93-21.35Q680.63-23.55 677.73-23.55L677.73-23.55Q672.33-23.55 671.43-15.75L671.43-15.75 682.78-15.75Q682.88-16.6 682.88-17.4ZM719.93-5.2L719.93-5.2Q719.93-5.05 719.88-4.85L719.88-4.85Q719.08-2.4 717.2-0.93 715.33 0.55 712.83 0.55 710.33 0.55 708.65-0.88 706.98-2.3 706.98-6.45L706.98-6.45Q706.98-7.6 707.23-23.1L707.23-23.1 703.78-23.1 703.78-24.4 707.28-24.4 707.33-31.75 712.23-31.75 712.08-24.4 719.23-24.4 719.23-23.1 712.08-23.1Q711.83-6.95 711.83-4.2L711.83-4.2Q711.83-0.85 714.03-0.85L714.03-0.85Q715.38-0.85 716.85-2.4 718.33-3.95 718.93-5.9L718.93-5.9Q719.93-5.9 719.93-5.2ZM738.77-24.75L738.77-24.75Q746.77-24.75 746.77-17.05L746.77-17.05Q746.77-11.5 746.42-1.45L746.42-1.45 749.97-1.2 749.97 0 738.82 0 738.82-1.2 741.52-1.4Q741.87-14.6 741.87-17.43 741.87-20.25 740.82-21.65 739.77-23.05 737.2-23.05 734.62-23.05 732.37-20.6 730.12-18.15 730.12-16.1L730.12-16.1 730.12-1.45 733.42-1.2 733.42 0 721.92 0 721.92-1.2 725.22-1.45 725.22-35.9 720.82-36.1 720.77-37.25 730.12-38.3Q729.82-21.15 729.77-20L729.77-20 730.17-20Q731.52-22.3 733.8-23.53 736.07-24.75 738.77-24.75ZM764.72 0.55Q759.57 0.55 756.42-2.95 753.27-6.45 753.27-12.2 753.27-17.95 756.6-21.45 759.92-24.95 764.97-24.95 770.02-24.95 772.52-22.68 775.02-20.4 775.02-16.35L775.02-16.35Q775.02-15.15 774.82-13.95L774.82-13.95 758.67-13.95 758.67-12.2Q758.67-6.6 760.27-3.73 761.87-0.85 765.52-0.85L765.52-0.85Q770.67-0.85 773.47-5.35L773.47-5.35Q774.57-5 774.57-4.3L774.57-4.3Q774.57-3.05 772.27-1.4L772.27-1.4Q771.17-0.6 769.17-0.03 767.17 0.55 764.72 0.55L764.72 0.55ZM770.27-17.4L770.27-17.4Q770.27-19.7 769.32-21.35L769.32-21.35Q768.02-23.55 765.12-23.55L765.12-23.55Q759.72-23.55 758.82-15.75L758.82-15.75 770.17-15.75Q770.27-16.6 770.27-17.4ZM786.92-32.35L786.92-33.4 800.42-33.4 800.42-32.35 796.42-31.8 806.57-6.25 816.32-30.9 811.92-32.2 811.92-33.4 822.37-33.4 822.37-32.2 818.57-30.85 806.17 0.3 803.92 0.3 790.77-31.8 786.92-32.35ZM832.26-32.58Q832.26-31.35 831.41-30.48 830.56-29.6 829.29-29.6 828.01-29.6 827.16-30.45 826.31-31.3 826.31-32.58 826.31-33.85 827.16-34.73 828.01-35.6 829.26-35.6 830.51-35.6 831.39-34.7 832.26-33.8 832.26-32.58ZM835.26 0L823.76 0 823.76-1.2 827.06-1.45 827.06-22.7 822.66-22.85 822.66-24 831.96-24.65 831.96-1.45 835.26-1.2 835.26 0ZM847.76-0.7L847.76-0.7Q849.76-0.7 851.24-1.8 852.71-2.9 852.71-5.5L852.71-5.5Q852.71-7.25 851.14-8.4 849.56-9.55 847.21-10.48 844.86-11.4 844.04-11.78 843.21-12.15 841.86-13L841.86-13Q839.41-14.65 839.41-17.75 839.41-20.85 841.86-22.9 844.31-24.95 849.01-24.95L849.01-24.95Q852.01-24.95 854.14-23.63 856.26-22.3 856.26-20.45 856.26-18.6 854.86-17.9L854.86-17.9Q854.11-17.55 853.39-17.55 852.66-17.55 851.96-17.85L851.96-17.85Q852.16-18.75 852.16-19.8 852.16-20.85 851.66-21.9L851.66-21.9Q850.81-23.7 848.41-23.7 846.01-23.7 844.76-22.4 843.51-21.1 843.51-19L843.51-19Q843.51-16.85 845.31-15.8L845.31-15.8Q846.66-14.95 848.66-14.25 850.66-13.55 851.39-13.28 852.11-13 853.31-12.35 854.51-11.7 855.11-11L855.11-11Q856.66-9.3 856.66-6.4 856.66-3.5 854.06-1.48 851.46 0.55 847.71 0.55 843.96 0.55 841.14-0.6 838.31-1.75 838.31-3.95L838.31-3.95Q838.31-6 841.36-6.65L841.36-6.65Q842.26-0.7 847.76-0.7ZM876.31-5.2L876.31-5.2Q876.31-5.05 876.26-4.85L876.26-4.85Q875.46-2.4 873.58-0.93 871.71 0.55 869.21 0.55 866.71 0.55 865.03-0.88 863.36-2.3 863.36-6.45L863.36-6.45Q863.36-7.6 863.61-23.1L863.61-23.1 860.16-23.1 860.16-24.4 863.66-24.4 863.71-31.75 868.61-31.75 868.46-24.4 875.61-24.4 875.61-23.1 868.46-23.1Q868.21-6.95 868.21-4.2L868.21-4.2Q868.21-0.85 870.41-0.85L870.41-0.85Q871.76-0.85 873.23-2.4 874.71-3.95 875.31-5.9L875.31-5.9Q876.31-5.9 876.31-5.2ZM883.96-5.4L883.96-5.4Q883.96-2.15 886.61-1.55L886.61-1.55Q887.21-1.4 887.76-1.4L887.76-1.4Q889.66-1.4 891.71-3.03 893.76-4.65 893.86-7.4L893.86-7.4 893.86-11.7Q883.96-11.6 883.96-5.4ZM885.96 0.6L885.96 0.6Q883.11 0.6 881.08-0.98 879.06-2.55 879.06-5.4L879.06-5.4Q879.11-9.25 882.93-11.15 886.76-13.05 893.86-13.05L893.86-13.05 893.86-17.35Q893.86-23.7 889.26-23.7L889.26-23.7Q886.91-23.7 885.46-21.75L885.46-21.75Q884.46-20.4 884.46-18.4L884.46-18.4Q884.46-17.55 884.66-16.6L884.66-16.6Q883.96-16.1 883.23-16.1 882.51-16.1 881.81-16.4L881.81-16.4Q880.21-17 880.21-18.7L880.21-18.7Q880.21-21 881.86-22.5L881.86-22.5Q884.56-24.95 889.31-24.95 894.06-24.95 896.21-22.93 898.36-20.9 898.36-16.55L898.36-16.55 898.36-1.4 902.56-1.2 902.61-0.05 894.26 0.55 893.81-3.9Q891.51 0.6 885.96 0.6ZM911.63-0.25Q910.8 0.6 909.55 0.6 908.3 0.6 907.48-0.23 906.65-1.05 906.65-2.27 906.65-3.5 907.48-4.38 908.3-5.25 909.53-5.25 910.75-5.25 911.6-4.38 912.45-3.5 912.45-2.3 912.45-1.1 911.63-0.25ZM910.85-21.45L910.15-9.45 909.5-9.4Q908.9-9.4 908.55-9.78 908.2-10.15 908.15-10.55L908.15-10.55Q907.8-12.7 907.38-17.93 906.95-23.15 906.95-27.6 906.95-32.05 907.9-33L907.9-33Q908.5-33.65 909.8-33.65 911.1-33.65 912.4-33.45L912.4-33.45Q911.55-29.4 910.85-21.45L910.85-21.45Z" opacity="1" transform="matrix(1,0,0,1,0,0)" fill="#729343" class="slogan-text-1" data-fill-palette-color="secondary" id="text-1"></path></svg></g></svg></g></svg></g></svg></g><g></g></svg></g><defs></defs></svg><rect width="395.52" height="73.87219201630859" fill="none" stroke="none" visibility="hidden"></rect></g></svg></g></svg>