<svg width="148" height="155" viewBox="0 0 148 155" fill="none" xmlns="http://www.w3.org/2000/svg">
<mask id="mask0_0_1053" style="mask-type:luminance" maskUnits="userSpaceOnUse" x="0" y="0" width="148" height="155">
<rect width="148" height="155" fill="white"/>
</mask>
<g mask="url(#mask0_0_1053)">
<path d="M36.3974 129.627C36.7148 130.357 36.1965 131.299 35.2445 131.731C34.2872 132.164 33.2612 131.921 32.9439 131.19C32.6318 130.46 33.1448 129.519 34.0968 129.086C35.0488 128.658 36.0801 128.896 36.3974 129.627V129.627Z" fill="white"/>
<rect x="35.7522" y="120.191" width="0.713986" height="10.1009" fill="white"/>
<path d="M44.209 127.771C44.5263 128.502 44.0133 129.443 43.0613 129.876C42.1093 130.309 41.0833 130.071 40.766 129.335C40.4486 128.604 40.9669 127.663 41.9189 127.23C42.8709 126.797 43.8969 127.041 44.2143 127.771H44.209Z" fill="white"/>
<rect x="43.5849" y="118.054" width="0.713986" height="10.1009" fill="white"/>
<path d="M35.7469 121.522L44.3042 119.434V117.248L35.7469 119.245V121.522V121.522Z" fill="white"/>
<path d="M36.096 122.653L35.932 121.939L43.8599 120.056L44.0239 120.77L36.096 122.653V122.653Z" fill="white"/>
<path d="M112.7 104.296C112.931 104.788 112.558 105.416 111.881 105.708C111.198 105.995 110.464 105.832 110.238 105.345C110.013 104.853 110.38 104.226 111.063 103.933C111.74 103.647 112.479 103.809 112.7 104.296V104.296Z" fill="white"/>
<rect x="112.248" y="97.9768" width="0.51368" height="6.76281" fill="white"/>
<path d="M117.933 103.057C118.164 103.544 117.792 104.177 117.11 104.469C116.427 104.756 115.694 104.599 115.469 104.107C115.249 103.614 115.615 102.987 116.292 102.695C116.969 102.408 117.707 102.57 117.933 103.057Z" fill="white"/>
<rect x="117.487" y="96.5486" width="0.513105" height="6.76281" fill="white"/>
<path d="M112.106 98.875L117.839 97.4737V96.0076L112.106 97.3439V98.875V98.875Z" fill="white"/>
<path d="M140.964 95.7803C141.197 96.0562 140.822 96.4079 140.143 96.5648C139.465 96.7271 138.725 96.6351 138.502 96.3646C138.279 96.0941 138.644 95.7424 139.323 95.5801C140.002 95.4178 140.741 95.5098 140.964 95.7803Z" fill="white"/>
<rect x="140.528" y="92.1663" width="0.486278" height="3.77094" fill="white"/>
<path d="M143.877 94.9795C144.109 95.25 143.735 95.6017 143.057 95.764C142.378 95.9263 141.639 95.8343 141.416 95.5638C141.194 95.2879 141.558 94.9416 142.236 94.7793C142.915 94.617 143.654 94.709 143.877 94.9795Z" fill="white"/>
<rect x="143.462" y="91.3655" width="0.485976" height="3.77094" fill="white"/>
<path d="M146.532 94.0979C146.755 94.3738 146.39 94.7201 145.71 94.8824C145.03 95.0447 144.3 94.9527 144.066 94.6822C143.843 94.4063 144.208 94.0546 144.888 93.8977C145.568 93.7354 146.308 93.8274 146.532 94.0979Z" fill="white"/>
<rect x="146.095" y="90.5" width="0.487009" height="3.77094" fill="white"/>
<path d="M139.529 92.7614L145.357 91.2357L145.362 90.3105L139.529 91.9661V92.7614V92.7614Z" fill="white"/>
<path d="M9.07556 92.8373C9.38231 94.4279 7.95434 96.0564 5.88113 96.4784C3.80793 96.9004 1.87223 95.9536 1.56548 94.363C1.25873 92.7724 2.69199 91.1385 4.7652 90.7165C6.8384 90.2945 8.76881 91.2467 9.07556 92.8373V92.8373Z" fill="white"/>
<path d="M8.0514 93.7075L12.4433 73.7065L13.4495 73.9377L9.05764 93.9388L8.0514 93.7075Z" fill="white"/>
<path d="M67.1676 106.157C66.7709 105.27 67.3792 104.112 68.5268 103.571C69.6798 103.025 70.9385 103.301 71.3405 104.182C71.7371 105.064 71.1289 106.222 69.9759 106.769C68.823 107.315 67.5643 107.039 67.1676 106.157V106.157Z" fill="white"/>
<path d="M67.0707 105.477L67.6894 105.467L67.8847 117.774L67.266 117.784L67.0707 105.477Z" fill="white"/>
<path d="M58.7531 127.236C59.245 127.939 58.9065 129.048 57.9968 129.724C57.0819 130.401 55.9395 130.379 55.4476 129.681C54.9558 128.978 55.2943 127.863 56.2039 127.187C57.1189 126.511 58.2613 126.532 58.7531 127.236V127.236Z" fill="white"/>
<path d="M58.7002 128.285C58.5733 128.285 58.457 128.193 58.4305 128.063L56.2198 117.373C56.1881 117.221 56.2833 117.07 56.4314 117.037C56.59 117.005 56.7275 117.102 56.7593 117.254L58.97 127.944C59.0017 128.096 58.9065 128.247 58.7584 128.28C58.7373 128.28 58.7214 128.285 58.7002 128.285Z" fill="white"/>
<path d="M60.7735 121.295C60.7735 121.295 60.747 121.295 60.7311 121.295C60.5831 121.273 60.4773 121.127 60.4984 120.976C60.673 119.786 59.5306 119.261 58.3512 118.823L58.1185 118.736C56.8492 118.244 56.4842 117.887 56.2251 117.356C56.1563 117.216 56.2092 117.048 56.3467 116.978C56.479 116.907 56.6482 116.962 56.717 117.102C56.8862 117.443 57.1136 117.746 58.3142 118.211L58.5363 118.298C59.5041 118.655 61.3023 119.32 61.0432 121.068C61.022 121.209 60.9057 121.306 60.7735 121.306V121.295Z" fill="white"/>
<path d="M61.297 123.843C61.297 123.843 61.2706 123.843 61.2547 123.843C61.1066 123.822 61.0009 123.676 61.022 123.524C61.2018 122.334 60.0595 121.809 58.8748 121.371L58.6421 121.284C57.3728 120.797 57.0078 120.435 56.7487 119.905C56.6799 119.764 56.7328 119.596 56.8703 119.526C57.0078 119.456 57.1718 119.51 57.2405 119.651C57.4098 119.997 57.6372 120.294 58.8378 120.76L59.0599 120.846C60.0277 121.203 61.8259 121.869 61.5615 123.616C61.5403 123.757 61.424 123.854 61.2918 123.854L61.297 123.843Z" fill="white"/>
<path d="M33.5415 103.566C33.7372 104.626 32.7799 105.697 31.3995 105.962C30.0192 106.228 28.7446 105.589 28.5436 104.529C28.3532 103.474 29.3105 102.397 30.6855 102.132C32.0659 101.867 33.3405 102.505 33.5362 103.56L33.5415 103.566Z" fill="white"/>
<path d="M33.2189 104.415C33.2189 104.415 33.166 104.415 33.1395 104.404C32.9544 104.361 32.8434 104.172 32.8857 103.982L36.6196 87.7733C36.6619 87.5839 36.847 87.4703 37.0321 87.5136C37.2172 87.5569 37.3283 87.7462 37.286 87.9356L33.5521 104.145C33.515 104.307 33.3723 104.415 33.2189 104.415V104.415Z" fill="white"/>
<path d="M39.8299 94.8175C39.7664 94.8175 39.6976 94.7959 39.6395 94.758C39.4808 94.6498 39.4385 94.4334 39.5443 94.2711C40.3587 93.0267 39.3433 91.8148 38.2326 90.6787L38.0158 90.4568C36.8417 89.2233 36.6143 88.6174 36.5931 87.8762C36.5878 87.6814 36.7359 87.5191 36.9263 87.5137H36.9369C37.122 87.5137 37.2754 87.6652 37.2807 87.8545C37.2965 88.336 37.397 88.7959 38.5077 89.9699L38.7139 90.1863C39.6183 91.1115 41.3054 92.8374 40.1102 94.666C40.0467 94.7688 39.9356 94.8229 39.8246 94.8229L39.8299 94.8175Z" fill="white"/>
<path d="M38.624 100.287C38.5605 100.287 38.4918 100.265 38.4336 100.228C38.275 100.119 38.2326 99.903 38.3384 99.7407C39.1529 98.4963 38.1374 97.2844 37.0268 96.1483L36.81 95.9265C35.6358 94.6929 35.4084 94.087 35.3873 93.3458C35.382 93.151 35.5301 92.9887 35.7205 92.9833C35.9267 92.94 36.0695 93.1294 36.0748 93.3241C36.0907 93.8056 36.1912 94.2655 37.3018 95.4341L37.5134 95.6505C38.4178 96.5757 40.0996 98.3016 38.9096 100.125C38.8461 100.228 38.7351 100.282 38.624 100.282V100.287Z" fill="white"/>
<path d="M37.9999 102.954C37.9365 102.954 37.8677 102.933 37.8095 102.895C37.6509 102.787 37.6086 102.57 37.7143 102.408C38.5288 101.164 37.5134 99.9463 36.3974 98.8102L36.1859 98.5937C35.0118 97.3548 34.7896 96.7543 34.7632 96.0131C34.7579 95.8183 34.906 95.656 35.0964 95.6506C35.3027 95.6289 35.4455 95.7966 35.4507 95.9914C35.4666 96.4729 35.5671 96.9328 36.6777 98.1068L36.8787 98.3124C37.7884 99.2376 39.4808 100.963 38.2802 102.798C38.2168 102.9 38.1057 102.954 37.9946 102.954H37.9999Z" fill="white"/>
<path d="M39.2534 97.4685C39.1899 97.4685 39.1212 97.4469 39.063 97.409C38.9043 97.3008 38.862 97.0844 38.9678 96.9221C39.7823 95.6777 38.7668 94.4658 37.6562 93.3297L37.4446 93.1079C36.2705 91.8743 36.0431 91.2684 36.0219 90.5272C36.0166 90.3324 36.1647 90.1701 36.3551 90.1647C36.5561 90.1214 36.7042 90.3108 36.7095 90.5055C36.7253 90.987 36.8258 91.4469 37.9365 92.6155L38.1427 92.8319C39.0471 93.7571 40.7342 95.483 39.539 97.3116C39.4755 97.4144 39.3644 97.4685 39.2534 97.4685V97.4685Z" fill="white"/>
<path d="M109.996 89.7641C110.43 90.2834 110.234 91.187 109.557 91.7767C108.88 92.3664 107.976 92.4313 107.542 91.9119C107.103 91.3925 107.304 90.489 107.981 89.8939C108.658 89.2988 109.563 89.2447 109.996 89.7641Z" fill="white"/>
<path d="M109.97 90.3701C109.875 90.3701 109.79 90.3051 109.763 90.2132L106.812 80.0635C106.775 79.9445 106.844 79.8201 106.96 79.7876C107.077 79.7552 107.198 79.8201 107.23 79.9391L110.181 90.0887C110.218 90.2078 110.15 90.3322 110.033 90.3647C110.012 90.3701 109.991 90.3755 109.97 90.3755V90.3701Z" fill="white"/>
<path d="M110.652 82.9419H110.636C110.515 82.9311 110.425 82.8283 110.435 82.7038C110.504 81.757 109.568 81.4162 108.605 81.1457L108.415 81.0916C107.389 80.7886 107.077 80.5289 106.834 80.1285C106.77 80.0258 106.802 79.8851 106.902 79.8202C107.003 79.7552 107.14 79.7877 107.204 79.8905C107.362 80.1502 107.558 80.372 108.536 80.6587L108.716 80.7074C109.504 80.9239 110.964 81.3296 110.869 82.7255C110.858 82.8445 110.763 82.9311 110.652 82.9311V82.9419Z" fill="white"/>
<path d="M111.678 86.3449H111.662C111.541 86.3341 111.451 86.2313 111.461 86.1069C111.525 85.1547 110.589 84.8192 109.626 84.5487L109.441 84.5C108.415 84.1971 108.103 83.9374 107.86 83.537C107.796 83.4288 107.828 83.2935 107.934 83.2286C108.034 83.1637 108.166 83.1962 108.235 83.3044C108.388 83.5641 108.589 83.7859 109.563 84.0726L109.742 84.1213C110.53 84.3377 111.995 84.7435 111.9 86.1393C111.895 86.2584 111.794 86.3449 111.683 86.3449H111.678Z" fill="white"/>
<path d="M111.154 84.5866H111.139C111.017 84.5758 110.927 84.473 110.938 84.3486C111.001 83.3964 110.065 83.0555 109.102 82.7904L108.917 82.7417C107.891 82.4387 107.579 82.179 107.336 81.7787C107.272 81.6759 107.304 81.5352 107.405 81.4703C107.505 81.4054 107.643 81.4378 107.706 81.5406C107.865 81.8003 108.061 82.0222 109.039 82.3089L109.213 82.3576C110.001 82.574 111.466 82.9798 111.371 84.381C111.366 84.5 111.266 84.5866 111.154 84.5866V84.5866Z" fill="white"/>
<path d="M12.9681 105.449C12.6508 104.031 13.8884 102.533 15.7341 102.094C17.5852 101.661 19.3411 102.451 19.6584 103.869C19.9757 105.286 18.7382 106.79 16.8924 107.223C15.0466 107.656 13.2907 106.861 12.9681 105.449V105.449Z" fill="white"/>
<path d="M10.0328 123.156C10.0011 123.156 9.97465 123.156 9.94292 123.151C9.69435 123.102 9.53039 122.853 9.57799 122.599L12.9787 104.55C13.0263 104.296 13.2749 104.128 13.5181 104.177C13.7667 104.226 13.9307 104.475 13.8831 104.729L10.4824 122.778C10.4401 123.005 10.2444 123.162 10.0275 123.162L10.0328 123.156Z" fill="white"/>
<path d="M10.0593 123.037C9.99052 123.037 9.92177 123.021 9.8583 122.989C9.62559 122.875 9.53039 122.594 9.64146 122.356C10.0699 121.452 10.6728 120.835 12.783 119.975L13.1691 119.824C15.1524 119.05 17.0563 118.125 16.7231 116.128C16.6808 115.869 16.8501 115.625 17.1039 115.582C17.3525 115.55 17.5958 115.712 17.6381 115.972C18.1247 118.898 15.1206 120.078 13.5023 120.711L13.1321 120.857C11.1276 121.674 10.7574 122.188 10.4771 122.772C10.3978 122.94 10.2338 123.037 10.0593 123.037V123.037Z" fill="white"/>
<path d="M125.402 83.6127C125.254 84.3864 124.524 84.8895 123.773 84.738C123.022 84.5866 122.525 83.8453 122.673 83.0717C122.822 82.298 123.546 81.7949 124.302 81.9464C125.059 82.0924 125.551 82.839 125.408 83.6127H125.402Z" fill="white"/>
<path d="M126.27 92.6749L125.799 92.5829L127.417 83.9861C126.577 84.7381 125.762 85.1222 124.985 85.1222H124.958C124.223 85.1168 123.52 84.7597 122.927 84.0889L123.282 83.7588C123.789 84.3323 124.355 84.6245 124.963 84.6299H124.985C125.799 84.6299 126.688 84.1159 127.624 83.0988C127.698 83.0176 127.814 83.0014 127.909 83.0501C128.005 83.0988 128.057 83.207 128.036 83.3152L126.27 92.6749Z" fill="white"/>
<path d="M124.731 87.1943C124.583 87.9679 123.853 88.4711 123.102 88.3196C122.346 88.1681 121.854 87.4269 122.002 86.6532C122.15 85.8796 122.874 85.3764 123.631 85.5279C124.382 85.6794 124.874 86.4206 124.731 87.1943Z" fill="white"/>
<path d="M124.308 88.7039H124.287C123.551 88.6984 122.848 88.3414 122.256 87.6705L122.61 87.3405C123.123 87.914 123.689 88.2061 124.292 88.2115C125.096 88.1953 126.005 87.7084 126.952 86.6804L127.301 87.0159C126.27 88.1304 125.265 88.6984 124.313 88.6984L124.308 88.7039Z" fill="white"/>
<path d="M81.7329 112.855C81.9075 113.699 81.3786 114.527 80.5482 114.705C79.7232 114.884 78.914 114.337 78.7448 113.493C78.5755 112.65 79.1044 111.822 79.9242 111.643C80.7545 111.465 81.5584 112.011 81.7276 112.855H81.7329Z" fill="white"/>
<path d="M85.8423 121.777L83.9278 112.363C83.383 113.504 82.7061 114.245 81.9075 114.581C81.1564 114.889 80.2997 114.835 79.4217 114.413L79.6439 113.926C80.3949 114.283 81.093 114.337 81.7065 114.083C82.5421 113.737 83.2349 112.828 83.7691 111.378C83.8114 111.264 83.9172 111.178 84.0388 111.205C84.1552 111.216 84.2504 111.302 84.2768 111.416L86.3659 121.668L85.8529 121.777H85.8423Z" fill="white"/>
<path d="M82.5368 116.778C82.7061 117.622 82.1772 118.449 81.3521 118.622C80.5218 118.801 79.7179 118.255 79.5487 117.411C79.3741 116.567 79.903 115.739 80.7333 115.566C81.5637 115.393 82.3676 115.934 82.5421 116.778H82.5368Z" fill="white"/>
<path d="M81.7012 118.698C81.2252 118.698 80.7281 118.579 80.2203 118.336L80.4425 117.849C81.1935 118.211 81.8916 118.26 82.5051 118.006C83.3354 117.659 84.0283 116.75 84.5624 115.301L85.0543 115.49C84.4672 117.086 83.6739 118.098 82.7008 118.503C82.3834 118.633 82.045 118.704 81.6959 118.704L81.7012 118.698Z" fill="white"/>
<rect x="96.9911" y="92.6101" width="0.269728" height="10.6257" fill="white"/>
<rect x="96.9911" y="92.6101" width="0.269728" height="10.6257" fill="white"/>
<rect x="99.2177" y="91.7119" width="0.269728" height="10.6257" fill="white"/>
<path d="M101.434 97.1602L95.6213 95.4072L95.6953 95.1367L101.508 96.895L101.434 97.1602V97.1602Z" fill="white"/>
<path d="M100.958 99.7786L95.1453 98.0256L95.2246 97.7551L101.032 99.5135L100.958 99.7786V99.7786Z" fill="white"/>
<path d="M100.958 99.7786L95.1453 98.0256L95.2246 97.7551L101.032 99.5135L100.958 99.7786V99.7786Z" fill="white"/>
<path d="M150.9 101.131L147.901 100.222L147.97 99.9895L150.968 100.893L150.9 101.131V101.131Z" fill="white"/>
<path d="M150.9 101.131L147.901 100.222L147.97 99.9895L150.968 100.893L150.9 101.131V101.131Z" fill="white"/>
<path d="M57.7747 105.941C57.7747 106.379 57.4309 106.731 56.9973 106.731C56.5636 106.731 56.2198 106.379 56.2198 105.941C56.2198 105.503 56.5689 105.146 56.9973 105.146C57.4257 105.146 57.7747 105.503 57.7747 105.941Z" fill="white"/>
<path d="M57.7747 109.306C57.7747 109.744 57.4309 110.101 56.9973 110.101C56.5636 110.101 56.2198 109.744 56.2198 109.306C56.2198 108.868 56.5689 108.511 56.9973 108.511C57.4257 108.511 57.7747 108.862 57.7747 109.306Z" fill="white"/>
<path d="M51.1849 105.714C51.1849 106.531 50.5396 107.191 49.741 107.191C48.9424 107.191 48.2972 106.531 48.2972 105.714C48.2972 104.897 48.9424 104.231 49.741 104.231C50.5396 104.231 51.1849 104.897 51.1849 105.714Z" fill="white"/>
<path d="M50.8411 114.927C50.8411 114.927 51.8936 114.321 53.0518 112.947C53.6283 112.266 54.2048 111.378 54.6014 110.339C54.8024 109.826 54.9611 109.268 55.0351 108.695C55.1303 108.105 55.1621 107.564 55.1145 106.942C55.0087 105.827 54.3952 104.81 53.5384 104.345C52.6869 103.858 51.6979 103.842 51.0156 104.096C50.3122 104.345 49.9685 104.821 49.8468 105.167C49.7199 105.519 49.7252 105.757 49.7252 105.757C49.7358 106.163 49.4237 106.504 49.0271 106.514C48.6304 106.525 48.2972 106.206 48.2866 105.8V105.622C48.2866 105.622 48.3025 105.221 48.5934 104.588C48.8737 103.955 49.6194 103.182 50.6666 102.917C51.6926 102.63 52.9778 102.776 54.0514 103.501C55.1462 104.22 55.802 105.584 55.8179 106.926C55.8179 107.526 55.7703 108.219 55.6328 108.814C55.527 109.431 55.326 110.015 55.088 110.556C54.6173 111.643 53.9668 112.536 53.3374 113.218C52.0734 114.581 50.9628 115.149 50.9575 115.144C50.8993 115.182 50.8252 115.16 50.7935 115.1C50.7618 115.041 50.7829 114.965 50.8411 114.933V114.927Z" fill="white"/>
<path d="M129.924 104.042C126.534 101.391 131.003 98.9616 131.003 98.9616C130.072 98.4909 129.168 97.7605 129.988 96.251C130.887 94.5955 133.991 94.1248 132.664 92.1934C132.664 92.1934 135.303 92.6424 133.526 95.3205C132.405 97.0139 130.48 97.0626 132.267 99.0914C132.267 99.0914 128.777 101.412 129.924 104.042V104.042Z" fill="white"/>
<path d="M0.148087 78.2837C0.148087 78.2837 0.814474 78.4947 2.06792 78.895C2.69728 79.079 3.46416 79.3441 4.35796 79.6958C5.25706 80.0258 6.28837 80.4207 7.40959 80.9347C11.9579 82.8499 18.0929 86.4099 24.9366 91.3981C28.3796 93.8652 32.013 96.6623 35.9849 99.4215C39.9568 102.159 44.2883 104.945 49.2333 106.704C51.6979 107.575 54.3 108.229 56.9814 108.392C59.6628 108.565 62.3918 108.316 65.0679 107.715C67.7494 107.099 70.3356 106.049 72.853 104.853C75.3335 103.571 77.7399 102.116 80.0458 100.493C84.6841 97.3007 88.9997 93.6271 93.6486 90.5758C95.9756 89.0609 98.3926 87.7192 100.921 86.7237C103.454 85.7228 106.093 85.1709 108.711 84.9167C113.973 84.4784 119.04 85.4414 123.699 86.6155C128.375 87.8057 132.69 89.2935 136.652 90.711C144.553 93.6055 151.159 95.9914 155.919 97.1925C158.288 97.8255 160.171 98.2313 161.461 98.4585C162.752 98.6911 163.439 98.821 163.439 98.821C163.439 98.821 162.752 98.6965 161.461 98.4639C160.166 98.2421 158.283 97.8363 155.913 97.2141C151.148 96.0293 144.537 93.6542 136.631 90.7868C132.669 89.3801 128.348 87.9031 123.678 86.7291C119.024 85.5659 113.957 84.6245 108.732 85.0735C106.13 85.3332 103.502 85.8905 100.995 86.8914C98.4825 87.8923 96.0814 89.2286 93.7649 90.7489C89.1425 93.8003 84.8374 97.4901 80.1939 100.698C77.888 102.332 75.471 103.798 72.9853 105.097C70.4519 106.309 67.8551 107.369 65.1526 108.002C62.45 108.614 59.6945 108.873 56.9814 108.705C54.2682 108.549 51.6344 107.894 49.1434 107.023C44.1508 105.259 39.7875 102.467 35.7998 99.7353C31.8068 96.9761 28.1681 94.1898 24.7251 91.739C17.8814 86.7778 11.7676 83.2611 7.25093 81.3675C6.13499 80.859 5.11426 80.4748 4.22574 80.1502C3.34251 79.804 2.58093 79.5443 1.94627 79.3603C0.692832 78.9654 0.0211563 78.7544 0.0211563 78.7544L0.163954 78.2837L0.148087 78.2837Z" fill="white"/>
<path d="M0.142798 86.3287C0.142798 86.3287 0.803896 86.5234 2.04676 86.8967C3.28434 87.27 5.10897 87.8922 7.34613 88.8174C9.58328 89.7587 12.2647 90.9977 15.2317 92.6262C18.204 94.2438 21.4725 96.2186 25.0054 98.426C28.5436 100.617 32.3356 103.057 36.5138 105.335C40.6814 107.602 45.2614 109.744 50.2911 110.886C55.3048 112.06 60.7735 112.071 65.9988 110.637C71.2717 109.322 76.1691 106.579 80.7756 103.522C85.3716 100.428 89.6978 96.9003 94.2885 93.9138C98.8633 90.949 103.914 88.7037 109.102 88.206C111.678 87.8489 114.238 88.0004 116.718 88.1844C119.178 88.601 121.605 88.839 123.916 89.3854C128.56 90.3917 132.87 91.6577 136.821 92.9183C140.777 94.1519 144.373 95.3854 147.594 96.3538C150.804 97.3764 153.639 98.1284 155.982 98.7181C158.309 99.3728 160.203 99.5892 161.461 99.8813C162.731 100.13 163.408 100.26 163.408 100.26C163.408 100.26 162.731 100.13 161.456 99.8867C160.197 99.6 158.299 99.389 155.972 98.7398C153.623 98.1554 150.789 97.4142 147.573 96.3971C144.347 95.4341 140.75 94.2114 136.789 92.9887C132.838 91.7389 128.528 90.4837 123.895 89.4936C121.589 88.9526 119.151 88.72 116.702 88.3088C114.233 88.1303 111.683 87.9896 109.118 88.3467C103.962 88.8552 98.9479 91.1005 94.3943 94.0707C89.8248 97.0626 85.5144 100.595 80.9079 103.717C76.3066 106.796 71.3828 109.571 66.0728 110.907C60.8105 112.368 55.2784 112.374 50.2223 111.205C45.1398 110.063 40.528 107.921 36.3393 105.659C32.1452 103.382 28.3373 100.953 24.7938 98.7722C21.2609 96.5757 17.9925 94.6171 15.0254 93.0157C12.0637 91.4035 9.39818 90.1753 7.1716 89.2502C4.93973 88.3304 3.15741 87.7299 1.91454 87.3566C0.671677 86.9887 0.0105782 86.7939 0.0105782 86.7939L0.142798 86.3232V86.3287Z" fill="white"/>
<path d="M0.137508 94.3738C0.137508 94.3738 0.793318 94.5523 2.02561 94.8878C3.2526 95.2556 5.0931 95.6181 7.33026 96.5C8.45148 96.922 9.72608 97.317 11.0536 97.885C12.3811 98.4585 13.8143 99.0753 15.3428 99.7407C16.8448 100.471 18.442 101.245 20.1238 102.062C21.7845 102.922 23.5298 103.825 25.3544 104.767C28.9931 106.655 32.9068 108.77 37.1908 110.686C41.4852 112.52 46.1129 114.386 51.1637 115.117C56.1934 115.869 61.5192 115.62 66.6916 114.229C67.9662 113.824 69.2196 113.326 70.489 112.877C71.1183 112.639 71.7636 112.428 72.3876 112.168L74.1964 111.232L77.8245 109.355C78.9827 108.646 80.1727 107.948 81.2992 107.174C85.8846 104.183 90.1632 100.72 94.7116 97.7985C99.2124 94.8391 104.157 92.583 109.235 91.8201C111.757 91.3657 114.285 91.344 116.745 91.4252C119.188 91.7119 121.595 91.7823 123.9 92.2259C128.528 92.9563 132.849 93.9734 136.8 95.0176C140.75 96.0672 144.373 97.0356 147.584 97.885C150.794 98.7507 153.618 99.3945 155.945 99.8976C158.267 100.46 160.134 100.644 161.387 100.893C162.646 101.104 163.318 101.212 163.318 101.212C163.318 101.212 162.646 101.104 161.387 100.893C160.134 100.65 158.262 100.466 155.94 99.9139C153.608 99.4161 150.783 98.7831 147.573 97.9229C144.363 97.0789 140.735 96.1213 136.779 95.0825C132.823 94.0546 128.502 93.0483 123.879 92.3287C121.584 91.8905 119.167 91.8256 116.724 91.5496C114.28 91.4739 111.757 91.5009 109.25 91.9608C104.2 92.7345 99.2917 94.996 94.8121 97.9554C90.2849 100.882 86.0168 104.356 81.4262 107.375C80.2891 108.154 79.115 108.846 77.9461 109.566L74.3075 111.465L72.4934 112.412C71.864 112.671 71.2188 112.888 70.5842 113.131C69.3096 113.586 68.0508 114.094 66.7709 114.505C61.5562 115.923 56.1881 116.188 51.1161 115.447C46.0177 114.727 41.3636 112.861 37.0427 111.032C32.7376 109.128 28.8133 107.018 25.1693 105.14C23.3447 104.204 21.5994 103.306 19.9334 102.451C18.2516 101.64 16.6597 100.871 15.1577 100.152C13.6292 99.4973 12.2012 98.8859 10.879 98.3178C9.55684 97.7552 8.29811 97.3765 7.18217 96.9545C4.97146 96.0888 3.1151 95.7263 1.89339 95.3584C0.661098 95.0284 0 94.8499 0 94.8499L0.121642 94.3738H0.137508Z" fill="white"/>
<path d="M0.12693 102.419C0.12693 102.419 0.78274 102.565 2.01503 102.841C3.24203 103.138 5.07195 103.441 7.33555 104.177C9.62559 104.799 12.3387 105.757 15.4274 106.899C18.5002 108.1 21.9326 109.523 25.6506 111.135C29.3739 112.742 33.4093 114.462 37.7619 116.047C42.1358 117.557 46.8428 118.904 51.8566 119.461C56.8756 119.926 62.1115 119.461 67.2099 118.054C69.7115 117.189 72.2713 116.399 74.6354 115.095C77.0947 114.008 79.3794 112.552 81.7012 111.151C86.276 108.257 90.6287 105.01 95.1453 102.148C99.6884 99.3675 104.443 96.987 109.404 95.8779C110.604 95.4451 111.884 95.4505 113.106 95.2341C114.338 95.0934 115.549 94.8554 116.766 94.7959C117.982 94.7904 119.183 94.7796 120.373 94.7742C120.965 94.7742 121.557 94.7742 122.139 94.7688C122.726 94.8229 123.308 94.877 123.879 94.9257C126.19 95.1259 128.438 95.3098 130.58 95.7156C132.738 96.0348 134.811 96.4027 136.784 96.8409C140.75 97.6146 144.352 98.5073 147.568 99.189C150.767 99.9248 153.576 100.477 155.898 100.904C158.209 101.396 160.06 101.526 161.303 101.737C162.556 101.91 163.223 102.002 163.223 102.002C163.223 102.002 162.556 101.91 161.303 101.743C160.06 101.537 158.203 101.407 155.892 100.92C153.576 100.498 150.762 99.9518 147.557 99.2268C144.342 98.5506 140.74 97.6687 136.773 96.9058C134.795 96.4784 132.722 96.1159 130.57 95.8022C128.428 95.4018 126.185 95.2233 123.879 95.0285C123.303 94.9798 122.721 94.9257 122.139 94.877C121.552 94.877 120.965 94.8824 120.368 94.8878C119.178 94.8986 117.982 94.9095 116.766 94.9203C115.56 94.9852 114.349 95.2233 113.122 95.3693C111.905 95.5912 110.631 95.5857 109.436 96.0186C104.496 97.1385 99.773 99.5244 95.2458 102.311C90.7556 105.178 86.4029 108.44 81.8228 111.357C79.5116 112.758 77.2216 114.229 74.7464 115.333C72.3718 116.648 69.8014 117.449 67.2839 118.33C62.1485 119.764 56.8756 120.246 51.8195 119.791C46.7687 119.245 42.03 117.903 37.635 116.399C33.2612 114.819 29.2153 113.104 25.492 111.508C21.7686 109.907 18.3362 108.495 15.2687 107.31C12.1854 106.179 9.48279 105.238 7.2139 104.626C4.98204 103.907 3.13625 103.604 1.90925 103.312C0.676964 103.041 0.0158653 102.895 0.0158653 102.895L0.116352 102.413L0.12693 102.419Z" fill="white"/>
<path d="M0.116352 110.464C0.116352 110.464 0.772161 110.577 2.00974 110.783C3.24731 111.005 5.06666 111.243 7.34612 111.816C11.9421 112.79 18.3521 114.759 25.9627 117.324C29.7706 118.601 33.9064 119.915 38.3331 121.138C42.7757 122.285 47.5303 123.216 52.5177 123.535C57.5103 123.805 62.688 123.21 67.7335 121.787C68.9816 121.382 70.2351 120.97 71.4938 120.559C72.7102 120.045 73.9108 119.466 75.1272 118.92C75.7301 118.639 76.3489 118.384 76.936 118.076L78.6813 117.08C79.8395 116.41 81.0242 115.771 82.1666 115.068C86.7044 112.206 91.0888 109.079 95.5314 106.195C100.027 103.403 104.702 101.028 109.541 99.6324C110.726 99.205 111.985 99.1076 113.185 98.8371C114.402 98.6423 115.581 98.2907 116.792 98.2311C119.199 98.1229 121.547 97.7929 123.848 97.966C124.995 97.9985 126.127 98.031 127.243 98.0688C128.359 98.1121 129.448 98.2636 130.522 98.3556C131.596 98.4638 132.653 98.5666 133.695 98.664C134.727 98.81 135.737 98.9561 136.731 99.0968C140.703 99.6216 144.315 100.309 147.531 100.823C150.741 101.38 153.549 101.802 155.861 102.132C158.172 102.511 160.007 102.603 161.25 102.765C162.493 102.895 163.159 102.965 163.159 102.965C163.159 102.965 162.493 102.9 161.25 102.77C160.007 102.613 158.172 102.521 155.861 102.154C153.544 101.829 150.736 101.418 147.525 100.866C144.31 100.363 140.692 99.6865 136.72 99.1725C135.726 99.0373 134.716 98.8912 133.685 98.7505C132.648 98.6531 131.59 98.5504 130.517 98.4476C129.443 98.361 128.354 98.2095 127.238 98.1662C126.127 98.1338 124.995 98.1067 123.848 98.0743C121.557 97.9119 119.204 98.2474 116.803 98.361C115.602 98.4205 114.423 98.7776 113.212 98.9724C112.017 99.2483 110.763 99.3511 109.584 99.7785C104.766 101.185 100.117 103.56 95.6371 106.357C91.2104 109.252 86.8419 112.39 82.2882 115.279C81.1459 115.982 79.9665 116.626 78.8082 117.302L77.0629 118.303C76.4653 118.617 75.8465 118.871 75.2436 119.158C74.0219 119.71 72.816 120.294 71.5943 120.814C70.3303 121.23 69.0716 121.647 67.8181 122.058C62.7409 123.502 57.5261 124.119 52.5071 123.859C47.488 123.557 42.707 122.631 38.2432 121.49C33.8006 120.278 29.6489 118.974 25.841 117.708C18.2252 115.171 11.8204 113.223 7.2615 112.271C5.00319 111.708 3.17327 111.475 1.94098 111.259C0.703407 111.053 0.0423088 110.945 0.0423088 110.945L0.121641 110.458L0.116352 110.464Z" fill="white"/>
<path d="M0.100485 118.509C0.100485 118.509 0.761584 118.574 1.99916 118.698C3.23674 118.823 5.05608 118.974 7.3567 119.353C11.9738 119.997 18.479 121.365 26.2482 123.118C34.0122 124.817 43.1353 126.9 53.0783 127.068C58.0391 127.133 63.1746 126.521 68.1989 125.147C73.2444 123.811 78.0731 121.43 82.595 118.628C87.1433 115.841 91.422 112.617 95.854 109.777C100.26 106.904 104.887 104.485 109.679 103.057C112.08 102.381 114.486 101.861 116.877 101.661C119.262 101.483 121.595 101.185 123.879 101.239C125.022 101.228 126.148 101.218 127.254 101.207C128.359 101.255 129.448 101.299 130.522 101.347C132.669 101.418 134.737 101.575 136.715 101.764C140.682 102.078 144.305 102.543 147.52 102.889C150.736 103.241 153.539 103.549 155.845 103.798C158.156 104.058 159.975 104.139 161.213 104.253C162.456 104.35 163.117 104.399 163.117 104.399C163.117 104.399 162.456 104.35 161.213 104.258C159.975 104.15 158.151 104.069 155.839 103.82C153.528 103.576 150.725 103.274 147.51 102.933C144.294 102.592 140.671 102.143 136.705 101.84C134.721 101.656 132.653 101.504 130.511 101.439C129.443 101.396 128.354 101.353 127.243 101.31C126.138 101.326 125.016 101.337 123.874 101.353C119.336 101.477 114.476 101.759 109.711 103.203C104.94 104.642 100.334 107.066 95.9439 109.944C91.5278 112.796 87.2597 116.031 82.7061 118.833C78.1788 121.663 73.3396 124.065 68.2677 125.423C63.2169 126.819 58.0497 127.452 53.0624 127.398C43.0666 127.252 33.9223 125.196 26.1478 123.513C18.3732 121.782 11.868 120.435 7.28266 119.813C4.9979 119.445 3.17856 119.299 1.94098 119.174C0.703407 119.055 0.0423088 118.99 0.0423088 118.99L0.0899079 118.503L0.100485 118.509Z" fill="white"/>
<path d="M84.2821 105.291C84.3879 105.584 84.2345 105.914 83.9489 106.016C83.6633 106.125 83.346 105.968 83.2402 105.676C83.1344 105.383 83.2878 105.059 83.5734 104.951C83.859 104.848 84.1816 104.999 84.2821 105.291Z" fill="white"/>
<path d="M83.3936 105.665C83.3936 105.665 83.4359 105.811 83.6528 105.941C83.8484 106.076 84.3086 106.152 84.6418 105.8C84.9485 105.454 84.9485 104.805 84.5624 104.237C84.2187 103.625 83.785 102.954 83.3407 102.213C82.8912 101.467 82.4046 100.66 81.9127 99.7893C81.4262 98.9183 80.8973 98.004 80.4795 96.9814C80.3631 96.7271 80.2521 96.4674 80.1357 96.2078C80.0194 95.9427 79.8977 95.6613 79.8607 95.3259V95.261C79.8607 95.261 79.8501 95.2501 79.8501 95.2231V95.196C79.8501 95.1636 79.8501 95.1311 79.8501 95.077C79.8501 94.985 79.8607 94.8985 79.8766 94.8011C79.9242 94.6226 79.9929 94.3629 80.2891 94.1897C80.4425 94.1086 80.6276 94.1302 80.7386 94.2006C80.8603 94.2709 80.9713 94.3737 81.0242 94.4224C81.1829 94.5685 81.2781 94.6388 81.3733 94.7632C81.7647 95.2285 81.9603 95.8561 82.1296 96.4729C82.2988 97.1004 82.2459 97.7767 82.0555 98.3827C81.9709 98.6911 81.8493 98.9886 81.7118 99.27C81.68 99.3403 81.643 99.4106 81.606 99.481L81.5108 99.6649C81.4367 99.7947 81.3786 99.9138 81.3257 100.027C81.1088 100.503 80.9343 101.012 80.9026 101.51C80.8761 102.002 81.0189 102.478 81.3363 102.824C81.6589 103.171 82.1349 103.366 82.6214 103.42C83.5999 103.539 84.647 103.09 85.2182 102.348C85.5091 101.98 85.6202 101.499 85.525 101.077C85.4245 100.655 85.1706 100.314 84.8639 100.087C84.2504 99.627 83.5364 99.6595 83.0551 99.9787C82.5685 100.298 82.3358 100.844 82.3147 101.293C82.283 101.753 82.431 102.127 82.5474 102.365C82.669 102.603 82.7537 102.727 82.7537 102.727C82.7537 102.727 82.7219 102.705 82.669 102.662C82.6109 102.619 82.5315 102.549 82.4363 102.446C82.2512 102.24 81.9815 101.883 81.9127 101.31C81.844 100.758 82.0344 99.9733 82.7061 99.4701C83.034 99.2213 83.4782 99.0644 83.9383 99.0914C84.4143 99.1185 84.8692 99.3403 85.2024 99.692C85.5408 100.044 85.7841 100.514 85.8317 101.034C85.8899 101.548 85.7312 102.083 85.4245 102.511C84.7793 103.344 83.7532 103.885 82.595 103.89C82.0185 103.89 81.405 103.712 80.9184 103.279C80.4266 102.852 80.1569 102.17 80.1304 101.521C80.0987 100.866 80.2203 100.233 80.4425 99.6433C80.5006 99.4864 80.5535 99.3457 80.6117 99.2159L80.7862 98.8209C80.892 98.5829 80.9766 98.3286 81.056 98.0797C81.1882 97.5711 81.2781 97.068 81.3468 96.5378C81.405 96.0887 81.3468 95.618 81.1882 95.1906C81.1247 95.0121 80.9872 94.7416 80.7651 94.7578C80.4054 94.7795 80.4742 95.4179 80.4848 95.6613C80.4953 96.0725 80.5747 96.4891 80.7228 96.8732C81.1088 97.8795 81.5848 98.8155 82.082 99.6757C82.5791 100.541 83.0763 101.337 83.5417 102.067C84.0124 102.797 84.4302 103.474 84.7846 104.09C84.8692 104.253 84.9485 104.393 85.0225 104.572C85.086 104.734 85.1125 104.913 85.1125 105.081C85.1125 105.416 84.9697 105.735 84.7528 105.908C84.536 106.087 84.298 106.146 84.0917 106.157C83.8855 106.157 83.7162 106.098 83.5946 106.027C83.3407 105.881 83.272 105.719 83.272 105.73L83.3936 105.649V105.665Z" fill="white"/>
<path fill-rule="evenodd" clip-rule="evenodd" d="M135.499 75.3947C139.259 77.1368 142.279 80.4425 143.929 84.4082H143.94C145.611 88.3522 146.097 92.9726 144.886 97.317C143.781 101.699 140.819 105.524 137.017 108.008C133.605 110.053 129.766 111.405 125.741 111.973C126.169 114.343 126.561 116.637 126.899 118.844L126.94 119.144C127.141 120.615 127.325 121.959 127.37 123.53C127.402 125.082 127.047 126.613 126.524 127.966C125.519 130.725 123.329 132.803 121.039 133.522C118.739 134.28 116.612 134.009 114.915 133.387C113.244 132.727 112.038 131.699 111.25 130.736C111.094 130.547 110.961 130.358 110.834 130.178L110.834 130.178L110.834 130.178L110.8 130.13C110.102 129.362 109.647 128.366 109.536 127.274C109.515 127.063 109.504 126.846 109.51 126.63C109.573 123.903 111.805 121.755 114.46 121.825C117.12 121.901 119.241 124.163 119.167 126.895C119.093 129.622 116.861 131.775 114.19 131.694C114 131.688 113.815 131.672 113.635 131.645C115.317 132.749 117.834 133.398 120.5 132.154C124.075 130.336 126.106 125.055 124.688 119.185C124.355 116.962 123.953 114.63 123.509 112.201C118.982 112.509 114.28 111.849 109.711 110.064C105.062 108.17 100.593 104.729 97.9959 99.6272C95.3198 94.5686 95.214 88.1629 97.0281 82.8013C98.7787 77.3803 101.756 72.6409 105.379 68.5616C106.31 67.4795 107.22 66.484 108.087 65.6346L110.705 62.9998C112.149 61.5553 113.482 60.0026 114.735 58.4174C114.328 54.6897 114.021 50.8863 113.926 46.9963C113.849 45.6281 113.775 44.2566 113.7 42.8817L113.7 42.8815L113.7 42.8814C113.64 41.7827 113.58 40.6819 113.519 39.5789C113.386 37.0307 113.259 34.3472 113.989 31.4906L114.121 30.955C114.137 30.9028 114.142 30.8753 114.148 30.8443L114.148 30.8442C114.157 30.8013 114.166 30.7514 114.206 30.6195L114.285 30.3977C114.305 30.3446 114.323 30.2925 114.342 30.2405L114.342 30.2405C114.425 30.0063 114.509 29.7721 114.656 29.4401C114.968 28.6772 115.306 28.0226 115.75 27.2922C116.681 25.9775 118.03 24.1218 121.002 23.6619C122.472 23.5159 123.922 24.2841 124.641 25.2201C125.392 26.1615 125.984 27.3626 126.275 27.9739C126.467 28.3622 126.643 28.7073 126.805 29.0241L126.805 29.0244C127.354 30.1023 127.737 30.8533 128.031 31.8693C129.797 36.9225 129.443 42.6519 128.893 48.2407C128.306 53.8836 125.81 59.2073 122.372 63.5463C120.997 65.429 119.426 67.1333 117.792 68.7293C118.04 70.5688 118.305 72.392 118.596 74.1828C118.744 75.1188 118.892 76.0439 119.045 76.9691C120.563 75.9033 122.314 75.0322 124.324 74.4858C127.745 73.5173 131.865 73.6742 135.499 75.3947ZM118.248 35.6192C118.162 35.8824 118.084 36.1201 118.014 36.3219H118.019C116.845 39.7304 116.221 43.3606 116.226 46.9747C116.237 49.9882 116.348 52.9746 116.528 55.9286C118.622 52.8448 120.5 49.6582 122.308 46.2822C124.175 42.7872 125.127 38.7998 125.196 34.8233C125.217 33.1461 124.969 30.5167 123.086 29.9054C120.398 29.031 119.003 33.307 118.248 35.6192ZM111.371 106.33C107.585 104.296 104.295 101.169 102.772 97.3062C101.227 93.4649 101.55 89.1475 103.301 85.2035C105.062 81.2702 108.061 77.6886 111.318 74.5237C112.091 73.7824 112.931 72.9926 113.936 72.1648L115.29 71.0016C115.618 70.7257 115.946 70.4443 116.274 70.1576C116.367 70.8055 116.46 71.4523 116.553 72.0966L116.554 72.0992L116.554 72.1002C116.668 72.8912 116.782 73.6782 116.893 74.4587C117.088 75.7193 117.284 76.9637 117.48 78.1972C114.624 80.7454 112.863 84.0078 112.159 86.8861C111.001 91.7661 112.043 95.5587 112.926 97.8093C113.386 98.9509 113.815 99.7679 114.143 100.314C114.465 100.85 114.629 101.12 114.629 101.12C114.629 101.12 114.307 99.8544 114.053 97.5118C113.868 95.2124 113.82 91.712 115.47 88.0763C116.11 86.5885 117.104 85.0953 118.395 83.7752C119.278 89.0015 120.172 94.0059 121.029 98.7561C121.523 101.593 122.039 104.339 122.536 106.982C122.682 107.762 122.827 108.533 122.97 109.295C118.955 109.225 114.909 108.262 111.371 106.33ZM135.816 106.055C139.323 103.993 141.697 100.444 142.21 96.7219C142.713 92.978 141.692 89.3423 139.91 86.5398C136.361 80.8266 130.469 78.7707 125.561 79.7824C123.424 80.2261 121.547 81.162 119.971 82.3685C120.97 87.9573 122.023 93.3026 123.054 98.345C123.832 102.138 124.562 105.768 125.223 109.241C129.036 108.987 132.727 107.91 135.816 106.055Z" fill="url(#paint0_linear_0_1053)"/>
</g>
<path fill-rule="evenodd" clip-rule="evenodd" d="M27.3414 66.1081C28.1691 66.7833 29.0071 67.1209 29.8553 67.1209C30.2947 67.1209 30.7086 66.9899 31.0969 66.7279C31.5363 66.4155 31.8327 65.9066 31.986 65.2012L32.0013 65.0349C32.0013 64.7829 31.8736 64.6368 31.6181 64.5965H31.5261C31.2911 64.5965 31.1429 64.7225 31.0816 64.9744V65.0349C30.9079 65.8209 30.4991 66.214 29.8553 66.214C29.6407 66.214 29.4159 66.1585 29.1808 66.0477C28.6903 65.8058 28.3071 65.5287 28.0312 65.2163C27.4998 64.6116 27.0705 63.8155 26.7435 62.8279C26.1713 61.0039 25.8851 58.9128 25.8851 56.5547C25.8851 53.3601 26.3245 50.3368 27.2034 47.4849C27.837 45.4291 28.6801 43.7612 29.7327 42.4814C29.8757 42.3101 29.9473 42.1186 29.9473 41.907C29.9473 41.6349 29.84 41.4031 29.6254 41.2116C29.4312 41.0705 29.2319 41 29.0275 41C28.8947 41 28.7618 41.0302 28.629 41.0907C28.1896 41.2217 27.8012 41.388 27.464 41.5895C25.7574 42.4562 24.2092 44.124 22.8194 46.593C21.3989 49.2333 20.6273 52.4128 20.5047 56.1314C20.0244 55.2143 19.4981 54.2922 18.9258 53.3651C18.3536 52.438 17.817 51.4907 17.3163 50.5233C16.8156 49.5558 16.4426 48.5531 16.1973 47.5151C16.0951 47.0717 16.044 46.6434 16.044 46.2302C16.044 45.8271 16.0951 45.4391 16.1973 45.0663C16.4119 44.3205 16.9433 43.7209 17.7915 43.2674C17.9652 43.1868 18.0521 43.0558 18.0521 42.8744C18.0521 42.8039 18.0316 42.7333 17.9908 42.6628C17.8988 42.5016 17.7659 42.4209 17.5922 42.4209C17.5207 42.4209 17.4492 42.436 17.3776 42.4663C16.2126 43.081 15.4462 43.862 15.0783 44.8093C14.8433 45.4442 14.7257 46.1093 14.7257 46.8047C14.7257 47.1574 14.7564 47.5151 14.8177 47.8779C15.0221 49.1477 15.3721 50.3116 15.8677 51.3698C16.3634 52.4279 16.9075 53.4407 17.5002 54.4081C17.9192 55.1236 18.3152 55.8417 18.6882 56.5622C19.0612 57.2828 19.3704 58.036 19.6156 58.8221C19.7587 59.2554 20.0499 59.4721 20.4894 59.4721C20.8368 59.4721 21.0974 59.3411 21.2711 59.0791C21.3836 58.9178 21.4398 58.7516 21.4398 58.5802L21.4244 58.4442L21.4091 57.2349C21.4091 55.0682 21.5982 53.1787 21.9763 51.5663C22.9164 47.495 24.6792 44.5674 27.2647 42.7837C26.3859 44.2349 25.6756 45.9229 25.134 47.8477C24.3676 50.5182 23.9843 53.2391 23.9843 56.0105C23.9843 58.9329 24.434 61.3969 25.3333 63.4023C25.8442 64.531 26.5136 65.4329 27.3414 66.1081ZM11.2154 66.9547C11.8797 67.3678 12.5082 67.5744 13.1009 67.5744C13.4075 67.5744 13.7038 67.519 13.9899 67.4081C15.39 66.7531 16.09 65.0702 16.09 62.3593C16.09 61.1601 16.0082 59.9659 15.8447 58.7767C15.6608 57.5271 15.4155 56.1415 15.1089 54.6198C14.4754 51.7981 14.1586 49.3845 14.1586 47.3791C14.1586 44.4062 15.0987 42.6477 16.9791 42.1035C17.2141 42.0531 17.3316 41.912 17.3316 41.6802C17.3316 41.4988 17.2652 41.3678 17.1324 41.2872C17.0404 41.2368 16.9535 41.2116 16.8718 41.2116L16.7491 41.2267C14.133 41.9624 12.7228 43.8872 12.5184 47.0012C12.4775 47.495 12.4571 47.9938 12.4571 48.4977C12.4775 50.2411 12.7636 52.4279 13.3155 55.0581L13.5148 56.086C13.5658 56.3581 13.6425 56.726 13.7447 57.1895C14.2556 59.457 14.552 61.1147 14.6338 62.1628C14.6849 62.8279 14.7104 63.3217 14.7104 63.6442C14.7104 64.1985 14.6644 64.7023 14.5724 65.1558C14.3578 66.1434 13.8571 66.6372 13.0702 66.6372C12.641 66.6372 12.1863 66.486 11.706 66.1837C10.6942 65.5388 9.80518 64.6116 9.03873 63.4023C8.30295 62.2434 7.93506 61.1752 7.93506 60.1977C7.93506 59.7039 8.10623 59.3209 8.44857 59.0488C8.79092 58.7767 9.284 58.6407 9.92781 58.6407L10.2191 58.6558C10.3519 58.6558 10.4643 58.6155 10.5563 58.5349C10.6483 58.4543 10.6994 58.3484 10.7096 58.2174C10.7096 58.0965 10.6687 57.9907 10.5869 57.9C10.5052 57.8093 10.4056 57.7589 10.288 57.7488C10.1705 57.7388 10.0555 57.7337 9.94314 57.7337C8.99275 57.7337 8.28762 57.9302 7.82776 58.3233C7.27592 58.7868 7 59.3864 7 60.1221C7 61.3012 7.41643 62.5508 8.2493 63.8709C9.08217 65.1911 10.0709 66.219 11.2154 66.9547Z" fill="white"/>
<path fill-rule="evenodd" clip-rule="evenodd" d="M27.3414 66.1081C28.1691 66.7833 29.0071 67.1209 29.8553 67.1209C30.2947 67.1209 30.7086 66.9899 31.0969 66.7279C31.5363 66.4155 31.8327 65.9066 31.986 65.2012L32.0013 65.0349C32.0013 64.7829 31.8736 64.6368 31.6181 64.5965H31.5261C31.2911 64.5965 31.1429 64.7225 31.0816 64.9744V65.0349C30.9079 65.8209 30.4991 66.214 29.8553 66.214C29.6407 66.214 29.4159 66.1585 29.1808 66.0477C28.6903 65.8058 28.3071 65.5287 28.0312 65.2163C27.4998 64.6116 27.0705 63.8155 26.7435 62.8279C26.1713 61.0039 25.8851 58.9128 25.8851 56.5547C25.8851 53.3601 26.3245 50.3368 27.2034 47.4849C27.837 45.4291 28.6801 43.7612 29.7327 42.4814C29.8757 42.3101 29.9473 42.1186 29.9473 41.907C29.9473 41.6349 29.84 41.4031 29.6254 41.2116C29.4312 41.0705 29.2319 41 29.0275 41C28.8947 41 28.7618 41.0302 28.629 41.0907C28.1896 41.2217 27.8012 41.388 27.464 41.5895C25.7574 42.4562 24.2092 44.124 22.8194 46.593C21.3989 49.2333 20.6273 52.4128 20.5047 56.1314C20.0244 55.2143 19.4981 54.2922 18.9258 53.3651C18.3536 52.438 17.817 51.4907 17.3163 50.5233C16.8156 49.5558 16.4426 48.5531 16.1973 47.5151C16.0951 47.0717 16.044 46.6434 16.044 46.2302C16.044 45.8271 16.0951 45.4391 16.1973 45.0663C16.4119 44.3205 16.9433 43.7209 17.7915 43.2674C17.9652 43.1868 18.0521 43.0558 18.0521 42.8744C18.0521 42.8039 18.0316 42.7333 17.9908 42.6628C17.8988 42.5016 17.7659 42.4209 17.5922 42.4209C17.5207 42.4209 17.4492 42.436 17.3776 42.4663C16.2126 43.081 15.4462 43.862 15.0783 44.8093C14.8433 45.4442 14.7257 46.1093 14.7257 46.8047C14.7257 47.1574 14.7564 47.5151 14.8177 47.8779C15.0221 49.1477 15.3721 50.3116 15.8677 51.3698C16.3634 52.4279 16.9075 53.4407 17.5002 54.4081C17.9192 55.1236 18.3152 55.8417 18.6882 56.5622C19.0612 57.2828 19.3704 58.036 19.6156 58.8221C19.7587 59.2554 20.0499 59.4721 20.4894 59.4721C20.8368 59.4721 21.0974 59.3411 21.2711 59.0791C21.3836 58.9178 21.4398 58.7516 21.4398 58.5802L21.4244 58.4442L21.4091 57.2349C21.4091 55.0682 21.5982 53.1787 21.9763 51.5663C22.9164 47.495 24.6792 44.5674 27.2647 42.7837C26.3859 44.2349 25.6756 45.9229 25.134 47.8477C24.3676 50.5182 23.9843 53.2391 23.9843 56.0105C23.9843 58.9329 24.434 61.3969 25.3333 63.4023C25.8442 64.531 26.5136 65.4329 27.3414 66.1081ZM11.2154 66.9547C11.8797 67.3678 12.5082 67.5744 13.1009 67.5744C13.4075 67.5744 13.7038 67.519 13.9899 67.4081C15.39 66.7531 16.09 65.0702 16.09 62.3593C16.09 61.1601 16.0082 59.9659 15.8447 58.7767C15.6608 57.5271 15.4155 56.1415 15.1089 54.6198C14.4754 51.7981 14.1586 49.3845 14.1586 47.3791C14.1586 44.4062 15.0987 42.6477 16.9791 42.1035C17.2141 42.0531 17.3316 41.912 17.3316 41.6802C17.3316 41.4988 17.2652 41.3678 17.1324 41.2872C17.0404 41.2368 16.9535 41.2116 16.8718 41.2116L16.7491 41.2267C14.133 41.9624 12.7228 43.8872 12.5184 47.0012C12.4775 47.495 12.4571 47.9938 12.4571 48.4977C12.4775 50.2411 12.7636 52.4279 13.3155 55.0581L13.5148 56.086C13.5658 56.3581 13.6425 56.726 13.7447 57.1895C14.2556 59.457 14.552 61.1147 14.6338 62.1628C14.6849 62.8279 14.7104 63.3217 14.7104 63.6442C14.7104 64.1985 14.6644 64.7023 14.5724 65.1558C14.3578 66.1434 13.8571 66.6372 13.0702 66.6372C12.641 66.6372 12.1863 66.486 11.706 66.1837C10.6942 65.5388 9.80518 64.6116 9.03873 63.4023C8.30295 62.2434 7.93506 61.1752 7.93506 60.1977C7.93506 59.7039 8.10623 59.3209 8.44857 59.0488C8.79092 58.7767 9.284 58.6407 9.92781 58.6407L10.2191 58.6558C10.3519 58.6558 10.4643 58.6155 10.5563 58.5349C10.6483 58.4543 10.6994 58.3484 10.7096 58.2174C10.7096 58.0965 10.6687 57.9907 10.5869 57.9C10.5052 57.8093 10.4056 57.7589 10.288 57.7488C10.1705 57.7388 10.0555 57.7337 9.94314 57.7337C8.99275 57.7337 8.28762 57.9302 7.82776 58.3233C7.27592 58.7868 7 59.3864 7 60.1221C7 61.3012 7.41643 62.5508 8.2493 63.8709C9.08217 65.1911 10.0709 66.219 11.2154 66.9547Z" fill="url(#paint1_linear_0_1053)"/>
<path d="M34.6532 67.3627C34.5919 67.3627 34.4028 67.3375 34.086 67.2871C33.7692 67.2367 33.432 66.8588 33.0743 66.1534C32.7473 65.3976 32.5838 64.5108 32.5838 63.4929V63.236C32.6451 61.5832 32.9211 60.2681 33.4116 59.2906C33.6057 58.9681 33.8817 58.8069 34.2393 58.8069C34.3824 58.8069 34.5255 58.8422 34.6685 58.9127C34.9956 59.1042 35.1591 59.3712 35.1591 59.7139C35.1591 59.8549 35.1233 59.996 35.0518 60.1371C34.5306 61.2356 34.27 62.6767 34.27 64.4604C34.27 65.5487 34.3926 66.2239 34.6379 66.486C34.6788 66.5363 34.7247 66.5615 34.7758 66.5615C35.1335 66.5615 35.6445 65.4832 36.3087 63.3267C36.5642 62.4902 36.8401 61.6916 37.1365 60.9307C37.4328 60.1699 37.7752 59.5829 38.1635 59.1697C38.3577 58.9278 38.608 58.8069 38.9146 58.8069C39.0577 58.8069 39.1957 58.8422 39.3285 58.9127C39.6657 59.0941 39.8344 59.3611 39.8344 59.7139C39.8344 59.8549 39.7986 59.996 39.7271 60.1371C39.4614 60.6007 39.1854 61.4774 38.8993 62.7673C38.7358 63.4929 38.654 64.1278 38.654 64.672C38.654 65.0953 38.746 65.4026 38.93 65.5941C39.0219 65.6848 39.1394 65.7301 39.2825 65.7301C39.4767 65.7301 39.7271 65.6495 40.0336 65.4883C40.6672 65.1053 41.1986 64.3999 41.6278 63.372C41.8629 62.8177 42.0059 62.3844 42.057 62.072C42.1183 61.8301 42.2716 61.7092 42.5169 61.7092H42.5935C42.849 61.7697 42.9768 61.9057 42.9768 62.1173C42.9768 62.3794 42.8081 62.9135 42.4709 63.7197C41.9804 64.9189 41.3264 65.7705 40.5088 66.2743C40.0796 66.5061 39.6811 66.622 39.3132 66.622C38.3117 66.622 37.6474 65.9922 37.3204 64.7325C37.2182 64.3092 37.1671 63.8557 37.1671 63.372V63.236L37.0752 63.5534C36.7277 64.7123 36.37 65.6596 36.0021 66.3953C35.6036 67.0402 35.1539 67.3627 34.6532 67.3627Z" fill="white"/>
<path d="M34.6532 67.3627C34.5919 67.3627 34.4028 67.3375 34.086 67.2871C33.7692 67.2367 33.432 66.8588 33.0743 66.1534C32.7473 65.3976 32.5838 64.5108 32.5838 63.4929V63.236C32.6451 61.5832 32.9211 60.2681 33.4116 59.2906C33.6057 58.9681 33.8817 58.8069 34.2393 58.8069C34.3824 58.8069 34.5255 58.8422 34.6685 58.9127C34.9956 59.1042 35.1591 59.3712 35.1591 59.7139C35.1591 59.8549 35.1233 59.996 35.0518 60.1371C34.5306 61.2356 34.27 62.6767 34.27 64.4604C34.27 65.5487 34.3926 66.2239 34.6379 66.486C34.6788 66.5363 34.7247 66.5615 34.7758 66.5615C35.1335 66.5615 35.6445 65.4832 36.3087 63.3267C36.5642 62.4902 36.8401 61.6916 37.1365 60.9307C37.4328 60.1699 37.7752 59.5829 38.1635 59.1697C38.3577 58.9278 38.608 58.8069 38.9146 58.8069C39.0577 58.8069 39.1957 58.8422 39.3285 58.9127C39.6657 59.0941 39.8344 59.3611 39.8344 59.7139C39.8344 59.8549 39.7986 59.996 39.7271 60.1371C39.4614 60.6007 39.1854 61.4774 38.8993 62.7673C38.7358 63.4929 38.654 64.1278 38.654 64.672C38.654 65.0953 38.746 65.4026 38.93 65.5941C39.0219 65.6848 39.1394 65.7301 39.2825 65.7301C39.4767 65.7301 39.7271 65.6495 40.0336 65.4883C40.6672 65.1053 41.1986 64.3999 41.6278 63.372C41.8629 62.8177 42.0059 62.3844 42.057 62.072C42.1183 61.8301 42.2716 61.7092 42.5169 61.7092H42.5935C42.849 61.7697 42.9768 61.9057 42.9768 62.1173C42.9768 62.3794 42.8081 62.9135 42.4709 63.7197C41.9804 64.9189 41.3264 65.7705 40.5088 66.2743C40.0796 66.5061 39.6811 66.622 39.3132 66.622C38.3117 66.622 37.6474 65.9922 37.3204 64.7325C37.2182 64.3092 37.1671 63.8557 37.1671 63.372V63.236L37.0752 63.5534C36.7277 64.7123 36.37 65.6596 36.0021 66.3953C35.6036 67.0402 35.1539 67.3627 34.6532 67.3627Z" fill="url(#paint2_linear_0_1053)"/>
<path fill-rule="evenodd" clip-rule="evenodd" d="M42.3943 69.2372C42.8439 69.862 43.4622 70.1744 44.2491 70.1744C44.8724 70.1744 45.5316 69.9779 46.2265 69.5849C47.1462 69.0608 47.8871 68.3504 48.4492 67.4535C48.8068 66.8791 48.9857 66.2946 48.9857 65.7C48.9857 64.7124 48.582 63.9213 47.7747 63.3267C48.6331 62.974 49.3995 62.7322 50.074 62.6011C50.3193 62.5407 50.4419 62.3895 50.4419 62.1477C50.4419 61.9864 50.3755 61.8655 50.2426 61.7849C50.1609 61.7244 50.074 61.6942 49.982 61.6942L49.8901 61.7093C49.0214 61.8806 48.0148 62.2232 46.8703 62.7372C46.3695 62.4651 45.8509 62.2132 45.3144 61.9814C44.7779 61.7496 44.2465 61.4649 43.7202 61.1273C43.1939 60.7897 42.8797 60.4244 42.7775 60.0314V59.9407C42.7775 59.6686 42.9257 59.4192 43.222 59.1924C43.5184 58.9657 43.8505 58.7944 44.2184 58.6785C44.5863 58.5626 44.8775 58.5046 45.0921 58.5046C45.7257 58.5046 46.1345 58.807 46.3184 59.4116C46.3798 59.6434 46.5279 59.7593 46.763 59.7593C46.9367 59.7593 47.0645 59.6938 47.1462 59.5628C47.1973 59.4822 47.2228 59.4015 47.2228 59.3209L47.2075 59.2C46.9418 58.1318 46.2265 57.5977 45.0615 57.5977C44.2848 57.5977 43.5541 57.8194 42.8695 58.2628C42.1235 58.7364 41.6534 59.3511 41.4592 60.107C41.4286 60.238 41.4132 60.374 41.4132 60.5151C41.4132 61.1298 41.7607 61.7597 42.4556 62.4046C43.0994 62.9186 43.9169 63.3771 44.9082 63.7802C43.9272 64.3949 43.1505 65.0953 42.5782 65.8814C42.1694 66.5364 41.9651 67.1713 41.9651 67.786C41.9651 68.2697 42.103 68.7434 42.3789 69.207L42.3943 69.2372ZM45.6133 68.8139C45.1943 69.1263 44.76 69.2825 44.3104 69.2825C43.779 69.2725 43.3958 69.086 43.1607 68.7232C42.9665 68.4209 42.8695 68.0984 42.8695 67.7558C42.8797 67.3225 43.0381 66.869 43.3447 66.3953C43.9272 65.5992 44.7651 64.8887 45.8586 64.2639C46.717 64.7174 47.1513 65.3271 47.1615 66.093C47.1615 66.4659 47.0696 66.8539 46.8856 67.257C46.5893 67.8918 46.1652 68.4108 45.6133 68.8139Z" fill="white"/>
<path fill-rule="evenodd" clip-rule="evenodd" d="M42.3943 69.2372C42.8439 69.862 43.4622 70.1744 44.2491 70.1744C44.8724 70.1744 45.5316 69.9779 46.2265 69.5849C47.1462 69.0608 47.8871 68.3504 48.4492 67.4535C48.8068 66.8791 48.9857 66.2946 48.9857 65.7C48.9857 64.7124 48.582 63.9213 47.7747 63.3267C48.6331 62.974 49.3995 62.7322 50.074 62.6011C50.3193 62.5407 50.4419 62.3895 50.4419 62.1477C50.4419 61.9864 50.3755 61.8655 50.2426 61.7849C50.1609 61.7244 50.074 61.6942 49.982 61.6942L49.8901 61.7093C49.0214 61.8806 48.0148 62.2232 46.8703 62.7372C46.3695 62.4651 45.8509 62.2132 45.3144 61.9814C44.7779 61.7496 44.2465 61.4649 43.7202 61.1273C43.1939 60.7897 42.8797 60.4244 42.7775 60.0314V59.9407C42.7775 59.6686 42.9257 59.4192 43.222 59.1924C43.5184 58.9657 43.8505 58.7944 44.2184 58.6785C44.5863 58.5626 44.8775 58.5046 45.0921 58.5046C45.7257 58.5046 46.1345 58.807 46.3184 59.4116C46.3798 59.6434 46.5279 59.7593 46.763 59.7593C46.9367 59.7593 47.0645 59.6938 47.1462 59.5628C47.1973 59.4822 47.2228 59.4015 47.2228 59.3209L47.2075 59.2C46.9418 58.1318 46.2265 57.5977 45.0615 57.5977C44.2848 57.5977 43.5541 57.8194 42.8695 58.2628C42.1235 58.7364 41.6534 59.3511 41.4592 60.107C41.4286 60.238 41.4132 60.374 41.4132 60.5151C41.4132 61.1298 41.7607 61.7597 42.4556 62.4046C43.0994 62.9186 43.9169 63.3771 44.9082 63.7802C43.9272 64.3949 43.1505 65.0953 42.5782 65.8814C42.1694 66.5364 41.9651 67.1713 41.9651 67.786C41.9651 68.2697 42.103 68.7434 42.3789 69.207L42.3943 69.2372ZM45.6133 68.8139C45.1943 69.1263 44.76 69.2825 44.3104 69.2825C43.779 69.2725 43.3958 69.086 43.1607 68.7232C42.9665 68.4209 42.8695 68.0984 42.8695 67.7558C42.8797 67.3225 43.0381 66.869 43.3447 66.3953C43.9272 65.5992 44.7651 64.8887 45.8586 64.2639C46.717 64.7174 47.1513 65.3271 47.1615 66.093C47.1615 66.4659 47.0696 66.8539 46.8856 67.257C46.5893 67.8918 46.1652 68.4108 45.6133 68.8139Z" fill="url(#paint3_linear_0_1053)"/>
<path fill-rule="evenodd" clip-rule="evenodd" d="M51.101 58.2929C51.3156 58.5046 51.5762 58.6104 51.8828 58.6104C52.1792 58.6104 52.4346 58.5046 52.6493 58.2929C52.8639 58.0813 52.9712 57.8294 52.9712 57.5371C52.9712 57.2348 52.8639 56.9803 52.6493 56.7738C52.4346 56.5672 52.1792 56.4639 51.8828 56.4639C51.5762 56.4639 51.3156 56.5672 51.101 56.7738C50.8864 56.9803 50.7791 57.2348 50.7791 57.5371C50.7791 57.8294 50.8864 58.0813 51.101 58.2929ZM51.9748 67.2871H52.1434C53.0018 67.2468 53.7989 66.8185 54.5347 66.0022C55.4238 65.0046 56.1238 63.7701 56.6347 62.2988C56.6552 62.2484 56.6654 62.198 56.6654 62.1476C56.6654 61.946 56.5632 61.805 56.3588 61.7243C56.3077 61.7042 56.2566 61.6941 56.2055 61.6941C55.9909 61.6941 55.8428 61.7949 55.761 61.9964C55.3318 63.3166 54.6931 64.4503 53.8449 65.3976C53.5588 65.71 53.2522 65.9569 52.9252 66.1383C52.6493 66.2995 52.3989 66.3852 52.1741 66.3953C51.5302 66.3953 51.2083 65.7201 51.2083 64.3697C51.2083 63.886 51.2645 63.3569 51.377 62.7825C51.6018 61.6034 51.8675 60.7216 52.1741 60.1371C52.2456 59.996 52.2814 59.855 52.2814 59.7139C52.2814 59.3712 52.1179 59.1042 51.7908 58.9127C51.6478 58.8422 51.5047 58.8069 51.3616 58.8069C51.004 58.8069 50.728 58.9681 50.5339 59.2906C49.9105 60.51 49.5988 61.8856 49.5988 63.4174C49.5988 64.6065 49.8441 65.5991 50.3346 66.3953C50.7638 66.9898 51.3105 67.2871 51.9748 67.2871Z" fill="white"/>
<path fill-rule="evenodd" clip-rule="evenodd" d="M51.101 58.2929C51.3156 58.5046 51.5762 58.6104 51.8828 58.6104C52.1792 58.6104 52.4346 58.5046 52.6493 58.2929C52.8639 58.0813 52.9712 57.8294 52.9712 57.5371C52.9712 57.2348 52.8639 56.9803 52.6493 56.7738C52.4346 56.5672 52.1792 56.4639 51.8828 56.4639C51.5762 56.4639 51.3156 56.5672 51.101 56.7738C50.8864 56.9803 50.7791 57.2348 50.7791 57.5371C50.7791 57.8294 50.8864 58.0813 51.101 58.2929ZM51.9748 67.2871H52.1434C53.0018 67.2468 53.7989 66.8185 54.5347 66.0022C55.4238 65.0046 56.1238 63.7701 56.6347 62.2988C56.6552 62.2484 56.6654 62.198 56.6654 62.1476C56.6654 61.946 56.5632 61.805 56.3588 61.7243C56.3077 61.7042 56.2566 61.6941 56.2055 61.6941C55.9909 61.6941 55.8428 61.7949 55.761 61.9964C55.3318 63.3166 54.6931 64.4503 53.8449 65.3976C53.5588 65.71 53.2522 65.9569 52.9252 66.1383C52.6493 66.2995 52.3989 66.3852 52.1741 66.3953C51.5302 66.3953 51.2083 65.7201 51.2083 64.3697C51.2083 63.886 51.2645 63.3569 51.377 62.7825C51.6018 61.6034 51.8675 60.7216 52.1741 60.1371C52.2456 59.996 52.2814 59.855 52.2814 59.7139C52.2814 59.3712 52.1179 59.1042 51.7908 58.9127C51.6478 58.8422 51.5047 58.8069 51.3616 58.8069C51.004 58.8069 50.728 58.9681 50.5339 59.2906C49.9105 60.51 49.5988 61.8856 49.5988 63.4174C49.5988 64.6065 49.8441 65.5991 50.3346 66.3953C50.7638 66.9898 51.3105 67.2871 51.9748 67.2871Z" fill="url(#paint4_linear_0_1053)"/>
<path d="M58.5508 66.7884H58.4589C57.7844 66.7884 57.1917 66.5918 56.6807 66.1988C55.9143 65.6143 55.5311 64.7023 55.5311 63.4628C55.5311 62.445 55.8172 61.5027 56.3895 60.636C56.8391 59.9608 57.4012 59.4368 58.0757 59.0639C58.5253 58.812 59.0005 58.686 59.5012 58.686C60.2064 58.686 60.7224 58.8876 61.0494 59.2907C61.264 59.5426 61.3867 59.85 61.4173 60.2128C61.4173 60.3035 61.379 60.3992 61.3024 60.5C61.2257 60.6008 61.1057 60.6512 60.9421 60.6512C60.7071 60.6512 60.5589 60.5252 60.4976 60.2732C60.4261 59.85 60.2012 59.6384 59.8231 59.6384C59.2304 59.6384 58.7246 59.9608 58.3056 60.6058C57.8253 61.3415 57.5238 62.193 57.4012 63.1605C57.3705 63.3721 57.3552 63.5938 57.3552 63.8256C57.3552 64.4302 57.4932 64.9391 57.7691 65.3523C57.9735 65.6647 58.2903 65.8209 58.7195 65.8209C59.6699 65.8209 60.6356 65.307 61.6166 64.2791C62.1787 63.6946 62.7152 62.9085 63.2261 61.9209C63.3181 61.7597 63.451 61.6791 63.6247 61.6791C63.7064 61.6791 63.7831 61.6942 63.8546 61.7244C64.0283 61.8151 64.1152 61.9512 64.1152 62.1325C64.1152 62.193 64.0948 62.2585 64.0539 62.3291C63.5021 63.3973 62.9196 64.2488 62.3064 64.8837C61.5911 65.6294 60.8859 66.1434 60.191 66.4256C59.5983 66.6473 59.0516 66.7682 58.5508 66.7884Z" fill="white"/>
<path d="M58.5508 66.7884H58.4589C57.7844 66.7884 57.1917 66.5918 56.6807 66.1988C55.9143 65.6143 55.5311 64.7023 55.5311 63.4628C55.5311 62.445 55.8172 61.5027 56.3895 60.636C56.8391 59.9608 57.4012 59.4368 58.0757 59.0639C58.5253 58.812 59.0005 58.686 59.5012 58.686C60.2064 58.686 60.7224 58.8876 61.0494 59.2907C61.264 59.5426 61.3867 59.85 61.4173 60.2128C61.4173 60.3035 61.379 60.3992 61.3024 60.5C61.2257 60.6008 61.1057 60.6512 60.9421 60.6512C60.7071 60.6512 60.5589 60.5252 60.4976 60.2732C60.4261 59.85 60.2012 59.6384 59.8231 59.6384C59.2304 59.6384 58.7246 59.9608 58.3056 60.6058C57.8253 61.3415 57.5238 62.193 57.4012 63.1605C57.3705 63.3721 57.3552 63.5938 57.3552 63.8256C57.3552 64.4302 57.4932 64.9391 57.7691 65.3523C57.9735 65.6647 58.2903 65.8209 58.7195 65.8209C59.6699 65.8209 60.6356 65.307 61.6166 64.2791C62.1787 63.6946 62.7152 62.9085 63.2261 61.9209C63.3181 61.7597 63.451 61.6791 63.6247 61.6791C63.7064 61.6791 63.7831 61.6942 63.8546 61.7244C64.0283 61.8151 64.1152 61.9512 64.1152 62.1325C64.1152 62.193 64.0948 62.2585 64.0539 62.3291C63.5021 63.3973 62.9196 64.2488 62.3064 64.8837C61.5911 65.6294 60.8859 66.1434 60.191 66.4256C59.5983 66.6473 59.0516 66.7682 58.5508 66.7884Z" fill="url(#paint5_linear_0_1053)"/>
<path fill-rule="evenodd" clip-rule="evenodd" d="M70.0628 68.4662H70.1088C71.3351 68.4662 72.4592 67.6197 73.4811 65.9266C74.1045 64.7879 74.6104 63.5635 74.9987 62.2534L75.014 62.1173C75.014 61.8956 74.9067 61.7495 74.6921 61.679L74.5695 61.6638C74.3344 61.6638 74.1811 61.7697 74.1096 61.9813C73.7826 63.1906 73.3023 64.3545 72.6687 65.4731C72.1271 66.3801 71.5497 67.0049 70.9365 67.3476C70.6402 67.5189 70.3643 67.6045 70.1088 67.6045C69.3934 67.5743 69.0358 66.9898 69.0358 65.8511C69.0358 64.9038 69.2504 63.8053 69.6796 62.5557C69.9351 61.81 70.1752 61.2456 70.4 60.8627C70.492 60.7115 70.538 60.5553 70.538 60.3941C70.538 60.0716 70.3898 59.8146 70.0935 59.6231C69.93 59.5425 69.7664 59.5022 69.6029 59.5022C69.2759 59.5022 69.0153 59.6483 68.8212 59.9406C68.7292 60.0817 68.6423 60.2379 68.5606 60.4092C67.6408 59.7138 66.8233 59.3561 66.108 59.3359C65.9547 59.3359 65.8065 59.3511 65.6634 59.3813C64.8561 59.5324 64.2225 59.9658 63.7627 60.6813C63.1802 61.5681 62.8889 62.5104 62.8889 63.508C62.8991 64.1026 63.0269 64.5964 63.2721 64.9894C63.4867 65.3119 63.7882 65.4731 64.1765 65.4731C64.3911 65.4731 64.6364 65.4278 64.9123 65.3371C65.4642 65.1356 66.0671 64.4855 66.7211 63.3871C66.7313 63.3468 66.8437 63.1704 67.0583 62.858C67.4365 62.2433 67.7686 61.8704 68.0547 61.7394C67.789 62.6867 67.6562 63.6542 67.6562 64.6418V64.8534C67.7175 66.3549 68.0803 67.3879 68.7445 67.9522C69.1533 68.2949 69.5927 68.4662 70.0628 68.4662ZM66.016 63.0092C65.4335 63.9867 64.9838 64.4755 64.6671 64.4755C64.4627 64.4755 64.3605 64.2588 64.3605 63.8255C64.3605 63.1604 64.5853 62.4499 65.0349 61.6941C65.3415 61.1801 65.7401 60.8224 66.2306 60.6208C66.3839 60.5604 66.5576 60.5301 66.7518 60.5301C67.1197 60.5301 67.5182 60.6662 67.9474 60.9383C67.416 61.0995 66.9 61.5883 66.3992 62.4045V62.4197C66.389 62.4197 66.3839 62.4247 66.3839 62.4348L66.0313 62.979L66.016 63.0092Z" fill="white"/>
<path fill-rule="evenodd" clip-rule="evenodd" d="M70.0628 68.4662H70.1088C71.3351 68.4662 72.4592 67.6197 73.4811 65.9266C74.1045 64.7879 74.6104 63.5635 74.9987 62.2534L75.014 62.1173C75.014 61.8956 74.9067 61.7495 74.6921 61.679L74.5695 61.6638C74.3344 61.6638 74.1811 61.7697 74.1096 61.9813C73.7826 63.1906 73.3023 64.3545 72.6687 65.4731C72.1271 66.3801 71.5497 67.0049 70.9365 67.3476C70.6402 67.5189 70.3643 67.6045 70.1088 67.6045C69.3934 67.5743 69.0358 66.9898 69.0358 65.8511C69.0358 64.9038 69.2504 63.8053 69.6796 62.5557C69.9351 61.81 70.1752 61.2456 70.4 60.8627C70.492 60.7115 70.538 60.5553 70.538 60.3941C70.538 60.0716 70.3898 59.8146 70.0935 59.6231C69.93 59.5425 69.7664 59.5022 69.6029 59.5022C69.2759 59.5022 69.0153 59.6483 68.8212 59.9406C68.7292 60.0817 68.6423 60.2379 68.5606 60.4092C67.6408 59.7138 66.8233 59.3561 66.108 59.3359C65.9547 59.3359 65.8065 59.3511 65.6634 59.3813C64.8561 59.5324 64.2225 59.9658 63.7627 60.6813C63.1802 61.5681 62.8889 62.5104 62.8889 63.508C62.8991 64.1026 63.0269 64.5964 63.2721 64.9894C63.4867 65.3119 63.7882 65.4731 64.1765 65.4731C64.3911 65.4731 64.6364 65.4278 64.9123 65.3371C65.4642 65.1356 66.0671 64.4855 66.7211 63.3871C66.7313 63.3468 66.8437 63.1704 67.0583 62.858C67.4365 62.2433 67.7686 61.8704 68.0547 61.7394C67.789 62.6867 67.6562 63.6542 67.6562 64.6418V64.8534C67.7175 66.3549 68.0803 67.3879 68.7445 67.9522C69.1533 68.2949 69.5927 68.4662 70.0628 68.4662ZM66.016 63.0092C65.4335 63.9867 64.9838 64.4755 64.6671 64.4755C64.4627 64.4755 64.3605 64.2588 64.3605 63.8255C64.3605 63.1604 64.5853 62.4499 65.0349 61.6941C65.3415 61.1801 65.7401 60.8224 66.2306 60.6208C66.3839 60.5604 66.5576 60.5301 66.7518 60.5301C67.1197 60.5301 67.5182 60.6662 67.9474 60.9383C67.416 61.0995 66.9 61.5883 66.3992 62.4045V62.4197C66.389 62.4197 66.3839 62.4247 66.3839 62.4348L66.0313 62.979L66.016 63.0092Z" fill="url(#paint6_linear_0_1053)"/>
<path fill-rule="evenodd" clip-rule="evenodd" d="M76.317 67.7406C76.7462 68.1034 77.252 68.2948 77.8345 68.315C78.6418 68.315 79.4236 68.0076 80.1798 67.3929C81.6514 66.1433 82.6784 64.4352 83.2609 62.2685L83.2762 62.1627C83.2762 61.9309 83.1536 61.7848 82.9084 61.7243L82.8164 61.7092C82.5813 61.7092 82.4281 61.8301 82.3565 62.072C81.8353 64.0371 80.9156 65.579 79.5973 66.6976C79.0046 67.1712 78.4732 67.408 78.0031 67.408C76.9097 67.408 76.2097 66.2138 75.9031 63.8255C75.7498 62.7069 75.6731 61.5127 75.6731 60.2429C76.4192 59.6987 77.3721 58.7665 78.532 57.4464C79.6919 56.1262 80.6857 54.7456 81.5134 53.3045V53.2894C82.5149 51.4855 83.0157 49.8731 83.0157 48.4522C83.0157 48.3111 83.0105 48.1751 83.0003 48.0441C82.8981 47.0867 82.6171 46.3258 82.1572 45.7615C81.6054 45.0561 80.8696 44.7034 79.9499 44.7034C79.3061 44.7034 78.7185 44.8797 78.1871 45.2324C77.4206 45.7464 76.7743 46.4291 76.248 47.2807C75.7217 48.1322 75.341 48.946 75.106 49.722C74.2476 52.4429 73.8184 55.4712 73.8184 58.8069C73.8184 60.52 73.9563 62.0569 74.2322 63.4173C74.641 65.4429 75.3359 66.884 76.317 67.7406ZM78.2024 56.4185C77.2418 57.5472 76.4038 58.429 75.6885 59.0638C75.7702 56.6251 75.9133 54.8262 76.1177 53.6673C76.3629 52.1758 76.6286 51.0119 76.9148 50.1755C77.4257 48.3817 78.044 47.0766 78.7696 46.2603C79.1477 45.8472 79.582 45.6355 80.0725 45.6255C80.6244 45.6255 81.0766 45.8472 81.4291 46.2906C81.7817 46.734 81.9937 47.3437 82.0653 48.1196L82.0806 48.4371C82.0806 49.7069 81.6207 51.1832 80.701 52.8662L80.6857 52.8964C79.9908 54.1158 79.163 55.2898 78.2024 56.4185Z" fill="white"/>
<path fill-rule="evenodd" clip-rule="evenodd" d="M76.317 67.7406C76.7462 68.1034 77.252 68.2948 77.8345 68.315C78.6418 68.315 79.4236 68.0076 80.1798 67.3929C81.6514 66.1433 82.6784 64.4352 83.2609 62.2685L83.2762 62.1627C83.2762 61.9309 83.1536 61.7848 82.9084 61.7243L82.8164 61.7092C82.5813 61.7092 82.4281 61.8301 82.3565 62.072C81.8353 64.0371 80.9156 65.579 79.5973 66.6976C79.0046 67.1712 78.4732 67.408 78.0031 67.408C76.9097 67.408 76.2097 66.2138 75.9031 63.8255C75.7498 62.7069 75.6731 61.5127 75.6731 60.2429C76.4192 59.6987 77.3721 58.7665 78.532 57.4464C79.6919 56.1262 80.6857 54.7456 81.5134 53.3045V53.2894C82.5149 51.4855 83.0157 49.8731 83.0157 48.4522C83.0157 48.3111 83.0105 48.1751 83.0003 48.0441C82.8981 47.0867 82.6171 46.3258 82.1572 45.7615C81.6054 45.0561 80.8696 44.7034 79.9499 44.7034C79.3061 44.7034 78.7185 44.8797 78.1871 45.2324C77.4206 45.7464 76.7743 46.4291 76.248 47.2807C75.7217 48.1322 75.341 48.946 75.106 49.722C74.2476 52.4429 73.8184 55.4712 73.8184 58.8069C73.8184 60.52 73.9563 62.0569 74.2322 63.4173C74.641 65.4429 75.3359 66.884 76.317 67.7406ZM78.2024 56.4185C77.2418 57.5472 76.4038 58.429 75.6885 59.0638C75.7702 56.6251 75.9133 54.8262 76.1177 53.6673C76.3629 52.1758 76.6286 51.0119 76.9148 50.1755C77.4257 48.3817 78.044 47.0766 78.7696 46.2603C79.1477 45.8472 79.582 45.6355 80.0725 45.6255C80.6244 45.6255 81.0766 45.8472 81.4291 46.2906C81.7817 46.734 81.9937 47.3437 82.0653 48.1196L82.0806 48.4371C82.0806 49.7069 81.6207 51.1832 80.701 52.8662L80.6857 52.8964C79.9908 54.1158 79.163 55.2898 78.2024 56.4185Z" fill="url(#paint7_linear_0_1053)"/>
<path fill-rule="evenodd" clip-rule="evenodd" d="M84.5945 67.7406C85.0237 68.1034 85.5296 68.2948 86.1121 68.315C86.9194 68.315 87.7012 68.0076 88.4574 67.3929C89.929 66.1433 90.956 64.4352 91.5385 62.2685L91.5538 62.1627C91.5538 61.9309 91.4312 61.7848 91.1859 61.7243L91.094 61.7092C90.8589 61.7092 90.7056 61.8301 90.6341 62.072C90.1129 64.0371 89.1932 65.579 87.8749 66.6976C87.2822 67.1712 86.7508 67.408 86.2807 67.408C85.1872 67.408 84.4872 66.2138 84.1807 63.8255C84.0274 62.7069 83.9507 61.5127 83.9507 60.2429C84.6967 59.6987 85.6497 58.7665 86.8095 57.4464C87.9694 56.1262 88.9632 54.7456 89.791 53.3045V53.2894C90.7925 51.4855 91.2932 49.8731 91.2932 48.4522C91.2932 48.3111 91.2881 48.1751 91.2779 48.0441C91.1757 47.0867 90.8947 46.3258 90.4348 45.7615C89.883 45.0561 89.1472 44.7034 88.2275 44.7034C87.5837 44.7034 86.996 44.8797 86.4646 45.2324C85.6982 45.7464 85.0518 46.4291 84.5256 47.2807C83.9993 48.1322 83.6186 48.946 83.3836 49.722C82.5251 52.4429 82.0959 55.4712 82.0959 58.8069C82.0959 60.52 82.2339 62.0569 82.5098 63.4173C82.9186 65.4429 83.6135 66.884 84.5945 67.7406ZM86.48 56.4185C85.5194 57.5472 84.6814 58.429 83.966 59.0638C84.0478 56.6251 84.1909 54.8262 84.3953 53.6673C84.6405 52.1758 84.9062 51.0119 85.1924 50.1755C85.7033 48.3817 86.3216 47.0766 87.0471 46.2603C87.4253 45.8472 87.8596 45.6355 88.3501 45.6255C88.9019 45.6255 89.3541 45.8472 89.7067 46.2906C90.0593 46.734 90.2713 47.3437 90.3428 48.1196L90.3582 48.4371C90.3582 49.7069 89.8983 51.1832 88.9786 52.8662L88.9632 52.8964C88.2683 54.1158 87.4406 55.2898 86.48 56.4185Z" fill="white"/>
<path fill-rule="evenodd" clip-rule="evenodd" d="M84.5945 67.7406C85.0237 68.1034 85.5296 68.2948 86.1121 68.315C86.9194 68.315 87.7012 68.0076 88.4574 67.3929C89.929 66.1433 90.956 64.4352 91.5385 62.2685L91.5538 62.1627C91.5538 61.9309 91.4312 61.7848 91.1859 61.7243L91.094 61.7092C90.8589 61.7092 90.7056 61.8301 90.6341 62.072C90.1129 64.0371 89.1932 65.579 87.8749 66.6976C87.2822 67.1712 86.7508 67.408 86.2807 67.408C85.1872 67.408 84.4872 66.2138 84.1807 63.8255C84.0274 62.7069 83.9507 61.5127 83.9507 60.2429C84.6967 59.6987 85.6497 58.7665 86.8095 57.4464C87.9694 56.1262 88.9632 54.7456 89.791 53.3045V53.2894C90.7925 51.4855 91.2932 49.8731 91.2932 48.4522C91.2932 48.3111 91.2881 48.1751 91.2779 48.0441C91.1757 47.0867 90.8947 46.3258 90.4348 45.7615C89.883 45.0561 89.1472 44.7034 88.2275 44.7034C87.5837 44.7034 86.996 44.8797 86.4646 45.2324C85.6982 45.7464 85.0518 46.4291 84.5256 47.2807C83.9993 48.1322 83.6186 48.946 83.3836 49.722C82.5251 52.4429 82.0959 55.4712 82.0959 58.8069C82.0959 60.52 82.2339 62.0569 82.5098 63.4173C82.9186 65.4429 83.6135 66.884 84.5945 67.7406ZM86.48 56.4185C85.5194 57.5472 84.6814 58.429 83.966 59.0638C84.0478 56.6251 84.1909 54.8262 84.3953 53.6673C84.6405 52.1758 84.9062 51.0119 85.1924 50.1755C85.7033 48.3817 86.3216 47.0766 87.0471 46.2603C87.4253 45.8472 87.8596 45.6355 88.3501 45.6255C88.9019 45.6255 89.3541 45.8472 89.7067 46.2906C90.0593 46.734 90.2713 47.3437 90.3428 48.1196L90.3582 48.4371C90.3582 49.7069 89.8983 51.1832 88.9786 52.8662L88.9632 52.8964C88.2683 54.1158 87.4406 55.2898 86.48 56.4185Z" fill="url(#paint8_linear_0_1053)"/>
<path fill-rule="evenodd" clip-rule="evenodd" d="M87.369 79.4407C88.0639 79.8136 88.7895 80 89.5457 80C92.0494 80 93.8736 78.7504 95.0181 76.2512C95.9481 74.2256 96.4233 71.8674 96.4437 69.1767L96.459 68.6779C96.459 67.6399 96.4744 66.7531 96.505 66.0174C97.7824 65.0399 98.927 63.8004 99.9387 62.2988C99.9796 62.2384 100 62.1779 100 62.1174C100 61.9663 99.9387 61.8453 99.8161 61.7546C99.7445 61.7143 99.673 61.6942 99.6014 61.6942C99.4584 61.6942 99.346 61.7546 99.2642 61.8756C98.4773 63.0647 97.5832 64.0775 96.5817 64.9139C96.6839 63.4527 97.0773 62.1074 97.762 60.8779C97.8437 60.7368 97.8846 60.5907 97.8846 60.4395C97.8846 60.1574 97.7518 59.9306 97.4861 59.7593C97.3634 59.6888 97.2357 59.6535 97.1028 59.6535H97.0109C96.4182 59.7039 95.9327 60.0339 95.5546 60.6436C95.1765 61.2533 94.8393 61.9512 94.5429 62.7372L94.5276 62.7523C94.1188 63.7399 93.7969 64.3899 93.5619 64.7023C93.429 64.8938 93.2911 64.9895 93.148 64.9895C92.9538 64.9895 92.775 64.7577 92.6115 64.2942C92.4684 63.8911 92.3969 63.4275 92.3969 62.9035C92.3969 62.1074 92.5706 61.3969 92.9181 60.7721C92.9998 60.6209 93.0407 60.4647 93.0407 60.3035C93.0407 59.9709 92.8874 59.7139 92.5808 59.5326C92.4276 59.4519 92.2692 59.4116 92.1056 59.4116C91.7786 59.4116 91.5129 59.5678 91.3086 59.8802C90.818 60.7771 90.5728 61.6236 90.5728 62.4198C90.5728 62.5911 90.583 62.7624 90.6034 62.9337C90.7261 63.881 91.0735 64.6267 91.6458 65.1709C92.167 65.6748 92.6422 65.9267 93.0714 65.9267C93.7254 65.9267 94.2977 65.4279 94.7882 64.4302C94.7064 65.055 94.6553 65.705 94.6349 66.3802C93.4393 67.1461 92.2538 67.8314 91.0786 68.436C89.8217 69.081 88.6975 69.7411 87.7063 70.4163C86.715 71.0915 85.9486 71.9027 85.407 72.85C85.407 72.8701 85.4018 72.8853 85.3916 72.8953C85.0033 73.7217 84.8091 74.5128 84.8091 75.2686C84.8091 76.2965 85.1259 77.2287 85.7595 78.0651C86.1989 78.6496 86.7355 79.1081 87.369 79.4407ZM92.0443 78.1407C91.3801 78.8562 90.5166 79.2139 89.4538 79.2139C88.8508 79.1837 88.2837 79.0275 87.7523 78.7453C87.2209 78.4632 86.7712 78.0802 86.4033 77.5965C85.9741 77.0422 85.7186 76.3872 85.6369 75.6314C85.6267 75.5004 85.6216 75.3643 85.6216 75.2232C85.6216 74.5884 85.7851 73.9232 86.1121 73.2279L86.1274 73.2128C86.5975 72.3663 87.3026 71.6281 88.2428 70.9982C89.183 70.3684 90.256 69.7461 91.4618 69.1314C92.494 68.5872 93.5466 67.9876 94.6196 67.3326L94.6042 68.1791C94.5838 73.0264 93.7305 76.3469 92.0443 78.1407Z" fill="white"/>
<path fill-rule="evenodd" clip-rule="evenodd" d="M87.369 79.4407C88.0639 79.8136 88.7895 80 89.5457 80C92.0494 80 93.8736 78.7504 95.0181 76.2512C95.9481 74.2256 96.4233 71.8674 96.4437 69.1767L96.459 68.6779C96.459 67.6399 96.4744 66.7531 96.505 66.0174C97.7824 65.0399 98.927 63.8004 99.9387 62.2988C99.9796 62.2384 100 62.1779 100 62.1174C100 61.9663 99.9387 61.8453 99.8161 61.7546C99.7445 61.7143 99.673 61.6942 99.6014 61.6942C99.4584 61.6942 99.346 61.7546 99.2642 61.8756C98.4773 63.0647 97.5832 64.0775 96.5817 64.9139C96.6839 63.4527 97.0773 62.1074 97.762 60.8779C97.8437 60.7368 97.8846 60.5907 97.8846 60.4395C97.8846 60.1574 97.7518 59.9306 97.4861 59.7593C97.3634 59.6888 97.2357 59.6535 97.1028 59.6535H97.0109C96.4182 59.7039 95.9327 60.0339 95.5546 60.6436C95.1765 61.2533 94.8393 61.9512 94.5429 62.7372L94.5276 62.7523C94.1188 63.7399 93.7969 64.3899 93.5619 64.7023C93.429 64.8938 93.2911 64.9895 93.148 64.9895C92.9538 64.9895 92.775 64.7577 92.6115 64.2942C92.4684 63.8911 92.3969 63.4275 92.3969 62.9035C92.3969 62.1074 92.5706 61.3969 92.9181 60.7721C92.9998 60.6209 93.0407 60.4647 93.0407 60.3035C93.0407 59.9709 92.8874 59.7139 92.5808 59.5326C92.4276 59.4519 92.2692 59.4116 92.1056 59.4116C91.7786 59.4116 91.5129 59.5678 91.3086 59.8802C90.818 60.7771 90.5728 61.6236 90.5728 62.4198C90.5728 62.5911 90.583 62.7624 90.6034 62.9337C90.7261 63.881 91.0735 64.6267 91.6458 65.1709C92.167 65.6748 92.6422 65.9267 93.0714 65.9267C93.7254 65.9267 94.2977 65.4279 94.7882 64.4302C94.7064 65.055 94.6553 65.705 94.6349 66.3802C93.4393 67.1461 92.2538 67.8314 91.0786 68.436C89.8217 69.081 88.6975 69.7411 87.7063 70.4163C86.715 71.0915 85.9486 71.9027 85.407 72.85C85.407 72.8701 85.4018 72.8853 85.3916 72.8953C85.0033 73.7217 84.8091 74.5128 84.8091 75.2686C84.8091 76.2965 85.1259 77.2287 85.7595 78.0651C86.1989 78.6496 86.7355 79.1081 87.369 79.4407ZM92.0443 78.1407C91.3801 78.8562 90.5166 79.2139 89.4538 79.2139C88.8508 79.1837 88.2837 79.0275 87.7523 78.7453C87.2209 78.4632 86.7712 78.0802 86.4033 77.5965C85.9741 77.0422 85.7186 76.3872 85.6369 75.6314C85.6267 75.5004 85.6216 75.3643 85.6216 75.2232C85.6216 74.5884 85.7851 73.9232 86.1121 73.2279L86.1274 73.2128C86.5975 72.3663 87.3026 71.6281 88.2428 70.9982C89.183 70.3684 90.256 69.7461 91.4618 69.1314C92.494 68.5872 93.5466 67.9876 94.6196 67.3326L94.6042 68.1791C94.5838 73.0264 93.7305 76.3469 92.0443 78.1407Z" fill="url(#paint9_linear_0_1053)"/>
<defs>
<linearGradient id="paint0_linear_0_1053" x1="125.813" y1="186.275" x2="174.735" y2="181.475" gradientUnits="userSpaceOnUse">
<stop stop-color="white"/>
<stop offset="1" stop-color="#FF3E83"/>
</linearGradient>
<linearGradient id="paint1_linear_0_1053" x1="12.3749" y1="65.9542" x2="21.4029" y2="65.9542" gradientUnits="userSpaceOnUse">
<stop stop-color="white"/>
<stop offset="1" stop-color="white"/>
</linearGradient>
<linearGradient id="paint2_linear_0_1053" x1="34.8182" y1="66.8411" x2="38.571" y2="66.8411" gradientUnits="userSpaceOnUse">
<stop stop-color="white"/>
<stop offset="1" stop-color="white"/>
</linearGradient>
<linearGradient id="paint3_linear_0_1053" x1="43.3543" y1="69.4076" x2="46.6145" y2="69.4076" gradientUnits="userSpaceOnUse">
<stop stop-color="white"/>
<stop offset="1" stop-color="white"/>
</linearGradient>
<linearGradient id="paint4_linear_0_1053" x1="51.118" y1="66.6273" x2="53.6698" y2="66.6273" gradientUnits="userSpaceOnUse">
<stop stop-color="white"/>
<stop offset="1" stop-color="white"/>
</linearGradient>
<linearGradient id="paint5_linear_0_1053" x1="57.3765" y1="66.2944" x2="60.4763" y2="66.2944" gradientUnits="userSpaceOnUse">
<stop stop-color="white"/>
<stop offset="1" stop-color="white"/>
</linearGradient>
<linearGradient id="paint6_linear_0_1053" x1="65.4956" y1="67.9095" x2="69.874" y2="67.9095" gradientUnits="userSpaceOnUse">
<stop stop-color="white"/>
<stop offset="1" stop-color="white"/>
</linearGradient>
<linearGradient id="paint7_linear_0_1053" x1="75.8517" y1="66.8754" x2="79.2669" y2="66.8754" gradientUnits="userSpaceOnUse">
<stop stop-color="white"/>
<stop offset="1" stop-color="white"/>
</linearGradient>
<linearGradient id="paint8_linear_0_1053" x1="84.1292" y1="66.8754" x2="87.5445" y2="66.8754" gradientUnits="userSpaceOnUse">
<stop stop-color="white"/>
<stop offset="1" stop-color="white"/>
</linearGradient>
<linearGradient id="paint9_linear_0_1053" x1="88.075" y1="78.7448" x2="93.5604" y2="78.7448" gradientUnits="userSpaceOnUse">
<stop stop-color="white"/>
<stop offset="1" stop-color="white"/>
</linearGradient>
</defs>
</svg>
