<svg width="147" height="153" viewBox="0 0 147 153" fill="none" xmlns="http://www.w3.org/2000/svg">
<g id="Group 3 Copy">
<g id="Clipped">
<mask id="mask0_0_808" style="mask-type:luminance" maskUnits="userSpaceOnUse" x="0" y="0" width="147" height="153">
<rect id="Rectangle" width="147" height="153" fill="white"/>
</mask>
<g mask="url(#mask0_0_808)">
<g id="Group">
<path id="Path" d="M36.1515 127.954C36.4667 128.675 35.9519 129.605 35.0064 130.031C34.0555 130.459 33.0365 130.219 32.7213 129.497C32.4113 128.777 32.9209 127.848 33.8664 127.42C34.812 126.998 35.8363 127.233 36.1515 127.954Z" fill="black"/>
<rect id="Rectangle_2" x="35.5106" y="118.64" width="0.709162" height="9.97057" fill="black"/>
<path id="Path_2" d="M43.9103 126.122C44.2254 126.844 43.7159 127.773 42.7703 128.2C41.8248 128.628 40.8057 128.393 40.4906 127.666C40.1753 126.945 40.6901 126.016 41.6357 125.588C42.5812 125.161 43.6003 125.402 43.9156 126.122H43.9103Z" fill="black"/>
<rect id="Rectangle_3" x="43.2904" y="116.531" width="0.709162" height="9.97057" fill="black"/>
<path id="Path_3" d="M35.5054 119.954L44.0049 117.893V115.735L35.5054 117.706V119.954Z" fill="black"/>
<path id="Path_4" d="M35.8521 121.07L35.6892 120.366L43.5635 118.507L43.7264 119.212L35.8521 121.07Z" fill="black"/>
<path id="Path_5" d="M111.939 102.95C112.168 103.436 111.797 104.056 111.125 104.344C110.447 104.627 109.718 104.466 109.493 103.986C109.27 103.5 109.634 102.881 110.313 102.592C110.985 102.31 111.719 102.47 111.939 102.95Z" fill="black"/>
<rect id="Rectangle_4" x="111.49" y="96.7126" width="0.510209" height="6.67555" fill="black"/>
<path id="Path_6" d="M117.136 101.727C117.366 102.208 116.996 102.833 116.319 103.121C115.64 103.404 114.912 103.249 114.689 102.764C114.47 102.277 114.834 101.658 115.506 101.37C116.179 101.087 116.912 101.247 117.136 101.727Z" fill="black"/>
<rect id="Rectangle_5" x="116.693" y="95.3028" width="0.509638" height="6.67555" fill="black"/>
<path id="Path_7" d="M111.349 97.5992L117.043 96.216V94.7688L111.349 96.0879V97.5992Z" fill="black"/>
<path id="Path_8" d="M140.012 94.5444C140.243 94.8168 139.871 95.1639 139.196 95.3188C138.523 95.479 137.788 95.3882 137.566 95.1212C137.345 94.8542 137.707 94.507 138.382 94.3468C139.056 94.1866 139.79 94.2774 140.012 94.5444Z" fill="black"/>
<rect id="Rectangle_6" x="139.578" y="90.9771" width="0.482992" height="3.72228" fill="black"/>
<path id="Path_9" d="M142.905 93.754C143.135 94.021 142.764 94.3681 142.09 94.5283C141.416 94.6885 140.682 94.5977 140.46 94.3307C140.24 94.0584 140.602 93.7165 141.275 93.5563C141.949 93.3961 142.683 93.487 142.905 93.754Z" fill="black"/>
<rect id="Rectangle_7" x="142.493" y="90.1866" width="0.482692" height="3.72228" fill="black"/>
<path id="Path_10" d="M145.542 92.8837C145.763 93.1561 145.401 93.4979 144.725 93.6581C144.05 93.8183 143.325 93.7275 143.093 93.4605C142.871 93.1882 143.234 92.841 143.909 92.6861C144.584 92.5259 145.319 92.6167 145.542 92.8837Z" fill="black"/>
<rect id="Rectangle_8" x="145.108" y="89.3323" width="0.483718" height="3.72228" fill="black"/>
<path id="Path_11" d="M138.586 91.5645L144.375 90.0585L144.38 89.1452L138.586 90.7794V91.5645Z" fill="black"/>
<path id="Path_12" d="M9.01424 91.6394C9.31892 93.2095 7.9006 94.817 5.8414 95.2335C3.7822 95.6501 1.85958 94.7155 1.55491 93.1454C1.25023 91.5753 2.6738 89.9625 4.73301 89.546C6.7922 89.1294 8.70956 90.0693 9.01424 91.6394Z" fill="black"/>
<path id="Path_13" d="M7.99699 92.4984L12.3592 72.7554L13.3586 72.9837L8.99644 92.7267L7.99699 92.4984Z" fill="black"/>
<path id="Path_14" d="M66.7138 104.787C66.3197 103.912 66.9239 102.769 68.0638 102.235C69.209 101.696 70.4592 101.968 70.8585 102.838C71.2524 103.708 70.6483 104.851 69.5031 105.391C68.358 105.93 67.1078 105.658 66.7138 104.787Z" fill="black"/>
<path id="Path_15" d="M66.6175 104.116L67.232 104.106L67.426 116.254L66.8115 116.264L66.6175 104.116Z" fill="black"/>
<path id="Path_16" d="M58.3561 125.594C58.8447 126.288 58.5085 127.383 57.6049 128.05C56.6962 128.718 55.5615 128.697 55.073 128.008C54.5845 127.314 54.9207 126.213 55.8241 125.546C56.733 124.879 57.8676 124.899 58.3561 125.594Z" fill="black"/>
<path id="Path_17" d="M58.3036 126.63C58.1775 126.63 58.062 126.539 58.0357 126.411L55.8399 115.859C55.8085 115.708 55.903 115.559 56.0501 115.527C56.2076 115.495 56.3442 115.591 56.3758 115.741L58.5716 126.293C58.603 126.443 58.5085 126.592 58.3614 126.625C58.3404 126.625 58.3246 126.63 58.3036 126.63Z" fill="black"/>
<path id="Path_18" d="M60.3629 119.73C60.3629 119.73 60.3365 119.73 60.3208 119.73C60.1738 119.708 60.0687 119.564 60.0896 119.415C60.263 118.24 59.1284 117.722 57.9569 117.29L57.7258 117.204C56.4651 116.718 56.1026 116.366 55.8452 115.842C55.7769 115.704 55.8294 115.538 55.966 115.469C56.0974 115.399 56.2654 115.453 56.3338 115.591C56.5018 115.928 56.7277 116.227 57.9202 116.686L58.1408 116.772C59.102 117.124 60.8881 117.78 60.6307 119.506C60.6097 119.645 60.4942 119.741 60.3629 119.741V119.73Z" fill="black"/>
<path id="Path_19" d="M60.8828 122.245C60.8828 122.245 60.8566 122.245 60.8408 122.245C60.6937 122.224 60.5887 122.08 60.6097 121.93C60.7883 120.755 59.6537 120.237 58.477 119.805L58.2459 119.719C56.9852 119.238 56.6226 118.881 56.3653 118.358C56.2969 118.219 56.3495 118.053 56.486 117.984C56.6226 117.915 56.7855 117.968 56.8537 118.107C57.0219 118.449 57.2478 118.742 58.4403 119.202L58.6609 119.287C59.6221 119.639 61.4082 120.296 61.1455 122.021C61.1245 122.16 61.009 122.256 60.8777 122.256L60.8828 122.245Z" fill="black"/>
<path id="Path_20" d="M33.3149 102.23C33.5093 103.276 32.5584 104.333 31.1873 104.595C29.8164 104.857 28.5504 104.227 28.3507 103.18C28.1616 102.139 29.1125 101.076 30.4782 100.814C31.8492 100.553 33.1152 101.182 33.3096 102.224L33.3149 102.23Z" fill="black"/>
<path id="Path_21" d="M32.9944 103.068C32.9944 103.068 32.9419 103.068 32.9156 103.057C32.7317 103.014 32.6215 102.828 32.6635 102.64L36.3722 86.6407C36.4142 86.4538 36.598 86.3416 36.7819 86.3844C36.9657 86.4271 37.0761 86.614 37.0341 86.8009L33.3254 102.801C33.2885 102.961 33.1468 103.068 32.9944 103.068Z" fill="black"/>
<path id="Path_22" d="M39.5608 93.594C39.4977 93.594 39.4294 93.5727 39.3717 93.5353C39.214 93.4285 39.172 93.2149 39.2771 93.0547C40.086 91.8264 39.0775 90.6301 37.9743 89.5087L37.7589 89.2896C36.5928 88.072 36.3669 87.4739 36.3458 86.7423C36.3406 86.55 36.4877 86.3898 36.6768 86.3845H36.6873C36.8712 86.3845 37.0235 86.534 37.0288 86.7209C37.0445 87.1962 37.1443 87.6501 38.2475 88.809L38.4523 89.0226C39.3506 89.9359 41.0263 91.6395 39.8392 93.4445C39.7761 93.546 39.6658 93.5994 39.5555 93.5994L39.5608 93.594Z" fill="black"/>
<path id="Path_23" d="M38.363 98.993C38.3 98.993 38.2317 98.9713 38.1739 98.9347C38.0164 98.8271 37.9743 98.6139 38.0794 98.4537C38.8883 97.2254 37.8797 96.0291 36.7766 94.9077L36.5613 94.6887C35.395 93.4711 35.1692 92.873 35.1482 92.1413C35.1429 91.9491 35.29 91.7888 35.4791 91.7835C35.6839 91.7408 35.8258 91.9277 35.831 92.1199C35.8468 92.5952 35.9467 93.0492 37.0498 94.2027L37.2599 94.4163C38.1582 95.3296 39.8287 97.0332 38.6467 98.8331C38.5836 98.9347 38.4734 98.988 38.363 98.988V98.993Z" fill="black"/>
<path id="Path_24" d="M37.7431 101.626C37.6802 101.626 37.6118 101.605 37.554 101.567C37.3965 101.461 37.3545 101.247 37.4595 101.087C38.2685 99.8587 37.2599 98.6567 36.1515 97.5352L35.9414 97.3215C34.7752 96.0986 34.5545 95.5059 34.5283 94.7742C34.523 94.5819 34.6701 94.4217 34.8593 94.4164C35.0642 94.395 35.206 94.5605 35.2112 94.7528C35.227 95.2281 35.3268 95.682 36.4299 96.8409L36.6295 97.0438C37.5331 97.9571 39.214 99.6602 38.0215 101.472C37.9586 101.572 37.8482 101.626 37.7379 101.626H37.7431Z" fill="black"/>
<path id="Path_25" d="M38.9882 96.2108C38.9251 96.2108 38.8569 96.1895 38.7991 96.1521C38.6414 96.0453 38.5994 95.8317 38.7045 95.6715C39.5135 94.4431 38.5049 93.2469 37.4018 92.1254L37.1916 91.9065C36.0254 90.6888 35.7996 90.0907 35.7785 89.3591C35.7732 89.1668 35.9203 89.0066 36.1095 89.0013C36.3091 88.9585 36.4562 89.1455 36.4615 89.3377C36.4772 89.813 36.577 90.2669 37.6802 91.4205L37.885 91.6341C38.7833 92.5473 40.459 94.251 39.2718 96.056C39.2088 96.1574 39.0984 96.2108 38.9882 96.2108Z" fill="black"/>
<path id="Path_26" d="M109.253 88.6059C109.684 89.1184 109.489 90.0104 108.817 90.5925C108.144 91.1746 107.246 91.2386 106.815 90.7259C106.379 90.2132 106.579 89.3214 107.251 88.734C107.924 88.1466 108.823 88.0932 109.253 88.6059Z" fill="black"/>
<path id="Path_27" d="M109.227 89.204C109.133 89.204 109.048 89.1399 109.021 89.0491L106.09 79.0304C106.054 78.9129 106.122 78.7902 106.237 78.7581C106.354 78.7261 106.474 78.7902 106.505 78.9076L109.437 88.9263C109.473 89.0438 109.406 89.1666 109.29 89.1987C109.269 89.204 109.248 89.2094 109.227 89.2094V89.204Z" fill="black"/>
<path id="Path_28" d="M109.904 81.8717H109.888C109.768 81.861 109.679 81.7595 109.689 81.6367C109.757 80.7021 108.828 80.3657 107.871 80.0987L107.682 80.0453C106.663 79.7462 106.354 79.4898 106.112 79.0946C106.049 78.9932 106.08 78.8543 106.18 78.7903C106.28 78.7261 106.416 78.7582 106.48 78.8597C106.637 79.116 106.831 79.3349 107.803 79.6179L107.981 79.666C108.764 79.8797 110.214 80.2802 110.12 81.6581C110.109 81.7755 110.015 81.861 109.904 81.861V81.8717Z" fill="black"/>
<path id="Path_29" d="M110.923 85.2308H110.908C110.787 85.2201 110.698 85.1186 110.708 84.9958C110.771 84.0559 109.842 83.7248 108.885 83.4577L108.702 83.4097C107.682 83.1107 107.373 82.8543 107.131 82.4591C107.068 82.3523 107.099 82.2187 107.205 82.1547C107.304 82.0906 107.435 82.1227 107.504 82.2295C107.656 82.4859 107.855 82.7048 108.823 82.9878L109 83.0359C109.783 83.2495 111.238 83.65 111.144 85.0278C111.139 85.1454 111.039 85.2308 110.928 85.2308H110.923Z" fill="black"/>
<path id="Path_30" d="M110.403 83.4952H110.388C110.267 83.4845 110.177 83.383 110.188 83.2602C110.251 82.3203 109.321 81.9838 108.365 81.7221L108.181 81.6741C107.162 81.375 106.852 81.1186 106.611 80.7235C106.547 80.622 106.579 80.4831 106.679 80.4191C106.779 80.355 106.916 80.387 106.978 80.4885C107.136 80.7448 107.331 80.9638 108.302 81.2468L108.475 81.2949C109.258 81.5085 110.713 81.9091 110.618 83.2922C110.614 83.4097 110.514 83.4952 110.403 83.4952Z" fill="black"/>
<path id="Path_31" d="M12.8805 104.088C12.5653 102.689 13.7946 101.21 15.6278 100.777C17.4664 100.349 19.2104 101.129 19.5256 102.529C19.8407 103.927 18.6116 105.412 16.7783 105.839C14.9449 106.267 13.2009 105.482 12.8805 104.088Z" fill="black"/>
<path id="Path_32" d="M9.96502 121.567C9.93353 121.567 9.90726 121.567 9.87574 121.562C9.62885 121.514 9.466 121.268 9.51328 121.017L12.891 103.201C12.9383 102.95 13.1852 102.784 13.4268 102.833C13.6737 102.881 13.8366 103.127 13.7893 103.378L10.4116 121.194C10.3696 121.418 10.1752 121.573 9.95975 121.573L9.96502 121.567Z" fill="black"/>
<path id="Path_33" d="M9.99134 121.449C9.92302 121.449 9.85473 121.434 9.79169 121.402C9.56056 121.29 9.466 121.012 9.57632 120.777C10.0019 119.885 10.6007 119.276 12.6966 118.427L13.0801 118.278C15.05 117.514 16.9411 116.601 16.6101 114.63C16.5681 114.374 16.7363 114.133 16.9883 114.091C17.2353 114.059 17.4769 114.219 17.5189 114.476C18.0022 117.364 15.0184 118.529 13.4111 119.153L13.0434 119.298C11.0524 120.104 10.6847 120.611 10.4063 121.188C10.3275 121.354 10.1647 121.449 9.99134 121.449Z" fill="black"/>
<path id="Path_34" d="M124.555 82.5338C124.408 83.2976 123.683 83.7942 122.937 83.6446C122.191 83.4952 121.697 82.7634 121.844 81.9998C121.992 81.2361 122.711 80.7395 123.462 80.889C124.214 81.0332 124.703 81.7701 124.561 82.5338H124.555Z" fill="black"/>
<path id="Path_35" d="M125.417 91.4791L124.949 91.3883L126.556 82.9024C125.722 83.6447 124.912 84.0238 124.141 84.0238H124.114C123.384 84.0185 122.685 83.666 122.096 83.0039L122.449 82.678C122.953 83.2441 123.515 83.5326 124.119 83.5379H124.141C124.949 83.5379 125.832 83.0305 126.762 82.0266C126.835 81.9464 126.95 81.9304 127.045 81.9785C127.14 82.0266 127.192 82.1334 127.171 82.2402L125.417 91.4791Z" fill="black"/>
<path id="Path_36" d="M123.888 86.0692C123.741 86.8328 123.016 87.3295 122.27 87.18C121.519 87.0304 121.031 86.2988 121.178 85.5351C121.325 84.7715 122.044 84.2748 122.796 84.4243C123.542 84.5739 124.03 85.3055 123.888 86.0692Z" fill="black"/>
<path id="Path_37" d="M123.468 87.5593H123.447C122.716 87.5539 122.018 87.2015 121.43 86.5393L121.782 86.2135C122.291 86.7796 122.853 87.068 123.452 87.0733C124.251 87.0573 125.154 86.5767 126.094 85.562L126.441 85.8931C125.417 86.9932 124.419 87.5539 123.473 87.5539L123.468 87.5593Z" fill="black"/>
<path id="Path_38" d="M81.1806 111.399C81.3541 112.232 80.8287 113.049 80.004 113.225C79.1845 113.402 78.3808 112.862 78.2127 112.029C78.0446 111.196 78.5699 110.379 79.3842 110.202C80.2089 110.027 81.0073 110.566 81.1754 111.399H81.1806Z" fill="black"/>
<path id="Path_39" d="M85.2623 120.206L83.3607 110.913C82.8196 112.039 82.1473 112.771 81.3541 113.103C80.608 113.407 79.7571 113.353 78.8851 112.937L79.1058 112.456C79.8517 112.808 80.5451 112.862 81.1544 112.611C81.9844 112.269 82.6725 111.372 83.2031 109.941C83.2451 109.828 83.3502 109.743 83.471 109.77C83.5866 109.781 83.6811 109.866 83.7074 109.978L85.7824 120.098L85.2728 120.206H85.2623Z" fill="black"/>
<path id="Path_40" d="M81.9791 115.271C82.1473 116.104 81.6219 116.921 80.8024 117.091C79.9777 117.268 79.1793 116.729 79.0112 115.896C78.8378 115.063 79.3631 114.246 80.1878 114.075C81.0126 113.904 81.8111 114.438 81.9844 115.271H81.9791Z" fill="black"/>
<path id="Path_41" d="M81.1492 117.166C80.6764 117.166 80.1826 117.049 79.6783 116.809L79.899 116.328C80.6449 116.686 81.3383 116.734 81.9476 116.483C82.7723 116.141 83.4605 115.244 83.991 113.813L84.4796 114C83.8965 115.575 83.1085 116.574 82.142 116.974C81.8268 117.102 81.4906 117.172 81.1439 117.172L81.1492 117.166Z" fill="black"/>
<rect id="Rectangle_9" x="96.3358" y="91.4151" width="0.267906" height="10.4886" fill="black"/>
<rect id="Rectangle_10" x="96.3358" y="91.4151" width="0.267906" height="10.4886" fill="black"/>
<rect id="Rectangle_11" x="98.5473" y="90.5285" width="0.267906" height="10.4886" fill="black"/>
<path id="Path_42" d="M100.749 95.9065L94.9752 94.1761L95.0487 93.9091L100.822 95.6447L100.749 95.9065Z" fill="black"/>
<path id="Path_43" d="M100.276 98.4911L94.5024 96.7608L94.5812 96.4937L100.349 98.2295L100.276 98.4911Z" fill="black"/>
<path id="Path_44" d="M100.276 98.4911L94.5024 96.7608L94.5812 96.4937L100.349 98.2295L100.276 98.4911Z" fill="black"/>
<path id="Path_45" d="M149.88 99.8261L146.902 98.9288L146.97 98.6993L149.948 99.5912L149.88 99.8261Z" fill="black"/>
<path id="Path_46" d="M149.88 99.8261L146.902 98.9288L146.97 98.6993L149.948 99.5912L149.88 99.8261Z" fill="black"/>
<path id="Path_47" d="M57.3843 104.574C57.3843 105.006 57.0429 105.354 56.6122 105.354C56.1814 105.354 55.8399 105.006 55.8399 104.574C55.8399 104.142 56.1867 103.789 56.6122 103.789C57.0377 103.789 57.3843 104.142 57.3843 104.574Z" fill="black"/>
<path id="Path_48" d="M57.3843 107.896C57.3843 108.328 57.0429 108.68 56.6122 108.68C56.1814 108.68 55.8399 108.328 55.8399 107.896C55.8399 107.463 56.1867 107.111 56.6122 107.111C57.0377 107.111 57.3843 107.457 57.3843 107.896Z" fill="black"/>
<path id="Path_49" d="M50.8391 104.35C50.8391 105.156 50.1981 105.808 49.4049 105.808C48.6117 105.808 47.9709 105.156 47.9709 104.35C47.9709 103.543 48.6117 102.886 49.4049 102.886C50.1981 102.886 50.8391 103.543 50.8391 104.35Z" fill="black"/>
<path id="Path_50" d="M50.4976 113.444C50.4976 113.444 51.543 112.846 52.6933 111.49C53.2659 110.817 53.8386 109.941 54.2325 108.915C54.4321 108.409 54.5897 107.858 54.6632 107.292C54.7578 106.71 54.7894 106.176 54.7421 105.562C54.637 104.461 54.0277 103.458 53.1767 102.999C52.3309 102.518 51.3486 102.502 50.6709 102.753C49.9723 102.999 49.6309 103.468 49.51 103.81C49.384 104.157 49.3892 104.392 49.3892 104.392C49.3998 104.793 49.0898 105.13 48.6958 105.14C48.3018 105.15 47.9709 104.836 47.9603 104.435V104.259C47.9603 104.259 47.9761 103.863 48.2651 103.238C48.5435 102.614 49.2841 101.851 50.3243 101.589C51.3433 101.306 52.6198 101.45 53.6862 102.166C54.7736 102.875 55.425 104.222 55.4408 105.546C55.4408 106.139 55.3935 106.823 55.2569 107.41C55.1518 108.019 54.9522 108.595 54.7158 109.129C54.2483 110.202 53.6022 111.084 52.977 111.757C51.7216 113.103 50.6185 113.663 50.6132 113.658C50.5554 113.696 50.4818 113.674 50.4503 113.615C50.4188 113.557 50.4398 113.482 50.4976 113.45V113.444Z" fill="black"/>
<path id="Path_51" d="M129.046 102.7C125.679 100.083 130.118 97.6847 130.118 97.6847C129.193 97.2201 128.295 96.4991 129.11 95.0091C130.003 93.3749 133.086 92.9103 131.768 91.0038C131.768 91.0038 134.389 91.447 132.624 94.0906C131.51 95.7621 129.598 95.8102 131.373 97.8128C131.373 97.8128 127.907 100.103 129.046 102.7Z" fill="black"/>
<path id="Path_52" d="M0.147084 77.2736C0.147084 77.2736 0.808969 77.4819 2.05395 77.877C2.67905 78.0586 3.44075 78.3203 4.32851 78.6675C5.22154 78.9932 6.24588 79.383 7.35952 79.8904C11.8771 81.7809 17.9706 85.2949 24.7681 90.2188C28.1878 92.654 31.7967 95.415 35.7418 98.1386C39.6868 100.841 43.9891 103.591 48.9006 105.327C51.3486 106.187 53.9331 106.833 56.5964 106.993C59.2597 107.164 61.9702 106.918 64.6283 106.325C67.2916 105.717 69.8604 104.681 72.3607 103.5C74.8245 102.235 77.2146 100.798 79.505 99.1963C84.1119 96.0452 88.3984 92.419 93.0158 89.4071C95.3271 87.9117 97.7278 86.5873 100.239 85.6047C102.755 84.6167 105.376 84.0719 107.976 83.821C113.203 83.3884 118.236 84.3389 122.863 85.4979C127.508 86.6727 131.793 88.1413 135.729 89.5405C143.576 92.3977 150.138 94.7528 154.865 95.9384C157.218 96.5632 159.089 96.9638 160.37 97.1881C161.652 97.4177 162.335 97.5459 162.335 97.5459C162.335 97.5459 161.652 97.423 160.37 97.1934C159.084 96.9745 157.214 96.5739 154.86 95.9597C150.127 94.7902 143.56 92.4458 135.708 89.6154C131.773 88.2268 127.481 86.7689 122.842 85.61C118.22 84.4618 113.187 83.5326 107.997 83.9758C105.413 84.2321 102.803 84.7822 100.313 85.7702C97.8171 86.7582 95.4322 88.0773 93.1313 89.5779C88.5402 92.59 84.2642 96.2322 79.652 99.3987C77.3617 101.012 74.9611 102.459 72.4922 103.741C69.9759 104.937 67.3966 105.984 64.7124 106.608C62.028 107.213 59.2912 107.468 56.5964 107.302C53.9015 107.148 51.2855 106.502 48.8113 105.642C43.8525 103.901 39.5187 101.145 35.5579 98.4484C31.5919 95.7248 27.9778 92.9745 24.558 90.5553C17.7606 85.6581 11.6881 82.1868 7.20194 80.3176C6.09354 79.8157 5.0797 79.4364 4.19719 79.116C3.31992 78.7743 2.56349 78.5179 1.93312 78.3363C0.688149 77.9465 0.0210114 77.7382 0.0210114 77.7382L0.162844 77.2736H0.147084Z" fill="black"/>
<path id="Path_53" d="M0.14184 85.2148C0.14184 85.2148 0.798471 85.407 2.03294 85.7755C3.26216 86.1439 5.07446 86.7581 7.2965 87.6714C9.51853 88.6005 12.1818 89.8235 15.1288 91.431C18.081 93.0277 21.3274 94.9771 24.8365 97.156C28.3507 99.3187 32.1171 101.727 36.2671 103.976C40.4065 106.214 44.9556 108.328 49.9513 109.455C54.9311 110.614 60.3629 110.625 65.5529 109.209C70.7901 107.911 75.6544 105.204 80.2298 102.186C84.7948 99.1322 89.0917 95.65 93.6514 92.702C98.1953 89.7755 103.212 87.5591 108.365 87.0679C110.923 86.7154 113.466 86.8649 115.929 87.0465C118.373 87.4578 120.783 87.6927 123.079 88.232C127.691 89.2254 131.972 90.475 135.897 91.7194C139.826 92.937 143.398 94.1546 146.597 95.1105C149.785 96.1199 152.601 96.8622 154.928 97.4443C157.239 98.0906 159.121 98.3042 160.37 98.5925C161.631 98.838 162.304 98.9663 162.304 98.9663C162.304 98.9663 161.631 98.838 160.365 98.5978C159.115 98.3148 157.229 98.1066 154.918 97.4657C152.585 96.8889 149.77 96.1572 146.576 95.1533C143.372 94.2027 139.799 92.9958 135.865 91.7888C131.94 90.5552 127.66 89.3162 123.058 88.3388C120.767 87.8048 118.346 87.5752 115.913 87.1693C113.461 86.9931 110.928 86.8542 108.381 87.2067C103.26 87.7087 98.2793 89.925 93.7565 92.8569C89.2179 95.8102 84.9366 99.297 80.3612 102.379C75.791 105.418 70.9005 108.157 65.6264 109.476C60.3996 110.918 54.9049 110.924 49.883 109.77C44.8348 108.643 40.2542 106.528 36.0938 104.296C31.928 102.048 28.1458 99.6504 24.6263 97.4977C21.1173 95.3296 17.8709 93.3962 14.9239 91.8155C11.9822 90.2241 9.33469 89.0117 7.12315 88.0986C4.90636 87.1907 3.13608 86.5979 1.90161 86.2294C0.667145 85.8663 0.0105133 85.674 0.0105133 85.674L0.14184 85.2094V85.2148Z" fill="black"/>
<path id="Path_54" d="M0.136579 93.1561C0.136579 93.1561 0.787958 93.3323 2.01192 93.6634C3.23062 94.0265 5.05869 94.3843 7.28073 95.2548C8.39438 95.6714 9.66036 96.0613 10.9789 96.622C12.2974 97.1881 13.721 97.7969 15.2391 98.4537C16.731 99.1746 18.3174 99.9386 19.9878 100.745C21.6373 101.594 23.3708 102.485 25.1831 103.415C28.7972 105.279 32.6845 107.367 36.9395 109.258C41.2049 111.068 45.8013 112.91 50.818 113.632C55.8137 114.374 61.1035 114.128 66.241 112.755C67.507 112.355 68.7519 111.864 70.0127 111.421C70.6378 111.186 71.2787 110.977 71.8985 110.721L73.6951 109.797L77.2987 107.944C78.449 107.244 79.631 106.555 80.7499 105.791C85.3043 102.839 89.554 99.4204 94.0717 96.5366C98.542 93.6154 103.453 91.3884 108.497 90.6353C111.002 90.1868 113.513 90.1654 115.956 90.2455C118.383 90.5285 120.773 90.598 123.063 91.0359C127.66 91.7569 131.951 92.7608 135.876 93.7916C139.8 94.8276 143.398 95.7835 146.587 96.622C149.775 97.4765 152.58 98.112 154.891 98.6086C157.198 99.1637 159.052 99.3454 160.297 99.5911C161.547 99.7994 162.214 99.906 162.214 99.906C162.214 99.906 161.547 99.7994 160.297 99.5911C159.052 99.3513 157.193 99.1697 154.886 98.6247C152.57 98.1333 149.764 97.5085 146.576 96.6594C143.388 95.8263 139.784 94.881 135.855 93.8556C131.926 92.841 127.634 91.8477 123.042 91.1374C120.762 90.7048 118.362 90.6407 115.935 90.3683C113.508 90.2936 111.002 90.3202 108.512 90.7742C103.496 91.5379 98.6208 93.7702 94.1715 96.6914C89.6749 99.5803 85.4356 103.009 80.876 105.99C79.7466 106.758 78.5804 107.442 77.4194 108.152L73.8054 110.027L72.0036 110.962C71.3784 111.217 70.7376 111.431 70.1073 111.671C68.8413 112.12 67.591 112.622 66.3197 113.028C61.1403 114.427 55.8085 114.689 50.7707 113.957C45.7068 113.247 41.0841 111.405 36.7924 109.599C32.5164 107.72 28.6186 105.637 24.9992 103.783C23.187 102.859 21.4535 101.973 19.7987 101.129C18.1283 100.329 16.5471 99.5694 15.0553 98.8597C13.5371 98.2135 12.1188 97.6099 10.8055 97.0492C9.49227 96.4938 8.24204 96.12 7.13364 95.7035C4.93787 94.8489 3.09405 94.4911 1.8806 94.128C0.656631 93.8022 0 93.626 0 93.626L0.12082 93.1561H0.136579Z" fill="black"/>
<path id="Path_55" d="M0.126077 101.097C0.126077 101.097 0.777455 101.242 2.00142 101.514C3.22013 101.807 5.03768 102.106 7.28599 102.833C9.56056 103.447 12.2553 104.392 15.3232 105.52C18.3752 106.705 21.7844 108.11 25.4773 109.701C29.1754 111.287 33.1836 112.985 37.5068 114.55C41.8511 116.04 46.5263 117.37 51.5062 117.92C56.4913 118.379 61.6918 117.92 66.7558 116.531C69.2405 115.677 71.783 114.897 74.1311 113.61C76.5738 112.537 78.8431 111.1 81.1492 109.717C85.6931 106.86 90.0163 103.655 94.5024 100.83C99.0148 98.0853 103.737 95.7356 108.665 94.6408C109.857 94.2135 111.128 94.2189 112.342 94.0053C113.565 93.8664 114.768 93.6315 115.977 93.5727C117.185 93.5673 118.378 93.5566 119.56 93.5513C120.148 93.5513 120.736 93.5513 121.314 93.546C121.897 93.5994 122.475 93.6528 123.042 93.7009C125.337 93.8985 127.57 94.08 129.698 94.4806C131.841 94.7956 133.9 95.1588 135.86 95.5913C139.799 96.3551 143.377 97.2362 146.571 97.9091C149.748 98.6354 152.538 99.1805 154.845 99.602C157.14 100.088 158.979 100.216 160.213 100.424C161.458 100.595 162.12 100.686 162.12 100.686C162.12 100.686 161.458 100.595 160.213 100.43C158.979 100.227 157.134 100.099 154.839 99.6178C152.538 99.2012 149.743 98.6621 146.56 97.9465C143.367 97.279 139.789 96.4085 135.849 95.6554C133.884 95.2335 131.825 94.8757 129.688 94.566C127.56 94.1708 125.332 93.9946 123.042 93.8023C122.47 93.7543 121.892 93.7009 121.314 93.6528C120.731 93.6528 120.148 93.6581 119.555 93.6634C118.373 93.6741 117.185 93.6849 115.977 93.6955C114.779 93.7596 113.576 93.9946 112.358 94.1387C111.149 94.3578 109.883 94.3523 108.697 94.7796C103.79 95.8851 99.0989 98.2402 94.6022 100.991C90.1424 103.821 85.8191 107.041 81.27 109.92C78.9744 111.303 76.6998 112.755 74.2414 113.845C71.8828 115.143 69.3298 115.934 66.8293 116.803C61.7286 118.219 56.4913 118.694 51.4694 118.245C46.4527 117.706 41.746 116.382 37.3807 114.897C33.0365 113.337 29.0179 111.645 25.3198 110.069C21.6215 108.489 18.2123 107.095 15.1655 105.925C12.1031 104.809 9.41872 103.88 7.16516 103.276C4.94838 102.566 3.11506 102.267 1.89635 101.979C0.672394 101.711 0.0157623 101.567 0.0157623 101.567L0.11557 101.092L0.126077 101.097Z" fill="black"/>
<path id="Path_56" d="M0.115566 109.039C0.115566 109.039 0.766944 109.15 1.99616 109.354C3.22537 109.573 5.03243 109.808 7.29648 110.373C11.8614 111.335 18.2281 113.278 25.7873 115.81C29.5694 117.071 33.6773 118.368 38.0741 119.575C42.4867 120.707 47.2091 121.626 52.1628 121.941C57.1217 122.208 62.2644 121.62 67.2758 120.216C68.5155 119.816 69.7605 119.409 71.0107 119.003C72.2189 118.496 73.4114 117.924 74.6196 117.386C75.2184 117.108 75.833 116.856 76.4162 116.552L78.1497 115.569C79.3 114.908 80.4767 114.277 81.6114 113.583C86.1186 110.758 90.4733 107.672 94.8859 104.825C99.3511 102.069 103.995 99.7244 108.801 98.3468C109.978 97.9249 111.228 97.8288 112.42 97.5618C113.629 97.3695 114.8 97.0224 116.003 96.9636C118.394 96.8568 120.726 96.531 123.011 96.7019C124.15 96.734 125.275 96.7661 126.383 96.8034C127.492 96.8461 128.573 96.9957 129.64 97.0865C130.707 97.1933 131.757 97.2948 132.792 97.3909C133.817 97.535 134.82 97.6792 135.807 97.8181C139.752 98.3361 143.34 99.0147 146.534 99.522C149.722 100.072 152.512 100.488 154.808 100.814C157.103 101.188 158.926 101.279 160.16 101.439C161.395 101.567 162.057 101.636 162.057 101.636C162.057 101.636 161.395 101.572 160.16 101.444C158.926 101.289 157.103 101.198 154.808 100.836C152.507 100.515 149.718 100.109 146.528 99.5645C143.335 99.068 139.741 98.4002 135.796 97.8928C134.809 97.7594 133.806 97.6152 132.782 97.4763C131.752 97.3801 130.701 97.2788 129.635 97.1773C128.568 97.0918 127.487 96.9423 126.378 96.8995C125.275 96.8675 124.15 96.8408 123.011 96.8088C120.736 96.6485 118.399 96.9797 116.014 97.0918C114.821 97.1505 113.65 97.503 112.447 97.6953C111.26 97.9677 110.015 98.0691 108.844 98.491C104.058 99.8794 99.4405 102.224 94.9909 104.985C90.5941 107.842 86.2551 110.94 81.7322 113.792C80.5976 114.485 79.4262 115.121 78.2757 115.788L76.5422 116.776C75.9486 117.086 75.334 117.337 74.7352 117.62C73.5218 118.165 72.324 118.742 71.1106 119.255C69.8551 119.666 68.6049 120.077 67.3599 120.483C62.317 121.908 57.1374 122.517 52.1523 122.261C47.1671 121.963 42.4184 121.049 37.9848 119.922C33.5722 118.726 29.4486 117.439 25.6664 116.189C18.1021 113.685 11.7405 111.762 7.21244 110.822C4.96938 110.267 3.15183 110.037 1.92787 109.823C0.698654 109.62 0.0420227 109.513 0.0420227 109.513L0.120819 109.033L0.115566 109.039Z" fill="black"/>
<path id="Path_57" d="M0.0998058 116.98C0.0998058 116.98 0.756438 117.044 1.98565 117.166C3.21487 117.29 5.02192 117.439 7.30699 117.813C11.8929 118.449 18.3541 119.799 26.0708 121.529C33.7824 123.206 42.8438 125.263 52.7197 125.428C57.647 125.493 62.7477 124.888 67.7381 123.532C72.7495 122.213 77.5456 119.863 82.0369 117.097C86.5545 114.346 90.8043 111.164 95.2063 108.361C99.5826 105.525 104.178 103.137 108.938 101.727C111.323 101.06 113.712 100.547 116.087 100.349C118.456 100.174 120.773 99.8794 123.042 99.9327C124.177 99.9218 125.296 99.912 126.394 99.9011C127.492 99.9485 128.573 99.9919 129.64 100.039C131.773 100.109 133.827 100.264 135.791 100.451C139.731 100.761 143.33 101.22 146.523 101.561C149.718 101.909 152.502 102.213 154.792 102.459C157.087 102.715 158.894 102.795 160.124 102.908C161.358 103.004 162.015 103.052 162.015 103.052C162.015 103.052 161.358 103.004 160.124 102.913C158.894 102.806 157.082 102.726 154.786 102.48C152.491 102.24 149.707 101.941 146.513 101.605C143.319 101.268 139.721 100.825 135.781 100.526C133.811 100.344 131.757 100.194 129.629 100.13C128.568 100.088 127.487 100.045 126.383 100.003C125.286 100.019 124.171 100.029 123.037 100.045C118.53 100.168 113.703 100.446 108.97 101.871C104.231 103.292 99.6561 105.684 95.2956 108.525C90.9094 111.341 86.6701 114.534 82.1473 117.3C77.6507 120.093 72.8441 122.464 67.8064 123.805C62.7898 125.183 57.6575 125.807 52.7039 125.754C42.7756 125.61 33.6931 123.581 25.9711 121.919C18.2491 120.211 11.7878 118.881 7.23345 118.267C4.96413 117.904 3.15708 117.76 1.92787 117.636C0.698654 117.519 0.0420227 117.455 0.0420227 117.455L0.0893002 116.974L0.0998058 116.98Z" fill="black"/>
<path id="Path_58" d="M83.7126 103.932C83.8177 104.222 83.6654 104.547 83.3817 104.648C83.098 104.756 82.7829 104.601 82.6778 104.312C82.5727 104.023 82.7251 103.703 83.0087 103.597C83.2924 103.495 83.6128 103.644 83.7126 103.932Z" fill="black"/>
<path id="Path_59" d="M82.8301 104.302C82.8301 104.302 82.8721 104.446 83.0876 104.574C83.2819 104.707 83.739 104.782 84.0699 104.435C84.3745 104.093 84.3745 103.453 83.991 102.892C83.6497 102.288 83.2189 101.626 82.7776 100.894C82.3311 100.158 81.8478 99.3612 81.3592 98.5017C80.876 97.6419 80.3507 96.7394 79.9357 95.73C79.8201 95.479 79.7099 95.2227 79.5942 94.9664C79.4787 94.7047 79.3579 94.427 79.3211 94.0959V94.0318C79.3211 94.0318 79.3106 94.0211 79.3106 93.9944V93.9677C79.3106 93.9357 79.3106 93.9036 79.3106 93.8502C79.3106 93.7594 79.3211 93.674 79.3369 93.5779C79.3842 93.4017 79.4524 93.1453 79.7466 92.9743C79.899 92.8943 80.0828 92.9156 80.1931 92.9851C80.314 93.0545 80.4242 93.156 80.4767 93.204C80.6344 93.3483 80.7289 93.4176 80.8235 93.5404C81.2122 93.9997 81.4065 94.6192 81.5747 95.2281C81.7427 95.8475 81.6902 96.5151 81.5011 97.1132C81.417 97.4177 81.2963 97.7113 81.1597 97.9891C81.1281 98.0585 81.0914 98.1279 81.0546 98.1974L80.9601 98.3789C80.8865 98.507 80.8287 98.6246 80.7762 98.7363C80.5608 99.2062 80.3875 99.7086 80.356 100.2C80.3296 100.686 80.4715 101.156 80.7867 101.497C81.1072 101.84 81.5799 102.032 82.0632 102.086C83.035 102.203 84.0751 101.76 84.6424 101.027C84.9313 100.664 85.0417 100.189 84.9471 99.7728C84.8473 99.3562 84.5951 99.0196 84.2905 98.7955C83.6811 98.3415 82.972 98.3736 82.4939 98.6886C82.0106 99.0038 81.7795 99.5428 81.7585 99.986C81.727 100.44 81.874 100.809 81.9897 101.044C82.1104 101.279 82.1946 101.401 82.1946 101.401C82.1946 101.401 82.163 101.38 82.1104 101.337C82.0527 101.295 81.9739 101.226 81.8793 101.124C81.6955 100.921 81.4276 100.568 81.3592 100.003C81.291 99.4579 81.4801 98.6833 82.1473 98.1866C82.473 97.941 82.9142 97.7861 83.3712 97.8128C83.8439 97.8395 84.2958 98.0585 84.6267 98.4056C84.9628 98.7531 85.2045 99.217 85.2518 99.7303C85.3096 100.238 85.1519 100.766 84.8473 101.188C84.2065 102.011 83.1873 102.545 82.0369 102.549C81.4643 102.549 80.855 102.374 80.3717 101.946C79.8832 101.525 79.6153 100.852 79.589 100.211C79.5575 99.5645 79.6783 98.9397 79.899 98.3576C79.9567 98.2027 80.0092 98.0638 80.067 97.9357L80.2404 97.5458C80.3454 97.3109 80.4295 97.0598 80.5083 96.8141C80.6396 96.3121 80.7289 95.8155 80.7972 95.2921C80.855 94.8488 80.7972 94.3842 80.6396 93.9623C80.5766 93.7861 80.44 93.5191 80.2194 93.5351C79.8621 93.5565 79.9305 94.1867 79.941 94.427C79.9514 94.8328 80.0303 95.2441 80.1774 95.6232C80.5608 96.6165 81.0336 97.5405 81.5274 98.3896C82.0211 99.2437 82.515 100.029 82.9772 100.75C83.4448 101.471 83.8597 102.139 84.2117 102.747C84.2958 102.908 84.3745 103.046 84.448 103.223C84.5111 103.383 84.5374 103.559 84.5374 103.725C84.5374 104.056 84.3956 104.371 84.1802 104.541C83.9648 104.718 83.7284 104.776 83.5235 104.787C83.3187 104.787 83.1506 104.729 83.0298 104.659C82.7776 104.515 82.7094 104.355 82.7094 104.366L82.8301 104.286V104.302Z" fill="black"/>
<path id="Shape" fill-rule="evenodd" clip-rule="evenodd" d="M134.583 74.4219C138.318 76.1415 141.318 79.4045 142.957 83.3191H142.967C144.627 87.2122 145.11 91.7729 143.907 96.0613C142.81 100.387 139.868 104.162 136.091 106.614C132.702 108.633 128.889 109.968 124.891 110.528C125.317 112.868 125.706 115.132 126.042 117.311L126.082 117.607C126.282 119.059 126.465 120.385 126.509 121.936C126.541 123.468 126.189 124.979 125.669 126.315C124.671 129.038 122.496 131.089 120.221 131.799C117.937 132.547 115.824 132.28 114.139 131.666C112.479 131.014 111.281 130 110.498 129.049C110.343 128.863 110.211 128.676 110.085 128.498L110.051 128.451C109.358 127.693 108.906 126.71 108.796 125.632C108.775 125.423 108.764 125.209 108.77 124.996C108.833 122.304 111.05 120.184 113.687 120.253C116.329 120.328 118.435 122.561 118.362 125.258C118.288 127.949 116.071 130.075 113.418 129.995C113.23 129.989 113.046 129.973 112.867 129.946C114.538 131.036 117.038 131.677 119.686 130.449C123.237 128.654 125.254 123.441 123.846 117.647C123.515 115.453 123.115 113.151 122.674 110.753C118.178 111.057 113.508 110.406 108.97 108.644C104.352 106.774 99.9133 103.378 97.3338 98.3417C94.6757 93.3484 94.5707 87.0253 96.3725 81.7329C98.1113 76.3818 101.068 71.7036 104.667 67.6769C105.592 66.6088 106.496 65.6261 107.357 64.7877L109.957 62.1869C111.391 60.761 112.715 59.2284 113.96 57.6636C113.556 53.984 113.251 50.2297 113.156 46.3899C113.08 45.0394 113.006 43.6855 112.932 42.3284V42.3282V42.3281C112.872 41.2436 112.813 40.157 112.752 39.0682C112.62 36.5529 112.494 33.904 113.219 31.0843L113.35 30.5556C113.366 30.5041 113.371 30.4769 113.377 30.4463V30.4462C113.386 30.4039 113.395 30.3546 113.434 30.2244L113.513 30.0055C113.533 29.9531 113.551 29.9016 113.569 29.8503C113.652 29.6191 113.735 29.3879 113.881 29.0602C114.191 28.3072 114.527 27.661 114.968 26.94C115.893 25.6423 117.233 23.8106 120.184 23.3566C121.644 23.2125 123.085 23.9708 123.799 24.8947C124.545 25.8239 125.133 27.0095 125.422 27.6129C125.612 27.9962 125.787 28.3369 125.948 28.6496V28.6499C126.494 29.7139 126.874 30.4552 127.166 31.4581C128.92 36.4461 128.568 42.1016 128.022 47.6182C127.439 53.1883 124.96 58.4433 121.545 62.7263C120.179 64.5848 118.619 66.2671 116.996 67.8425C117.242 69.6582 117.506 71.4579 117.795 73.2256C117.942 74.1495 118.089 75.0627 118.241 75.9759C119.748 74.9239 121.488 74.064 123.484 73.5247C126.882 72.5687 130.974 72.7236 134.583 74.4219ZM117.449 35.1596C117.364 35.4194 117.286 35.654 117.217 35.8532H117.222C116.056 39.2177 115.436 42.8011 115.441 46.3686C115.452 49.3432 115.562 52.2911 115.741 55.2069C117.821 52.1629 119.686 49.0174 121.482 45.685C123.336 42.2351 124.282 38.2992 124.35 34.374C124.371 32.7184 124.125 30.1229 122.254 29.5195C119.585 28.6564 118.199 32.8772 117.449 35.1596ZM110.618 104.958C106.858 102.95 103.59 99.8636 102.078 96.0506C100.543 92.2589 100.864 87.9972 102.603 84.1041C104.352 80.2215 107.331 76.6862 110.566 73.5621C111.334 72.8304 112.168 72.0508 113.166 71.2336L114.511 70.0854C114.837 69.8131 115.163 69.5353 115.488 69.2523C115.581 69.8919 115.673 70.5303 115.765 71.1663L115.766 71.1689V71.1699C115.88 71.9507 115.993 72.7275 116.103 73.4979C116.297 74.7423 116.492 75.9706 116.686 77.1882C113.85 79.7035 112.1 82.9238 111.401 85.765C110.251 90.582 111.286 94.3257 112.163 96.5472C112.62 97.6741 113.046 98.4806 113.372 99.0196C113.692 99.5487 113.854 99.8152 113.854 99.8152C113.854 99.8152 113.535 98.566 113.282 96.2536C113.099 93.9838 113.051 90.5286 114.69 86.9398C115.325 85.4712 116.313 83.9973 117.595 82.6942C118.472 87.8531 119.36 92.7929 120.211 97.4818C120.702 100.282 121.214 102.993 121.708 105.602C121.853 106.372 121.997 107.133 122.139 107.885C118.151 107.816 114.133 106.865 110.618 104.958ZM134.898 104.687C138.382 102.651 140.74 99.1479 141.249 95.4739C141.749 91.7783 140.735 88.1895 138.965 85.4232C135.44 79.7837 129.587 77.7543 124.713 78.7529C122.59 79.1909 120.726 80.1147 119.16 81.3057C120.153 86.8224 121.199 92.0987 122.223 97.076C122.995 100.82 123.72 104.403 124.377 107.831C128.164 107.581 131.83 106.518 134.898 104.687Z" fill="url(#paint0_linear_0_808)"/>
</g>
</g>
</g>
<path id="Shape_2" fill-rule="evenodd" clip-rule="evenodd" d="M27.5267 65.5654C28.3213 66.226 29.1257 66.5563 29.9399 66.5563C30.3617 66.5563 30.7591 66.4281 31.1318 66.1718C31.5536 65.8661 31.8382 65.3682 31.9853 64.6781L32 64.5154C32 64.2688 31.8774 64.1259 31.6321 64.0865H31.5438C31.3182 64.0865 31.176 64.2097 31.1171 64.4562V64.5154C30.9504 65.2844 30.558 65.669 29.9399 65.669C29.7339 65.669 29.5181 65.6147 29.2925 65.5063C28.8216 65.2696 28.4538 64.9985 28.1889 64.6929C27.6788 64.1012 27.2667 63.3223 26.9528 62.3561C26.4035 60.5715 26.1288 58.5256 26.1288 56.2185C26.1288 53.0929 26.5506 50.135 27.3943 47.3447C28.0025 45.3334 28.8118 43.7015 29.8223 42.4494C29.9595 42.2818 30.0283 42.0944 30.0283 41.8874C30.0283 41.6212 29.9253 41.3944 29.7193 41.207C29.5328 41.069 29.3415 41 29.1453 41C29.0178 41 28.8902 41.0295 28.7628 41.0887C28.341 41.2169 27.9681 41.3796 27.6444 41.5768C26.0062 42.4247 24.52 44.0565 23.1858 46.4721C21.8222 49.0553 21.0815 52.1661 20.9638 55.8043C20.5028 54.9071 19.9976 54.0049 19.4482 53.0978C18.8989 52.1908 18.3838 51.2639 17.9031 50.3175C17.4225 49.3709 17.0644 48.3898 16.8289 47.3743C16.7308 46.9405 16.6818 46.5214 16.6818 46.1172C16.6818 45.7228 16.7308 45.3431 16.8289 44.9784C17.035 44.2487 17.5451 43.6621 18.3593 43.2184C18.526 43.1395 18.6095 43.0114 18.6095 42.8339C18.6095 42.7649 18.5898 42.6958 18.5506 42.6269C18.4623 42.4691 18.3347 42.3902 18.168 42.3902C18.0993 42.3902 18.0307 42.405 17.962 42.4346C16.8436 43.036 16.1079 43.8001 15.7548 44.727C15.5292 45.3481 15.4163 45.9989 15.4163 46.6792C15.4163 47.0243 15.4458 47.3743 15.5046 47.7292C15.7008 48.9716 16.0368 50.1103 16.5125 51.1457C16.9884 52.1809 17.5107 53.1718 18.0797 54.1183C18.4819 54.8183 18.862 55.5209 19.2201 56.2258C19.5781 56.9309 19.875 57.6678 20.1103 58.4369C20.2477 58.8608 20.5273 59.0728 20.9492 59.0728C21.2826 59.0728 21.5328 58.9447 21.6995 58.6883C21.8075 58.5305 21.8615 58.3679 21.8615 58.2002L21.8467 58.0671L21.832 56.884C21.832 54.7641 22.0135 52.9155 22.3765 51.3379C23.2789 47.3546 24.9711 44.4903 27.4531 42.7451C26.6095 44.165 25.9276 45.8165 25.4077 47.6997C24.672 50.3125 24.3041 52.9746 24.3041 55.6861C24.3041 58.5453 24.7358 60.956 25.5991 62.9181C26.0895 64.0224 26.7321 64.9048 27.5267 65.5654ZM12.0466 66.3937C12.6843 66.7979 13.2876 67 13.8566 67C14.1509 67 14.4353 66.9458 14.71 66.8373C16.054 66.1965 16.7259 64.5499 16.7259 61.8976C16.7259 60.7243 16.6474 59.556 16.4905 58.3925C16.3139 57.1699 16.0785 55.8142 15.7841 54.3254C15.176 51.5647 14.8719 49.2033 14.8719 47.2412C14.8719 44.3326 15.7743 42.6121 17.5794 42.0796C17.805 42.0303 17.9178 41.8923 17.9178 41.6655C17.9178 41.488 17.8541 41.3599 17.7266 41.281C17.6383 41.2317 17.5549 41.207 17.4764 41.207L17.3586 41.2218C14.8473 41.9416 13.4936 43.8248 13.2974 46.8715C13.2581 47.3546 13.2385 47.8426 13.2385 48.3356C13.2581 50.0414 13.5328 52.1809 14.0626 54.7542L14.2539 55.7599C14.3028 56.0261 14.3765 56.3861 14.4746 56.8396C14.965 59.0581 15.2495 60.6799 15.3281 61.7054C15.3771 62.3561 15.4016 62.8392 15.4016 63.1547C15.4016 63.6971 15.3574 64.19 15.2691 64.6337C15.0631 65.5999 14.5825 66.0831 13.8271 66.0831C13.4151 66.0831 12.9786 65.9351 12.5175 65.6394C11.5462 65.0084 10.6928 64.1012 9.95708 62.9181C9.25077 61.7842 8.89761 60.7391 8.89761 59.7827C8.89761 59.2996 9.06193 58.9249 9.39055 58.6587C9.71919 58.3925 10.1925 58.2594 10.8106 58.2594L11.0902 58.2742C11.2177 58.2742 11.3256 58.2347 11.4139 58.1559C11.5022 58.077 11.5512 57.9734 11.561 57.8452C11.561 57.727 11.5218 57.6234 11.4432 57.5347C11.3648 57.446 11.2692 57.3967 11.1563 57.3868C11.0435 57.377 10.9331 57.372 10.8253 57.372C9.91294 57.372 9.23605 57.5643 8.79461 57.9489C8.26487 58.4023 8 58.989 8 59.7088C8 60.8624 8.39975 62.085 9.19927 63.3765C9.99878 64.6682 10.9479 65.6739 12.0466 66.3937Z" fill="#2C2C2C"/>
<path id="Shape_3" fill-rule="evenodd" clip-rule="evenodd" d="M27.5267 65.5654C28.3213 66.226 29.1257 66.5563 29.9399 66.5563C30.3617 66.5563 30.7591 66.4281 31.1318 66.1718C31.5536 65.8661 31.8382 65.3682 31.9853 64.6781L32 64.5154C32 64.2688 31.8774 64.1259 31.6321 64.0865H31.5438C31.3182 64.0865 31.176 64.2097 31.1171 64.4562V64.5154C30.9504 65.2844 30.558 65.669 29.9399 65.669C29.7339 65.669 29.5181 65.6147 29.2925 65.5063C28.8216 65.2696 28.4538 64.9985 28.1889 64.6929C27.6788 64.1012 27.2667 63.3223 26.9528 62.3561C26.4035 60.5715 26.1288 58.5256 26.1288 56.2185C26.1288 53.0929 26.5506 50.135 27.3943 47.3447C28.0025 45.3334 28.8118 43.7015 29.8223 42.4494C29.9595 42.2818 30.0283 42.0944 30.0283 41.8874C30.0283 41.6212 29.9253 41.3944 29.7193 41.207C29.5328 41.069 29.3415 41 29.1453 41C29.0178 41 28.8902 41.0295 28.7628 41.0887C28.341 41.2169 27.9681 41.3796 27.6444 41.5768C26.0062 42.4247 24.52 44.0565 23.1858 46.4721C21.8222 49.0553 21.0815 52.1661 20.9638 55.8043C20.5028 54.9071 19.9976 54.0049 19.4482 53.0978C18.8989 52.1908 18.3838 51.2639 17.9031 50.3175C17.4225 49.3709 17.0644 48.3898 16.8289 47.3743C16.7308 46.9405 16.6818 46.5214 16.6818 46.1172C16.6818 45.7228 16.7308 45.3431 16.8289 44.9784C17.035 44.2487 17.5451 43.6621 18.3593 43.2184C18.526 43.1395 18.6095 43.0114 18.6095 42.8339C18.6095 42.7649 18.5898 42.6958 18.5506 42.6269C18.4623 42.4691 18.3347 42.3902 18.168 42.3902C18.0993 42.3902 18.0307 42.405 17.962 42.4346C16.8436 43.036 16.1079 43.8001 15.7548 44.727C15.5292 45.3481 15.4163 45.9989 15.4163 46.6792C15.4163 47.0243 15.4458 47.3743 15.5046 47.7292C15.7008 48.9716 16.0368 50.1103 16.5125 51.1457C16.9884 52.1809 17.5107 53.1718 18.0797 54.1183C18.4819 54.8183 18.862 55.5209 19.2201 56.2258C19.5781 56.9309 19.875 57.6678 20.1103 58.4369C20.2477 58.8608 20.5273 59.0728 20.9492 59.0728C21.2826 59.0728 21.5328 58.9447 21.6995 58.6883C21.8075 58.5305 21.8615 58.3679 21.8615 58.2002L21.8467 58.0671L21.832 56.884C21.832 54.7641 22.0135 52.9155 22.3765 51.3379C23.2789 47.3546 24.9711 44.4903 27.4531 42.7451C26.6095 44.165 25.9276 45.8165 25.4077 47.6997C24.672 50.3125 24.3041 52.9746 24.3041 55.6861C24.3041 58.5453 24.7358 60.956 25.5991 62.9181C26.0895 64.0224 26.7321 64.9048 27.5267 65.5654ZM12.0466 66.3937C12.6843 66.7979 13.2876 67 13.8566 67C14.1509 67 14.4353 66.9458 14.71 66.8373C16.054 66.1965 16.7259 64.5499 16.7259 61.8976C16.7259 60.7243 16.6474 59.556 16.4905 58.3925C16.3139 57.1699 16.0785 55.8142 15.7841 54.3254C15.176 51.5647 14.8719 49.2033 14.8719 47.2412C14.8719 44.3326 15.7743 42.6121 17.5794 42.0796C17.805 42.0303 17.9178 41.8923 17.9178 41.6655C17.9178 41.488 17.8541 41.3599 17.7266 41.281C17.6383 41.2317 17.5549 41.207 17.4764 41.207L17.3586 41.2218C14.8473 41.9416 13.4936 43.8248 13.2974 46.8715C13.2581 47.3546 13.2385 47.8426 13.2385 48.3356C13.2581 50.0414 13.5328 52.1809 14.0626 54.7542L14.2539 55.7599C14.3028 56.0261 14.3765 56.3861 14.4746 56.8396C14.965 59.0581 15.2495 60.6799 15.3281 61.7054C15.3771 62.3561 15.4016 62.8392 15.4016 63.1547C15.4016 63.6971 15.3574 64.19 15.2691 64.6337C15.0631 65.5999 14.5825 66.0831 13.8271 66.0831C13.4151 66.0831 12.9786 65.9351 12.5175 65.6394C11.5462 65.0084 10.6928 64.1012 9.95708 62.9181C9.25077 61.7842 8.89761 60.7391 8.89761 59.7827C8.89761 59.2996 9.06193 58.9249 9.39055 58.6587C9.71919 58.3925 10.1925 58.2594 10.8106 58.2594L11.0902 58.2742C11.2177 58.2742 11.3256 58.2347 11.4139 58.1559C11.5022 58.077 11.5512 57.9734 11.561 57.8452C11.561 57.727 11.5218 57.6234 11.4432 57.5347C11.3648 57.446 11.2692 57.3967 11.1563 57.3868C11.0435 57.377 10.9331 57.372 10.8253 57.372C9.91294 57.372 9.23605 57.5643 8.79461 57.9489C8.26487 58.4023 8 58.989 8 59.7088C8 60.8624 8.39975 62.085 9.19927 63.3765C9.99878 64.6682 10.9479 65.6739 12.0466 66.3937Z" fill="#2C2C2C"/>
<path id="Path_60" d="M34.1903 67C34.1254 67 33.9252 66.9735 33.5899 66.9205C33.2546 66.8675 32.8977 66.4699 32.5191 65.7279C32.173 64.9329 32 64 32 62.9293V62.659C32.0649 60.9204 32.357 59.5371 32.8761 58.5088C33.0816 58.1696 33.3737 58 33.7522 58C33.9036 58 34.0551 58.0371 34.2065 58.1113C34.5527 58.3127 34.7257 58.5936 34.7257 58.9541C34.7257 59.1024 34.6878 59.2508 34.6121 59.3993C34.0605 60.5548 33.7847 62.0707 33.7847 63.947C33.7847 65.0918 33.9144 65.8021 34.1741 66.0778C34.2174 66.1307 34.2659 66.1572 34.32 66.1572C34.6986 66.1572 35.2395 65.0229 35.9425 62.7545C36.2129 61.8745 36.5049 61.0345 36.8186 60.2341C37.1322 59.4338 37.4946 58.8163 37.9056 58.3816C38.1111 58.1272 38.376 58 38.7005 58C38.852 58 38.9981 58.0371 39.1386 58.1113C39.4955 58.3021 39.6741 58.583 39.6741 58.9541C39.6741 59.1024 39.6362 59.2508 39.5605 59.3993C39.2793 59.8869 38.9872 60.8091 38.6844 62.166C38.5113 62.9293 38.4247 63.5972 38.4247 64.1696C38.4247 64.6149 38.5221 64.9381 38.7168 65.1396C38.8141 65.235 38.9385 65.2826 39.0899 65.2826C39.2955 65.2826 39.5605 65.1979 39.8849 65.0283C40.5555 64.6254 41.1179 63.8834 41.5722 62.8021C41.821 62.219 41.9724 61.7632 42.0265 61.4346C42.0914 61.1802 42.2536 61.053 42.5132 61.053H42.5943C42.8647 61.1166 43 61.2597 43 61.4823C43 61.758 42.8214 62.3198 42.4646 63.1679C41.9454 64.4293 41.2532 65.3251 40.3879 65.8551C39.9336 66.0989 39.5118 66.2208 39.1224 66.2208C38.0624 66.2208 37.3593 65.5583 37.0132 64.2332C36.9051 63.788 36.851 63.3109 36.851 62.8021V62.659L36.7537 62.9929C36.3859 64.212 36.0073 65.2085 35.6179 65.9824C35.1962 66.6608 34.7202 67 34.1903 67Z" fill="#2C2C2C"/>
<path id="Path_61" d="M34.1903 67C34.1254 67 33.9252 66.9735 33.5899 66.9205C33.2546 66.8675 32.8977 66.4699 32.5191 65.7279C32.173 64.9329 32 64 32 62.9293V62.659C32.0649 60.9204 32.357 59.5371 32.8761 58.5088C33.0816 58.1696 33.3737 58 33.7522 58C33.9036 58 34.0551 58.0371 34.2065 58.1113C34.5527 58.3127 34.7257 58.5936 34.7257 58.9541C34.7257 59.1024 34.6878 59.2508 34.6121 59.3993C34.0605 60.5548 33.7847 62.0707 33.7847 63.947C33.7847 65.0918 33.9144 65.8021 34.1741 66.0778C34.2174 66.1307 34.2659 66.1572 34.32 66.1572C34.6986 66.1572 35.2395 65.0229 35.9425 62.7545C36.2129 61.8745 36.5049 61.0345 36.8186 60.2341C37.1322 59.4338 37.4946 58.8163 37.9056 58.3816C38.1111 58.1272 38.376 58 38.7005 58C38.852 58 38.9981 58.0371 39.1386 58.1113C39.4955 58.3021 39.6741 58.583 39.6741 58.9541C39.6741 59.1024 39.6362 59.2508 39.5605 59.3993C39.2793 59.8869 38.9872 60.8091 38.6844 62.166C38.5113 62.9293 38.4247 63.5972 38.4247 64.1696C38.4247 64.6149 38.5221 64.9381 38.7168 65.1396C38.8141 65.235 38.9385 65.2826 39.0899 65.2826C39.2955 65.2826 39.5605 65.1979 39.8849 65.0283C40.5555 64.6254 41.1179 63.8834 41.5722 62.8021C41.821 62.219 41.9724 61.7632 42.0265 61.4346C42.0914 61.1802 42.2536 61.053 42.5132 61.053H42.5943C42.8647 61.1166 43 61.2597 43 61.4823C43 61.758 42.8214 62.3198 42.4646 63.1679C41.9454 64.4293 41.2532 65.3251 40.3879 65.8551C39.9336 66.0989 39.5118 66.2208 39.1224 66.2208C38.0624 66.2208 37.3593 65.5583 37.0132 64.2332C36.9051 63.788 36.851 63.3109 36.851 62.8021V62.659L36.7537 62.9929C36.3859 64.212 36.0073 65.2085 35.6179 65.9824C35.1962 66.6608 34.7202 67 34.1903 67Z" fill="#2C2C2C"/>
<path id="Shape_4" fill-rule="evenodd" clip-rule="evenodd" d="M40.978 68.0313C41.4262 68.6771 42.0425 69 42.8269 69C43.4482 69 44.1053 68.7969 44.798 68.3907C45.7148 67.8489 46.4533 67.1146 47.0136 66.1875C47.3701 65.5938 47.5484 64.9896 47.5484 64.375C47.5484 63.3542 47.146 62.5364 46.3413 61.9218C47.1969 61.5573 47.9609 61.3073 48.6333 61.1718C48.8778 61.1094 49 60.9531 49 60.7031C49 60.5364 48.9338 60.4114 48.8013 60.3281C48.7199 60.2656 48.6333 60.2344 48.5416 60.2344L48.45 60.25C47.584 60.4271 46.5806 60.7812 45.4398 61.3125C44.9405 61.0312 44.4236 60.7708 43.8888 60.5312C43.354 60.2916 42.8243 59.9974 42.2997 59.6484C41.775 59.2994 41.4618 58.9218 41.36 58.5156V58.4219C41.36 58.1406 41.5077 57.8828 41.8031 57.6484C42.0985 57.414 42.4296 57.237 42.7963 57.1172C43.163 56.9974 43.4533 56.9374 43.6672 56.9374C44.2988 56.9374 44.7063 57.25 44.8896 57.875C44.9508 58.1146 45.0984 58.2344 45.3328 58.2344C45.5059 58.2344 45.6333 58.1666 45.7148 58.0312C45.7657 57.9479 45.7911 57.8645 45.7911 57.7812L45.7759 57.6562C45.511 56.5521 44.798 56 43.6367 56C42.8625 56 42.1341 56.2292 41.4517 56.6875C40.708 57.177 40.2394 57.8124 40.0459 58.5938C40.0154 58.7292 40 58.8697 40 59.0156C40 59.651 40.3464 60.3021 41.0391 60.9687C41.6808 61.5 42.4957 61.9739 43.4839 62.3906C42.506 63.026 41.7318 63.75 41.1613 64.5625C40.7538 65.2396 40.5501 65.8958 40.5501 66.5312C40.5501 67.0312 40.6876 67.5208 40.9626 68L40.978 68.0313ZM44.1867 67.5937C43.7691 67.9166 43.3362 68.0781 42.888 68.0781C42.3583 68.0677 41.9763 67.875 41.7419 67.5C41.5484 67.1875 41.4517 66.8541 41.4517 66.5C41.4618 66.0521 41.6197 65.5833 41.9254 65.0937C42.506 64.2708 43.3412 63.5364 44.4313 62.8906C45.2869 63.3593 45.7199 63.9896 45.73 64.7812C45.73 65.1667 45.6384 65.5677 45.455 65.9844C45.1596 66.6406 44.7369 67.177 44.1867 67.5937Z" fill="#2C2C2C"/>
<path id="Shape_5" fill-rule="evenodd" clip-rule="evenodd" d="M40.978 68.0313C41.4262 68.6771 42.0425 69 42.8269 69C43.4482 69 44.1053 68.7969 44.798 68.3907C45.7148 67.8489 46.4533 67.1146 47.0136 66.1875C47.3701 65.5938 47.5484 64.9896 47.5484 64.375C47.5484 63.3542 47.146 62.5364 46.3413 61.9218C47.1969 61.5573 47.9609 61.3073 48.6333 61.1718C48.8778 61.1094 49 60.9531 49 60.7031C49 60.5364 48.9338 60.4114 48.8013 60.3281C48.7199 60.2656 48.6333 60.2344 48.5416 60.2344L48.45 60.25C47.584 60.4271 46.5806 60.7812 45.4398 61.3125C44.9405 61.0312 44.4236 60.7708 43.8888 60.5312C43.354 60.2916 42.8243 59.9974 42.2997 59.6484C41.775 59.2994 41.4618 58.9218 41.36 58.5156V58.4219C41.36 58.1406 41.5077 57.8828 41.8031 57.6484C42.0985 57.414 42.4296 57.237 42.7963 57.1172C43.163 56.9974 43.4533 56.9374 43.6672 56.9374C44.2988 56.9374 44.7063 57.25 44.8896 57.875C44.9508 58.1146 45.0984 58.2344 45.3328 58.2344C45.5059 58.2344 45.6333 58.1666 45.7148 58.0312C45.7657 57.9479 45.7911 57.8645 45.7911 57.7812L45.7759 57.6562C45.511 56.5521 44.798 56 43.6367 56C42.8625 56 42.1341 56.2292 41.4517 56.6875C40.708 57.177 40.2394 57.8124 40.0459 58.5938C40.0154 58.7292 40 58.8697 40 59.0156C40 59.651 40.3464 60.3021 41.0391 60.9687C41.6808 61.5 42.4957 61.9739 43.4839 62.3906C42.506 63.026 41.7318 63.75 41.1613 64.5625C40.7538 65.2396 40.5501 65.8958 40.5501 66.5312C40.5501 67.0312 40.6876 67.5208 40.9626 68L40.978 68.0313ZM44.1867 67.5937C43.7691 67.9166 43.3362 68.0781 42.888 68.0781C42.3583 68.0677 41.9763 67.875 41.7419 67.5C41.5484 67.1875 41.4517 66.8541 41.4517 66.5C41.4618 66.0521 41.6197 65.5833 41.9254 65.0937C42.506 64.2708 43.3412 63.5364 44.4313 62.8906C45.2869 63.3593 45.7199 63.9896 45.73 64.7812C45.73 65.1667 45.6384 65.5677 45.455 65.9844C45.1596 66.6406 44.7369 67.177 44.1867 67.5937Z" fill="#2C2C2C"/>
<path id="Shape_6" fill-rule="evenodd" clip-rule="evenodd" d="M51.2755 57.8589C51.4577 58.074 51.6789 58.1816 51.9393 58.1816C52.1909 58.1816 52.4078 58.074 52.5901 57.8589C52.7723 57.6438 52.8634 57.3878 52.8634 57.0907C52.8634 56.7835 52.7723 56.5248 52.5901 56.315C52.4078 56.105 52.1909 56 51.9393 56C51.6789 56 51.4577 56.105 51.2755 56.315C51.0933 56.5248 51.0022 56.7835 51.0022 57.0907C51.0022 57.3878 51.0933 57.6438 51.2755 57.8589ZM52.0174 67H52.1605C52.8894 66.959 53.5662 66.5237 54.1909 65.6941C54.9458 64.6802 55.5401 63.4255 55.9739 61.9302C55.9913 61.879 56 61.8278 56 61.7765C56 61.5717 55.9132 61.4283 55.7397 61.3463C55.6963 61.3259 55.6529 61.3156 55.6095 61.3156C55.4273 61.3156 55.3016 61.4181 55.2321 61.6229C54.8677 62.9646 54.3254 64.1169 53.6052 65.0796C53.3623 65.3971 53.102 65.6481 52.8243 65.8324C52.5901 65.9963 52.3775 66.0834 52.1866 66.0936C51.6399 66.0936 51.3666 65.4074 51.3666 64.0349C51.3666 63.5433 51.4143 63.0056 51.5098 62.4218C51.7007 61.2235 51.9263 60.3273 52.1866 59.7332C52.2473 59.5898 52.2777 59.4465 52.2777 59.3031C52.2777 58.9548 52.1389 58.6834 51.8611 58.4888C51.7397 58.4172 51.6182 58.3813 51.4967 58.3813C51.1931 58.3813 50.9588 58.5451 50.794 58.8729C50.2647 60.1122 50 61.5103 50 63.0671C50 64.2756 50.2083 65.2844 50.6247 66.0936C50.9892 66.6978 51.4533 67 52.0174 67Z" fill="#2C2C2C"/>
<path id="Shape_7" fill-rule="evenodd" clip-rule="evenodd" d="M51.2755 57.8589C51.4577 58.074 51.6789 58.1816 51.9393 58.1816C52.1909 58.1816 52.4078 58.074 52.5901 57.8589C52.7723 57.6438 52.8634 57.3878 52.8634 57.0907C52.8634 56.7835 52.7723 56.5248 52.5901 56.315C52.4078 56.105 52.1909 56 51.9393 56C51.6789 56 51.4577 56.105 51.2755 56.315C51.0933 56.5248 51.0022 56.7835 51.0022 57.0907C51.0022 57.3878 51.0933 57.6438 51.2755 57.8589ZM52.0174 67H52.1605C52.8894 66.959 53.5662 66.5237 54.1909 65.6941C54.9458 64.6802 55.5401 63.4255 55.9739 61.9302C55.9913 61.879 56 61.8278 56 61.7765C56 61.5717 55.9132 61.4283 55.7397 61.3463C55.6963 61.3259 55.6529 61.3156 55.6095 61.3156C55.4273 61.3156 55.3016 61.4181 55.2321 61.6229C54.8677 62.9646 54.3254 64.1169 53.6052 65.0796C53.3623 65.3971 53.102 65.6481 52.8243 65.8324C52.5901 65.9963 52.3775 66.0834 52.1866 66.0936C51.6399 66.0936 51.3666 65.4074 51.3666 64.0349C51.3666 63.5433 51.4143 63.0056 51.5098 62.4218C51.7007 61.2235 51.9263 60.3273 52.1866 59.7332C52.2473 59.5898 52.2777 59.4465 52.2777 59.3031C52.2777 58.9548 52.1389 58.6834 51.8611 58.4888C51.7397 58.4172 51.6182 58.3813 51.4967 58.3813C51.1931 58.3813 50.9588 58.5451 50.794 58.8729C50.2647 60.1122 50 61.5103 50 63.0671C50 64.2756 50.2083 65.2844 50.6247 66.0936C50.9892 66.6978 51.4533 67 52.0174 67Z" fill="#2C2C2C"/>
<path id="Path_62" d="M59.166 67H59.0697C58.3625 67 57.7411 66.7816 57.2053 66.3451C56.4018 65.6958 56 64.6828 56 63.306C56 62.1754 56.3 61.1287 56.9 60.166C57.3714 59.416 57.9607 58.834 58.6679 58.4198C59.1393 58.14 59.6375 58 60.1625 58C60.9018 58 61.4428 58.2239 61.7857 58.6717C62.0107 58.9515 62.1393 59.293 62.1714 59.6959C62.1714 59.7967 62.1312 59.903 62.0509 60.015C61.9705 60.1269 61.8447 60.1829 61.6732 60.1829C61.4268 60.1829 61.2714 60.043 61.2071 59.763C61.1322 59.293 60.8964 59.0579 60.4999 59.0579C59.8785 59.0579 59.3482 59.416 58.9089 60.1325C58.4054 60.9497 58.0892 61.8955 57.9607 62.9702C57.9285 63.2052 57.9125 63.4515 57.9125 63.709C57.9125 64.3806 58.0572 64.9458 58.3464 65.4048C58.5607 65.7518 58.8929 65.9253 59.3429 65.9253C60.3393 65.9253 61.3518 65.3545 62.3803 64.2127C62.9697 63.5635 63.5322 62.6903 64.0678 61.5933C64.1643 61.4142 64.3036 61.3247 64.4857 61.3247C64.5714 61.3247 64.6518 61.3415 64.7268 61.375C64.9089 61.4757 65 61.6269 65 61.8283C65 61.8955 64.9786 61.9683 64.9357 62.0467C64.3572 63.2332 63.7465 64.1791 63.1036 64.8843C62.3536 65.7126 61.6142 66.2835 60.8857 66.597C60.2643 66.8433 59.6911 66.9776 59.166 67Z" fill="#2C2C2C"/>
<path id="Path_63" d="M59.166 67H59.0697C58.3625 67 57.7411 66.7816 57.2053 66.3451C56.4018 65.6958 56 64.6828 56 63.306C56 62.1754 56.3 61.1287 56.9 60.166C57.3714 59.416 57.9607 58.834 58.6679 58.4198C59.1393 58.14 59.6375 58 60.1625 58C60.9018 58 61.4428 58.2239 61.7857 58.6717C62.0107 58.9515 62.1393 59.293 62.1714 59.6959C62.1714 59.7967 62.1312 59.903 62.0509 60.015C61.9705 60.1269 61.8447 60.1829 61.6732 60.1829C61.4268 60.1829 61.2714 60.043 61.2071 59.763C61.1322 59.293 60.8964 59.0579 60.4999 59.0579C59.8785 59.0579 59.3482 59.416 58.9089 60.1325C58.4054 60.9497 58.0892 61.8955 57.9607 62.9702C57.9285 63.2052 57.9125 63.4515 57.9125 63.709C57.9125 64.3806 58.0572 64.9458 58.3464 65.4048C58.5607 65.7518 58.8929 65.9253 59.3429 65.9253C60.3393 65.9253 61.3518 65.3545 62.3803 64.2127C62.9697 63.5635 63.5322 62.6903 64.0678 61.5933C64.1643 61.4142 64.3036 61.3247 64.4857 61.3247C64.5714 61.3247 64.6518 61.3415 64.7268 61.375C64.9089 61.4757 65 61.6269 65 61.8283C65 61.8955 64.9786 61.9683 64.9357 62.0467C64.3572 63.2332 63.7465 64.1791 63.1036 64.8843C62.3536 65.7126 61.6142 66.2835 60.8857 66.597C60.2643 66.8433 59.6911 66.9776 59.166 67Z" fill="#2C2C2C"/>
<path id="Shape_8" fill-rule="evenodd" clip-rule="evenodd" d="M69.6915 67H69.7409C71.0556 67 72.2609 66.1656 73.3565 64.4966C74.0249 63.3742 74.5673 62.1673 74.9836 60.8759L75 60.7417C75 60.5232 74.885 60.3792 74.6549 60.3097L74.5234 60.2947C74.2714 60.2947 74.107 60.3991 74.0303 60.6076C73.6797 61.7997 73.1648 62.947 72.4855 64.0496C71.9048 64.9437 71.2857 65.5596 70.6283 65.8974C70.3106 66.0662 70.0148 66.1506 69.7409 66.1506C68.9738 66.1208 68.5904 65.5447 68.5904 64.4222C68.5904 63.4884 68.8205 62.4056 69.2807 61.1738C69.5546 60.4388 69.8121 59.8824 70.0531 59.505C70.1517 59.356 70.201 59.202 70.201 59.0431C70.201 58.7252 70.0421 58.4719 69.7245 58.2831C69.5492 58.2037 69.3738 58.1639 69.1985 58.1639C68.8479 58.1639 68.5685 58.3079 68.3604 58.5961C68.2617 58.7352 68.1685 58.8891 68.0809 59.058C67.0948 58.3725 66.2183 58.0199 65.4514 58C65.287 58 65.1281 58.015 64.9747 58.0448C64.1091 58.1937 63.4298 58.6209 62.9369 59.3262C62.3123 60.2003 62 61.1292 62 62.1126C62.0109 62.6987 62.148 63.1854 62.4109 63.5728C62.6409 63.8907 62.9642 64.0496 63.3805 64.0496C63.6106 64.0496 63.8736 64.005 64.1694 63.9156C64.7611 63.7169 65.4075 63.0761 66.1087 61.9934C66.1197 61.9537 66.2402 61.7798 66.4702 61.4718C66.8757 60.8659 67.2318 60.4983 67.5385 60.3692C67.2537 61.303 67.1113 62.2567 67.1113 63.2302V63.4388C67.177 64.9188 67.566 65.9371 68.2781 66.4933C68.7164 66.8311 69.1875 67 69.6915 67ZM65.3527 61.6209C64.7282 62.5844 64.2461 63.0663 63.9065 63.0663C63.6874 63.0663 63.5778 62.8526 63.5778 62.4255C63.5778 61.7699 63.8188 61.0696 64.3008 60.3245C64.6296 59.8179 65.0569 59.4653 65.5828 59.2666C65.7472 59.207 65.9334 59.1772 66.1416 59.1772C66.5361 59.1772 66.9633 59.3113 67.4235 59.5795C66.8538 59.7384 66.3005 60.2203 65.7636 61.0248V61.0398C65.7527 61.0398 65.7472 61.0447 65.7472 61.0547L65.3691 61.5911L65.3527 61.6209Z" fill="#2C2C2C"/>
<path id="Shape_9" fill-rule="evenodd" clip-rule="evenodd" d="M69.6915 67H69.7409C71.0556 67 72.2609 66.1656 73.3565 64.4966C74.0249 63.3742 74.5673 62.1673 74.9836 60.8759L75 60.7417C75 60.5232 74.885 60.3792 74.6549 60.3097L74.5234 60.2947C74.2714 60.2947 74.107 60.3991 74.0303 60.6076C73.6797 61.7997 73.1648 62.947 72.4855 64.0496C71.9048 64.9437 71.2857 65.5596 70.6283 65.8974C70.3106 66.0662 70.0148 66.1506 69.7409 66.1506C68.9738 66.1208 68.5904 65.5447 68.5904 64.4222C68.5904 63.4884 68.8205 62.4056 69.2807 61.1738C69.5546 60.4388 69.8121 59.8824 70.0531 59.505C70.1517 59.356 70.201 59.202 70.201 59.0431C70.201 58.7252 70.0421 58.4719 69.7245 58.2831C69.5492 58.2037 69.3738 58.1639 69.1985 58.1639C68.8479 58.1639 68.5685 58.3079 68.3604 58.5961C68.2617 58.7352 68.1685 58.8891 68.0809 59.058C67.0948 58.3725 66.2183 58.0199 65.4514 58C65.287 58 65.1281 58.015 64.9747 58.0448C64.1091 58.1937 63.4298 58.6209 62.9369 59.3262C62.3123 60.2003 62 61.1292 62 62.1126C62.0109 62.6987 62.148 63.1854 62.4109 63.5728C62.6409 63.8907 62.9642 64.0496 63.3805 64.0496C63.6106 64.0496 63.8736 64.005 64.1694 63.9156C64.7611 63.7169 65.4075 63.0761 66.1087 61.9934C66.1197 61.9537 66.2402 61.7798 66.4702 61.4718C66.8757 60.8659 67.2318 60.4983 67.5385 60.3692C67.2537 61.303 67.1113 62.2567 67.1113 63.2302V63.4388C67.177 64.9188 67.566 65.9371 68.2781 66.4933C68.7164 66.8311 69.1875 67 69.6915 67ZM65.3527 61.6209C64.7282 62.5844 64.2461 63.0663 63.9065 63.0663C63.6874 63.0663 63.5778 62.8526 63.5778 62.4255C63.5778 61.7699 63.8188 61.0696 64.3008 60.3245C64.6296 59.8179 65.0569 59.4653 65.5828 59.2666C65.7472 59.207 65.9334 59.1772 66.1416 59.1772C66.5361 59.1772 66.9633 59.3113 67.4235 59.5795C66.8538 59.7384 66.3005 60.2203 65.7636 61.0248V61.0398C65.7527 61.0398 65.7472 61.0447 65.7472 61.0547L65.3691 61.5911L65.3527 61.6209Z" fill="#2C2C2C"/>
<path id="Shape_10" fill-rule="evenodd" clip-rule="evenodd" d="M75.3777 66.4162C75.7861 66.7849 76.2674 66.9795 76.8217 67C77.5899 67 78.3339 66.6875 79.0535 66.0627C80.4538 64.7926 81.4311 63.0564 81.9854 60.854L82 60.7465C82 60.5109 81.8833 60.3624 81.65 60.3009L81.5625 60.2855C81.3387 60.2855 81.193 60.4084 81.1248 60.6543C80.6288 62.6517 79.7537 64.219 78.4992 65.356C77.9352 65.8374 77.4295 66.0781 76.9821 66.0781C75.9417 66.0781 75.2756 64.8642 74.9838 62.4366C74.8379 61.2996 74.7649 60.0858 74.7649 58.7951C75.4749 58.242 76.3817 57.2944 77.4854 55.9526C78.5892 54.6107 79.5349 53.2074 80.3225 51.7426V51.7272C81.2755 49.8937 81.7521 48.2547 81.7521 46.8105C81.7521 46.667 81.7472 46.5288 81.7375 46.3957C81.6402 45.4225 81.3728 44.6491 80.9352 44.0755C80.4101 43.3585 79.7099 43 78.8347 43C78.2221 43 77.6629 43.1792 77.1572 43.5377C76.4278 44.0602 75.8128 44.7541 75.312 45.6197C74.8112 46.4852 74.4489 47.3124 74.2253 48.1012C73.4084 50.8668 73 53.9449 73 57.3355C73 59.0768 73.1312 60.639 73.3938 62.0217C73.7828 64.0807 74.444 65.5455 75.3777 66.4162ZM77.1718 54.9078C76.2577 56.0551 75.4603 56.9514 74.7796 57.5966C74.8573 55.1178 74.9935 53.2893 75.188 52.1114C75.4213 50.5953 75.6742 49.4123 75.9465 48.5621C76.4327 46.7388 77.0211 45.4122 77.7115 44.5825C78.0713 44.1626 78.4846 43.9474 78.9514 43.9373C79.4766 43.9373 79.9069 44.1626 80.2423 44.6133C80.5778 45.064 80.7796 45.6837 80.8477 46.4724L80.8623 46.7951C80.8623 48.0858 80.4246 49.5864 79.5495 51.2971L79.5349 51.3278C78.8736 52.5672 78.0859 53.7605 77.1718 54.9078Z" fill="#2C2C2C"/>
<path id="Shape_11" fill-rule="evenodd" clip-rule="evenodd" d="M75.3777 66.4162C75.7861 66.7849 76.2674 66.9795 76.8217 67C77.5899 67 78.3339 66.6875 79.0535 66.0627C80.4538 64.7926 81.4311 63.0564 81.9854 60.854L82 60.7465C82 60.5109 81.8833 60.3624 81.65 60.3009L81.5625 60.2855C81.3387 60.2855 81.193 60.4084 81.1248 60.6543C80.6288 62.6517 79.7537 64.219 78.4992 65.356C77.9352 65.8374 77.4295 66.0781 76.9821 66.0781C75.9417 66.0781 75.2756 64.8642 74.9838 62.4366C74.8379 61.2996 74.7649 60.0858 74.7649 58.7951C75.4749 58.242 76.3817 57.2944 77.4854 55.9526C78.5892 54.6107 79.5349 53.2074 80.3225 51.7426V51.7272C81.2755 49.8937 81.7521 48.2547 81.7521 46.8105C81.7521 46.667 81.7472 46.5288 81.7375 46.3957C81.6402 45.4225 81.3728 44.6491 80.9352 44.0755C80.4101 43.3585 79.7099 43 78.8347 43C78.2221 43 77.6629 43.1792 77.1572 43.5377C76.4278 44.0602 75.8128 44.7541 75.312 45.6197C74.8112 46.4852 74.4489 47.3124 74.2253 48.1012C73.4084 50.8668 73 53.9449 73 57.3355C73 59.0768 73.1312 60.639 73.3938 62.0217C73.7828 64.0807 74.444 65.5455 75.3777 66.4162ZM77.1718 54.9078C76.2577 56.0551 75.4603 56.9514 74.7796 57.5966C74.8573 55.1178 74.9935 53.2893 75.188 52.1114C75.4213 50.5953 75.6742 49.4123 75.9465 48.5621C76.4327 46.7388 77.0211 45.4122 77.7115 44.5825C78.0713 44.1626 78.4846 43.9474 78.9514 43.9373C79.4766 43.9373 79.9069 44.1626 80.2423 44.6133C80.5778 45.064 80.7796 45.6837 80.8477 46.4724L80.8623 46.7951C80.8623 48.0858 80.4246 49.5864 79.5495 51.2971L79.5349 51.3278C78.8736 52.5672 78.0859 53.7605 77.1718 54.9078Z" fill="#2C2C2C"/>
<path id="Shape_12" fill-rule="evenodd" clip-rule="evenodd" d="M83.3776 66.4162C83.7861 66.7849 84.2675 66.9795 84.8218 67C85.59 67 86.3339 66.6875 87.0535 66.0627C88.4539 64.7926 89.4311 63.0564 89.9854 60.854L90 60.7465C90 60.5109 89.8833 60.3624 89.6499 60.3009L89.5625 60.2855C89.3387 60.2855 89.1929 60.4084 89.1248 60.6543C88.6289 62.6517 87.7537 64.219 86.4992 65.356C85.9352 65.8374 85.4295 66.0781 84.9822 66.0781C83.9416 66.0781 83.2755 64.8642 82.9839 62.4366C82.838 61.2996 82.765 60.0858 82.765 58.7951C83.4749 58.242 84.3817 57.2944 85.4854 55.9526C86.5891 54.6107 87.5348 53.2074 88.3225 51.7426V51.7272C89.2756 49.8937 89.752 48.2547 89.752 46.8105C89.752 46.667 89.7472 46.5288 89.7375 46.3957C89.6402 45.4225 89.3728 44.6491 88.9352 44.0755C88.4101 43.3585 87.7099 43 86.8347 43C86.2221 43 85.6629 43.1792 85.1572 43.5377C84.4279 44.0602 83.8128 44.7541 83.3121 45.6197C82.8112 46.4852 82.449 47.3124 82.2254 48.1012C81.4084 50.8668 81 53.9449 81 57.3355C81 59.0768 81.1313 60.639 81.3939 62.0217C81.7829 64.0807 82.4441 65.5455 83.3776 66.4162ZM85.1718 54.9078C84.2578 56.0551 83.4603 56.9514 82.7796 57.5966C82.8574 55.1178 82.9936 53.2893 83.1881 52.1114C83.4214 50.5953 83.6742 49.4123 83.9466 48.5621C84.4327 46.7388 85.0211 45.4122 85.7115 44.5825C86.0714 44.1626 86.4847 43.9474 86.9514 43.9373C87.4765 43.9373 87.9068 44.1626 88.2423 44.6133C88.5779 45.064 88.7796 45.6837 88.8476 46.4724L88.8623 46.7951C88.8623 48.0858 88.4247 49.5864 87.5495 51.2971L87.5348 51.3278C86.8736 52.5672 86.0859 53.7605 85.1718 54.9078Z" fill="#2C2C2C"/>
<path id="Shape_13" fill-rule="evenodd" clip-rule="evenodd" d="M83.3776 66.4162C83.7861 66.7849 84.2675 66.9795 84.8218 67C85.59 67 86.3339 66.6875 87.0535 66.0627C88.4539 64.7926 89.4311 63.0564 89.9854 60.854L90 60.7465C90 60.5109 89.8833 60.3624 89.6499 60.3009L89.5625 60.2855C89.3387 60.2855 89.1929 60.4084 89.1248 60.6543C88.6289 62.6517 87.7537 64.219 86.4992 65.356C85.9352 65.8374 85.4295 66.0781 84.9822 66.0781C83.9416 66.0781 83.2755 64.8642 82.9839 62.4366C82.838 61.2996 82.765 60.0858 82.765 58.7951C83.4749 58.242 84.3817 57.2944 85.4854 55.9526C86.5891 54.6107 87.5348 53.2074 88.3225 51.7426V51.7272C89.2756 49.8937 89.752 48.2547 89.752 46.8105C89.752 46.667 89.7472 46.5288 89.7375 46.3957C89.6402 45.4225 89.3728 44.6491 88.9352 44.0755C88.4101 43.3585 87.7099 43 86.8347 43C86.2221 43 85.6629 43.1792 85.1572 43.5377C84.4279 44.0602 83.8128 44.7541 83.3121 45.6197C82.8112 46.4852 82.449 47.3124 82.2254 48.1012C81.4084 50.8668 81 53.9449 81 57.3355C81 59.0768 81.1313 60.639 81.3939 62.0217C81.7829 64.0807 82.4441 65.5455 83.3776 66.4162ZM85.1718 54.9078C84.2578 56.0551 83.4603 56.9514 82.7796 57.5966C82.8574 55.1178 82.9936 53.2893 83.1881 52.1114C83.4214 50.5953 83.6742 49.4123 83.9466 48.5621C84.4327 46.7388 85.0211 45.4122 85.7115 44.5825C86.0714 44.1626 86.4847 43.9474 86.9514 43.9373C87.4765 43.9373 87.9068 44.1626 88.2423 44.6133C88.5779 45.064 88.7796 45.6837 88.8476 46.4724L88.8623 46.7951C88.8623 48.0858 88.4247 49.5864 87.5495 51.2971L87.5348 51.3278C86.8736 52.5672 86.0859 53.7605 85.1718 54.9078Z" fill="#2C2C2C"/>
<path id="Shape_14" fill-rule="evenodd" clip-rule="evenodd" d="M86.5277 76.4839C87.2139 76.828 87.9304 77 88.6771 77C91.1493 77 92.9506 75.8468 94.0807 73.5404C94.999 71.6711 95.4682 69.4948 95.4884 67.0117L95.5035 66.5514C95.5035 65.5935 95.5187 64.7751 95.5489 64.0962C96.8103 63.1941 97.9405 62.0502 98.9395 60.6645C98.9799 60.6087 99 60.5529 99 60.497C99 60.3576 98.9395 60.2459 98.8184 60.1622C98.7477 60.125 98.6771 60.1065 98.6064 60.1065C98.4652 60.1065 98.3542 60.1622 98.2734 60.2739C97.4964 61.3713 96.6136 62.3059 95.6247 63.0778C95.7256 61.7293 96.114 60.4878 96.7901 59.3532C96.8708 59.223 96.9112 59.0881 96.9112 58.9486C96.9112 58.6883 96.7801 58.479 96.5177 58.3209C96.3965 58.2558 96.2704 58.2232 96.1392 58.2232H96.0485C95.4632 58.2697 94.9838 58.5743 94.6105 59.137C94.2371 59.6996 93.9042 60.3437 93.6115 61.069L93.5964 61.083C93.1927 61.9944 92.8749 62.5942 92.6428 62.8825C92.5116 63.0592 92.3754 63.1476 92.2341 63.1476C92.0423 63.1476 91.8658 62.9336 91.7043 62.5059C91.563 62.1339 91.4924 61.7061 91.4924 61.2225C91.4924 60.4878 91.664 59.8321 92.0071 59.2555C92.0878 59.116 92.1282 58.9719 92.1282 58.8231C92.1282 58.5161 91.9768 58.279 91.674 58.1117C91.5228 58.0372 91.3664 58 91.2048 58C90.8819 58 90.6196 58.1441 90.4178 58.4324C89.9334 59.2602 89.6913 60.0413 89.6913 60.7761C89.6913 60.9342 89.7013 61.0923 89.7215 61.2504C89.8426 62.1246 90.1857 62.8128 90.7508 63.315C91.2654 63.78 91.7347 64.0125 92.1585 64.0125C92.8043 64.0125 93.3694 63.5521 93.8537 62.6314C93.7729 63.208 93.7225 63.8079 93.7023 64.431C92.5217 65.1378 91.3511 65.7702 90.1907 66.3282C88.9496 66.9234 87.8395 67.5326 86.8608 68.1557C85.8819 68.7788 85.1252 69.5274 84.5904 70.4016C84.5904 70.4202 84.5853 70.4342 84.5752 70.4434C84.1918 71.2061 84 71.9361 84 72.6336C84 73.5822 84.3128 74.4425 84.9385 75.2144C85.3723 75.7538 85.9022 76.1769 86.5277 76.4839ZM91.1443 75.2841C90.4884 75.9444 89.6358 76.2745 88.5863 76.2745C87.9909 76.2467 87.4309 76.1025 86.9062 75.8421C86.3815 75.5818 85.9374 75.2283 85.5742 74.7819C85.1504 74.2704 84.8981 73.6659 84.8174 72.9684C84.8073 72.8475 84.8023 72.7219 84.8023 72.5917C84.8023 72.0059 84.9637 71.392 85.2866 70.7504L85.3017 70.7364C85.7659 69.9552 86.4622 69.274 87.3905 68.6927C88.3189 68.1115 89.3784 67.5372 90.5691 66.9699C91.5883 66.4677 92.6277 65.9144 93.6872 65.3099L93.672 66.0911C93.6519 70.5644 92.8093 73.6287 91.1443 75.2841Z" fill="#2C2C2C"/>
<path id="Shape_15" fill-rule="evenodd" clip-rule="evenodd" d="M86.5277 76.4839C87.2139 76.828 87.9304 77 88.6771 77C91.1493 77 92.9506 75.8468 94.0807 73.5404C94.999 71.6711 95.4682 69.4948 95.4884 67.0117L95.5035 66.5514C95.5035 65.5935 95.5187 64.7751 95.5489 64.0962C96.8103 63.1941 97.9405 62.0502 98.9395 60.6645C98.9799 60.6087 99 60.5529 99 60.497C99 60.3576 98.9395 60.2459 98.8184 60.1622C98.7477 60.125 98.6771 60.1065 98.6064 60.1065C98.4652 60.1065 98.3542 60.1622 98.2734 60.2739C97.4964 61.3713 96.6136 62.3059 95.6247 63.0778C95.7256 61.7293 96.114 60.4878 96.7901 59.3532C96.8708 59.223 96.9112 59.0881 96.9112 58.9486C96.9112 58.6883 96.7801 58.479 96.5177 58.3209C96.3965 58.2558 96.2704 58.2232 96.1392 58.2232H96.0485C95.4632 58.2697 94.9838 58.5743 94.6105 59.137C94.2371 59.6996 93.9042 60.3437 93.6115 61.069L93.5964 61.083C93.1927 61.9944 92.8749 62.5942 92.6428 62.8825C92.5116 63.0592 92.3754 63.1476 92.2341 63.1476C92.0423 63.1476 91.8658 62.9336 91.7043 62.5059C91.563 62.1339 91.4924 61.7061 91.4924 61.2225C91.4924 60.4878 91.664 59.8321 92.0071 59.2555C92.0878 59.116 92.1282 58.9719 92.1282 58.8231C92.1282 58.5161 91.9768 58.279 91.674 58.1117C91.5228 58.0372 91.3664 58 91.2048 58C90.8819 58 90.6196 58.1441 90.4178 58.4324C89.9334 59.2602 89.6913 60.0413 89.6913 60.7761C89.6913 60.9342 89.7013 61.0923 89.7215 61.2504C89.8426 62.1246 90.1857 62.8128 90.7508 63.315C91.2654 63.78 91.7347 64.0125 92.1585 64.0125C92.8043 64.0125 93.3694 63.5521 93.8537 62.6314C93.7729 63.208 93.7225 63.8079 93.7023 64.431C92.5217 65.1378 91.3511 65.7702 90.1907 66.3282C88.9496 66.9234 87.8395 67.5326 86.8608 68.1557C85.8819 68.7788 85.1252 69.5274 84.5904 70.4016C84.5904 70.4202 84.5853 70.4342 84.5752 70.4434C84.1918 71.2061 84 71.9361 84 72.6336C84 73.5822 84.3128 74.4425 84.9385 75.2144C85.3723 75.7538 85.9022 76.1769 86.5277 76.4839ZM91.1443 75.2841C90.4884 75.9444 89.6358 76.2745 88.5863 76.2745C87.9909 76.2467 87.4309 76.1025 86.9062 75.8421C86.3815 75.5818 85.9374 75.2283 85.5742 74.7819C85.1504 74.2704 84.8981 73.6659 84.8174 72.9684C84.8073 72.8475 84.8023 72.7219 84.8023 72.5917C84.8023 72.0059 84.9637 71.392 85.2866 70.7504L85.3017 70.7364C85.7659 69.9552 86.4622 69.274 87.3905 68.6927C88.3189 68.1115 89.3784 67.5372 90.5691 66.9699C91.5883 66.4677 92.6277 65.9144 93.6872 65.3099L93.672 66.0911C93.6519 70.5644 92.8093 73.6287 91.1443 75.2841Z" fill="#2C2C2C"/>
</g>
<defs>
<linearGradient id="paint0_linear_0_808" x1="126.038" y1="237.417" x2="174.705" y2="236.44" gradientUnits="userSpaceOnUse">
<stop/>
<stop offset="1" stop-color="#FF3E83"/>
</linearGradient>
</defs>
</svg>
